<svg xmlns="http://www.w3.org/2000/svg" viewBox="0 0 598.6 318.7">
  <defs>
    <marker id="a" orient="auto" overflow="visible">
      <path fill="#00f" fill-rule="evenodd" stroke="#00f" stroke-width=".8pt" d="M10 0l4-4L0 0l14 4-4-4z"/>
    </marker>
    <marker id="b" orient="auto" overflow="visible">
      <path fill="#00f" fill-rule="evenodd" stroke="#00f" stroke-width=".8pt" d="M-10 0l-4 4L0 0l-14-4 4 4z"/>
    </marker>
    <marker id="c" orient="auto" overflow="visible">
      <path fill="#00f" fill-rule="evenodd" stroke="#00f" stroke-width=".8pt" d="M10 0l4-4L0 0l14 4-4-4z"/>
    </marker>
    <marker id="d" orient="auto" overflow="visible">
      <path fill="#00f" fill-rule="evenodd" stroke="#00f" stroke-width=".8pt" d="M-10 0l-4 4L0 0l-14-4 4 4z"/>
    </marker>
  </defs>
  <path fill="#fc0" fill-rule="evenodd" stroke="#000" stroke-width="17.6" d="M28.3 26.5h446v181.1h-446z"/>
  <text x="245.14" y="341.93" style="line-height:125%" font-size="40" font-family="sans-serif" letter-spacing="0" word-spacing="0" transform="translate(-238.5 -488.1)"/>
  <path fill="#fff" fill-rule="evenodd" d="M70.9 71.3h360.7v91.4H70.9z"/>
  <g style="line-height:125%;-inkscape-font-specification:'sans-serif, Normal';text-align:justify" font-size="15" font-family="sans-serif" letter-spacing="0" word-spacing="0">
    <path d="M80.4 75.93h-3.9v9.62h-1.4v-9.62h-3.9v-1.3h9.2v1.3zM86.4 85.55H85v-.87q-.2.12-.5.35-.3.22-.6.35-.3.17-.8.28-.4.12-1 .12-1.1 0-1.9-.74-.8-.73-.8-1.86 0-.93.4-1.5.4-.58 1.2-.9.7-.34 1.8-.46 1-.12 2.2-.18v-.2q0-.48-.1-.8-.2-.3-.5-.47-.3-.17-.7-.23h-.9q-.5 0-1.2.14-.6.14-1.4.4v-1.4q.4-.1 1.1-.23.8-.13 1.5-.13.9 0 1.5.15.7.14 1.2.48.4.34.7.87.2.54.2 1.33v5.55zM85 83.53v-2.27q-.6 0-1.5.1-.8.1-1.3.22-.6.17-1 .53-.3.36-.3.98 0 .7.4 1.06.4.35 1.3.35.7 0 1.3-.28.6-.3 1.1-.7zM95.7 85.55h-1.4v-.86q-.6.5-1.2.8-.7.28-1.4.28-1.5 0-2.3-1.13-.9-1.13-.9-3.13 0-1.04.3-1.85.3-.82.8-1.4.5-.54 1.2-.84.6-.3 1.3-.3.7 0 1.2.15.5.13 1 .42v-3.55h1.4v11.4zm-1.4-2.02v-4.7q-.5-.24-1-.33-.4-.1-.9-.1-1.2 0-1.8.8-.7.8-.7 2.3 0 1.45.5 2.2.5.77 1.6.77.6 0 1.2-.26.6-.25 1.1-.67zM105.5 77.37l-4.8 11.2h-1.5l1.6-3.42-3.3-7.78H99l2.5 6.06 2.5-6.06h1.5zM120.3 76h-1.5v-1.43h1.5V76zm-.1 9.75q0 1.43-.7 2.16-.7.75-1.9.75-.3 0-.8-.1l-.8-.15v-1.3q.3.1.6.17.3.1.7.1.5 0 .8-.14.4-.15.5-.44.2-.3.2-.72.1-.4.1-1v-6.6h-1.7v-1.15h3v8.38zM129.8 81.6h-6q0 .76.2 1.32t.6.92q.4.35.9.52.5.18 1.2.18.8 0 1.6-.33.9-.33 1.3-.65v1.5q-.7.3-1.4.5t-1.5.2q-2.1 0-3.2-1.1-1.1-1.12-1.1-3.14 0-2 1.1-3.18 1.1-1.18 2.8-1.18 1.7 0 2.6.97.9.97.9 2.75v.75zm-1.4-1.05q0-1.1-.5-1.68-.5-.6-1.6-.6t-1.8.66q-.7.65-.7 1.62h4.6zM149.3 81.46q0 2-1 3.16-1 1.16-2.7 1.16-1.8 0-2.8-1.16-1-1.16-1-3.16t1-3.15q1-1.16 2.8-1.16 1.7 0 2.7 1.17 1 1.16 1 3.16zm-1.4 0q0-1.6-.6-2.36-.6-.77-1.7-.77t-1.8.77q-.6.77-.6 2.36 0 1.54.6 2.34.7.8 1.8.8t1.7-.8q.6-.8.6-2.34zM158.7 81.4q0 1.02-.3 1.84-.3.82-.8 1.38-.5.58-1.1.87-.6.28-1.4.28-.7 0-1.2-.17-.5-.15-1-.43l-.1.38h-1.3v-11.4h1.4v4.07q.5-.47 1.2-.77.6-.3 1.5-.3 1.4 0 2.2 1.1.9 1.12.9 3.15zm-1.4 0q0-1.46-.5-2.22-.5-.76-1.6-.76-.6 0-1.2.27-.6.24-1.1.65v4.7q.5.25 1 .36.4.1.9.1 1.2 0 1.8-.74.7-.75.7-2.36zM166.7 83.2q0 1.1-1 1.83-.9.72-2.5.72-.9 0-1.7-.22-.7-.22-1.2-.47V83.5h.1q.6.5 1.4.8.8.28 1.5.28.9 0 1.5-.3.5-.28.5-.9 0-.5-.3-.75t-1.1-.42q-.3-.1-.7-.14-.5-.1-.9-.2-1.1-.28-1.5-.83-.5-.56-.5-1.36 0-.5.2-.95.2-.45.7-.8.4-.35 1-.54.6-.2 1.4-.2.8 0 1.5.17.8.18 1.3.44v1.46h-.1q-.5-.4-1.3-.65-.8-.27-1.5-.27t-1.3.3q-.5.28-.5.85 0 .5.3.77.3.25 1 .4.4.1.9.2l.8.15q.9.22 1.5.76.5.54.5 1.43zM175 85.55h-1.4v-.87q-.1.12-.5.35-.3.22-.6.35-.3.17-.7.28-.5.12-1.1.12-1.1 0-1.9-.74-.7-.73-.7-1.86 0-.93.4-1.5.4-.58 1.1-.9.7-.34 1.8-.46 1-.12 2.2-.18v-.2q0-.48-.1-.8-.2-.3-.5-.47-.3-.17-.7-.23h-.9q-.5 0-1.2.14-.6.14-1.3.4h-.1v-1.4q.4-.1 1.2-.23.7-.13 1.5-.13t1.5.15q.6.14 1.1.48.4.34.7.87.2.54.2 1.33v5.55zm-1.4-2.02v-2.27q-.6 0-1.4.1-.9.1-1.4.22-.6.17-1 .53-.3.36-.3.98 0 .7.4 1.06.4.35 1.3.35.7 0 1.3-.28.6-.3 1.1-.7zM184.5 85.55h-1.4V80.9v-1.06q-.1-.5-.3-.78-.1-.3-.5-.45-.3-.15-.9-.15-.6 0-1.2.28t-1.1.7v6.12h-1.4v-11.4h1.4v4.13q.6-.54 1.3-.84.7-.3 1.4-.3 1.3 0 2 .8t.7 2.3v5.3zM190 83.46l-2 4.8h-1.1l1.3-4.8h1.8zM207.4 85.48q-.4.1-.9.16-.4.1-.8.1-1.2 0-1.9-.67-.7-.68-.7-2.16v-4.34h-.9V77.4h.9v-2.35h1.4v2.35h2.9v1.16h-2.9v3.72q0 .65.1 1 0 .37.2.7.1.28.4.42.3.13.9.13.3 0 .7-.1l.5-.17h.1v1.24zM214.1 78.87q-.3-.1-.6-.1h-.7q-.7 0-1.2.3-.6.26-1.2.7v5.82H209v-8.2h1.4v1.22q.8-.66 1.5-.93.6-.3 1.2-.3h.6q.1 0 .4.1v1.42zm-.3-5.6l-1.7 2.78h-1.7l-1.7-2.78h1.2l1.4 1.88 1.3-1.88h1.2zM222.3 81.6h-6q0 .76.2 1.32t.6.92q.4.35.9.52.5.18 1.2.18.8 0 1.7-.33.8-.33 1.2-.65v1.5q-.7.3-1.4.5t-1.5.2q-2 0-3.2-1.1-1.1-1.12-1.1-3.14 0-2 1.1-3.18 1.1-1.18 2.8-1.18 1.7 0 2.6.97.9.97.9 2.75v.75zm-1.3-1.05q0-1.1-.6-1.68-.5-.6-1.6-.6t-1.8.66q-.6.65-.7 1.62h4.7zM231.6 81.4q0 1.02-.3 1.84-.3.82-.8 1.38-.5.58-1.1.87-.6.28-1.4.28-.7 0-1.2-.17-.5-.15-1-.43l-.1.38h-1.3v-11.4h1.4v4.07q.5-.47 1.2-.77.6-.3 1.5-.3 1.4 0 2.2 1.1.9 1.12.9 3.15zm-1.4 0q0-1.46-.5-2.22-.5-.76-1.6-.76-.6 0-1.2.27-.6.24-1.1.65v4.7q.5.25 1 .36.4.1.9.1 1.2 0 1.8-.74.7-.75.7-2.36zM240.1 85.55h-1.4v-.87q-.2.12-.5.35-.3.22-.6.35-.3.17-.8.28-.4.12-1 .12-1.1 0-1.9-.74-.8-.73-.8-1.86 0-.93.4-1.5.4-.58 1.2-.9.7-.34 1.8-.46 1-.12 2.2-.18v-.2q0-.48-.1-.8-.2-.3-.5-.47-.3-.17-.7-.23h-.9q-.5 0-1.2.14t-1.4.4v-1.4q.4-.1 1.1-.23.8-.13 1.5-.13.9 0 1.5.15.7.14 1.1.48.5.34.7.87.3.54.3 1.33v5.55zm-1.4-2.02v-2.27q-.6 0-1.5.1-.8.1-1.3.22-.6.17-1 .53-.3.36-.3.98 0 .7.4 1.06.4.35 1.3.35.7 0 1.3-.28.6-.3 1.1-.7zM257.5 85.48q-.4.1-.8.16-.5.1-.9.1-1.2 0-1.9-.67-.6-.68-.6-2.16v-4.34h-.9V77.4h.9v-2.35h1.4v2.35h2.8v1.16h-2.8V83.28q0 .37.2.7.2.28.4.42.3.13.9.13.3 0 .7-.1.4-.1.5-.17h.1v1.24zM266 81.6h-6q0 .76.2 1.32t.6.92q.4.35.9.52.6.18 1.2.18.8 0 1.7-.33.8-.33 1.2-.65h.1v1.5q-.7.3-1.5.5-.7.2-1.5.2-2 0-3.2-1.1-1.1-1.12-1.1-3.14 0-2 1.1-3.18 1.1-1.18 2.9-1.18 1.6 0 2.5.97.9.97.9 2.75v.75zm-1.3-1.05q0-1.1-.6-1.68-.5-.6-1.6-.6t-1.8.66q-.6.65-.7 1.62h4.7zM275.2 85.55h-1.7l-2.4-3.14-2.3 3.15h-1.6l3.2-4.08-3.2-4.1h1.8l2.3 3.1 2.3-3.1h1.6L272 81.4l3.2 4.15zM281.2 85.48q-.4.1-.8.16-.5.1-.8.1-1.3 0-1.9-.67-.7-.68-.7-2.16v-4.34h-.9V77.4h.9v-2.35h1.4v2.35h2.8v1.16h-2.8V83.28q0 .37.2.7.2.28.5.42.3.13.8.13.4 0 .7-.1.4-.1.6-.17v1.24zM300.2 85.55h-1.3V80.9q0-.57-.1-1.06-.1-.5-.2-.78-.2-.3-.6-.45-.3-.15-.9-.15-.5 0-1.1.28-.7.28-1.2.7v6.12h-1.4v-8.18h1.4v.9q.6-.53 1.3-.83.7-.3 1.4-.3 1.4 0 2 .8.7.8.7 2.3v5.3zM309.7 81.6h-6q0 .76.2 1.32.3.56.7.92.3.35.9.52.5.18 1.1.18.9 0 1.7-.33.8-.33 1.2-.65h.1v1.5q-.7.3-1.4.5-.8.2-1.6.2-2 0-3.1-1.1-1.2-1.12-1.2-3.14 0-2 1.1-3.18 1.1-1.18 2.9-1.18 1.6 0 2.5.97.9.97.9 2.75v.75zm-1.3-1.05q0-1.1-.5-1.68-.6-.6-1.7-.6t-1.7.66q-.7.65-.8 1.62h4.7zM319 81.4q0 1.02-.3 1.84-.3.82-.7 1.38-.6.58-1.2.87-.6.28-1.4.28-.6 0-1.2-.17-.5-.15-1-.43l-.1.38h-1.3v-11.4h1.4v4.07q.6-.47 1.2-.77.7-.3 1.5-.3 1.5 0 2.3 1.1.8 1.12.8 3.15zm-1.4 0q0-1.46-.5-2.22-.5-.76-1.5-.76-.6 0-1.3.27-.6.24-1.1.65v4.7q.6.25 1 .36.4.1 1 .1 1.1 0 1.8-.74.6-.75.6-2.36zM328.1 81.46q0 2-1 3.16-1 1.16-2.7 1.16-1.8 0-2.8-1.16-1-1.16-1-3.16t1-3.15q1-1.16 2.8-1.16 1.7 0 2.7 1.17 1 1.16 1 3.16zm-1.4 0q0-1.6-.6-2.36-.6-.77-1.7-.77t-1.8.77q-.6.77-.6 2.36 0 1.54.6 2.34.7.8 1.8.8t1.7-.8q.6-.8.6-2.34zM343.3 76h-1.5v-1.43h1.5V76zm-.1 9.75q0 1.43-.7 2.16-.7.75-2 .75-.2 0-.7-.1l-.8-.15v-1.3q.3.1.6.17.3.1.7.1.5 0 .8-.14.4-.15.5-.44.2-.3.2-.72.1-.4.1-1v-6.6h-1.7v-1.15h3v8.38zM347.4 76h-1.5v-1.43h1.5V76zm-.1 9.55H346v-8.18h1.3v8.18zM356.9 85.55h-1.4V80.9q0-.57-.1-1.06-.1-.5-.2-.78-.2-.3-.6-.45-.3-.15-.9-.15-.5 0-1.1.28-.6.28-1.2.7v6.12H350v-8.18h1.4v.9q.6-.53 1.3-.83.7-.3 1.4-.3 1.4 0 2.1.8.7.8.7 2.3v5.3zM365.9 85.55h-1.4v-.87q-.2.12-.5.35-.3.22-.6.35-.4.17-.8.28-.4.12-1 .12-1.2 0-1.9-.74-.8-.73-.8-1.86 0-.93.4-1.5.4-.58 1.1-.9.8-.34 1.8-.46 1.1-.12 2.3-.18v-.2q0-.48-.2-.8-.1-.3-.4-.47-.3-.17-.7-.23h-.9q-.5 0-1.2.14t-1.4.4h-.1v-1.4q.4-.1 1.2-.23.8-.13 1.5-.13.9 0 1.5.15.6.14 1.1.48.5.34.7.87.3.54.3 1.33v5.55zm-1.4-2.02v-2.27q-.6 0-1.5.1-.8.1-1.3.22-.6.17-1 .53t-.4.98q0 .7.5 1.06.4.35 1.3.35.7 0 1.3-.28.6-.3 1.1-.7zm.5-10.26L363 76h-1.1l1.3-2.73h1.8zM386.5 85.55h-1.9l-3.2-3.58-.9.85v2.73h-1.4v-11.4h1.4v7.3l3.9-4.08h1.8l-3.8 3.78 4.1 4.4zM393 78.87h-.1q-.3-.1-.6-.1h-.6q-.7 0-1.3.3-.6.26-1.1.7v5.82h-1.4v-8.2h1.4v1.22q.8-.66 1.4-.93.7-.3 1.3-.3h.5q.2 0 .5.1v1.42zM400.4 85.55H399v-.87q-.1.12-.5.35-.3.22-.6.35-.3.17-.7.28-.5.12-1.1.12-1.1 0-1.9-.74-.7-.73-.7-1.86 0-.93.4-1.5.4-.58 1.1-.9.7-.34 1.8-.46 1-.12 2.2-.18v-.2q0-.48-.1-.8-.2-.3-.5-.47-.3-.17-.7-.23h-.9q-.5 0-1.2.14-.6.14-1.3.4h-.1v-1.4q.4-.1 1.2-.23.7-.13 1.5-.13t1.5.15q.6.14 1.1.48.4.34.7.87.2.54.2 1.33v5.55zm-1.4-2.02v-2.27q-.6 0-1.4.1-.9.1-1.4.22-.6.17-1 .53-.3.36-.3.98 0 .7.4 1.06.4.35 1.3.35.7 0 1.3-.28.6-.3 1.1-.7zM410.3 81.4q0 1.02-.3 1.84-.3.82-.8 1.38-.5.58-1.1.87-.7.28-1.4.28t-1.2-.17q-.5-.15-1-.43l-.1.38h-1.3v-11.4h1.4v4.07q.5-.47 1.2-.77.6-.3 1.5-.3 1.4 0 2.2 1.1.9 1.12.9 3.15zm-1.4 0q0-1.46-.5-2.22-.5-.76-1.6-.76-.6 0-1.2.27-.6.24-1.1.65v4.7q.5.25 1 .36.4.1.9.1 1.2 0 1.8-.74.7-.75.7-2.36zM413.9 76h-1.5v-1.43h1.5V76zm-.1 9.55h-1.4v-8.18h1.4v8.18zM422.5 85.04q-.6.33-1.3.5-.6.2-1.3.2-.9 0-1.6-.26-.7-.27-1.3-.8-.5-.52-.8-1.33-.3-.8-.3-1.88 0-2 1.1-3.15 1.1-1.14 2.9-1.14.7 0 1.4.2t1.2.48v1.53q-.7-.5-1.3-.77-.7-.26-1.3-.26-1.2 0-1.9.8-.7.78-.7 2.3 0 1.48.7 2.28.7.8 1.9.8.4 0 .8-.12.4-.1.8-.3l.6-.3q.2-.2.4-.3v1.5zM431.2 81.6h-6.1q0 .76.3 1.32.2.56.6.92.4.35.9.52.5.18 1.1.18.9 0 1.7-.33.9-.33 1.2-.65h.1v1.5q-.7.3-1.4.5t-1.5.2q-2.1 0-3.2-1.1-1.2-1.12-1.2-3.14 0-2 1.1-3.18 1.1-1.18 2.9-1.18 1.7 0 2.6.97.9.97.9 2.75v.75zm-1.4-1.05q0-1.1-.5-1.68-.6-.6-1.7-.6t-1.7.66q-.7.65-.8 1.62h4.7zM75.1 94.75h-1.6v-1.43h1.6v1.43zm-.1 9.75q0 1.43-.7 2.16-.8.74-2 .74-.3 0-.8-.1-.4-.1-.8-.15v-1.3h.1q.2.1.6.17.3.1.6.1.6 0 .9-.14.3-.15.5-.44.1-.3.2-.7v-7.6h-1.7v-1.16H75v8.38zM84.1 104.3h-1.4v-.87q-.2.12-.5.35-.3.22-.6.35-.4.17-.8.28-.5.13-1.1.13-1.1 0-1.8-.74-.8-.74-.8-1.87 0-.93.4-1.5.4-.58 1.1-.9.8-.34 1.8-.46 1.1-.12 2.3-.18v-.22q0-.47-.2-.78-.1-.3-.5-.48-.2-.17-.7-.23h-.8q-.6 0-1.2.13-.7.14-1.4.4h-.1v-1.4q.4-.1 1.2-.23.8-.13 1.5-.13.9 0 1.5.15.6.14 1.1.48.5.34.7.87.3.54.3 1.33v5.55zm-1.4-2.02V100q-.6 0-1.5.12-.9.1-1.4.2-.5.18-.9.54-.4.35-.4.97 0 .7.4 1.06.5.34 1.3.34t1.4-.27q.6-.3 1.1-.7zM94.1 104.3h-1.8l-3.3-3.58-.8.85v2.73h-1.4V92.9h1.4v7.3l3.9-4.08h1.8l-3.8 3.78 4 4.4zM102.4 100.2q0 2-1 3.17-1 1.16-2.7 1.16-1.8 0-2.8-1.16-1-1.16-1-3.16t1-3.14q1-1.17 2.8-1.17 1.7 0 2.7 1.16 1 1.15 1 3.15zm-1.4 0q0-1.58-.6-2.35t-1.7-.77q-1.2 0-1.8.77-.6.77-.6 2.36 0 1.55.6 2.35t1.8.8q1 0 1.7-.8.6-.8.6-2.34zM123.7 94.75h-1.6v-1.43h1.6v1.43zm-.1 9.75q0 1.43-.8 2.16-.7.74-1.9.74-.3 0-.8-.1l-.8-.15v-1.3h.1q.2.1.5.17.4.1.7.1.5 0 .8-.14.4-.15.5-.44.2-.3.2-.7.1-.42.1-1v-6.6h-1.7v-1.16h3.1v8.38zM133.1 100.35h-6q0 .76.2 1.32t.6.92q.4.34.9.5.6.2 1.2.2.8 0 1.7-.34.8-.34 1.2-.66v1.5q-.7.3-1.4.5t-1.5.2q-2 0-3.2-1.1-1.1-1.12-1.1-3.14 0-2 1.1-3.2 1.1-1.17 2.9-1.17 1.6 0 2.5.96.9.96.9 2.74v.75zm-1.3-1.05q0-1.1-.6-1.68-.5-.6-1.6-.6t-1.8.66q-.6.65-.7 1.62h4.7zM156 104.23q-.4.1-.9.16-.4.1-.8.1-1.2 0-1.9-.68-.6-.68-.6-2.16V97.3h-1v-1.15h1V93.8h1.3v2.35h2.9v1.16h-2.9v3.73q0 .65.1 1 0 .37.2.7.1.28.4.42.3.13.9.13.3 0 .7-.1l.5-.17h.1v1.25zM164 104.3h-1.4v-.87q-.1.12-.5.35-.3.22-.6.35-.3.17-.8.28-.4.13-1 .13-1.1 0-1.9-.74-.7-.74-.7-1.87 0-.93.4-1.5.4-.58 1.1-.9.7-.34 1.8-.46 1-.12 2.2-.18v-.22q0-.47-.1-.78-.2-.3-.5-.48-.3-.17-.7-.23h-.9q-.5 0-1.2.13-.6.14-1.3.4h-.1v-1.4q.4-.1 1.1-.23.8-.13 1.5-.13.9 0 1.6.15.6.14 1.1.48.4.34.7.87.2.54.2 1.33v5.55zm-1.4-2.02V100q-.6 0-1.4.12-.9.1-1.4.2-.6.18-1 .54-.3.35-.3.97 0 .7.4 1.06.4.34 1.3.34.7 0 1.3-.27.6-.3 1.1-.7zM170.9 104.23q-.4.1-.8.16-.5.1-.8.1-1.3 0-1.9-.68-.7-.68-.7-2.16V97.3h-.9v-1.15h.9V93.8h1.4v2.35h2.8v1.16h-2.8v4.73q0 .37.2.7.2.28.5.42.2.13.8.13.4 0 .7-.1.4-.1.5-.17h.1v1.25zM179.6 100.2q0 2-1.1 3.17-1 1.16-2.7 1.16-1.7 0-2.8-1.16-1-1.16-1-3.16t1-3.14q1.1-1.17 2.8-1.17 1.7 0 2.7 1.16 1.1 1.15 1.1 3.15zm-1.5 0q0-1.58-.6-2.35t-1.7-.77q-1.1 0-1.7.77-.7.77-.7 2.36 0 1.55.7 2.35.6.8 1.7.8t1.7-.8q.6-.8.6-2.34zM183.8 104.3h-1.7v-2.1h1.7v2.1zM216.3 93.4l-2.8 10.9h-1.6l-2.3-9.05-2.3 9.05h-1.5l-2.9-10.9h1.5l2.2 9.06 2.3-9.07h1.5l2.3 9.15 2.2-9.16h1.4zM224.5 100.35h-6q0 .76.2 1.32t.6.92q.4.34.9.5.5.2 1.2.2.8 0 1.6-.34.9-.34 1.3-.66v1.5q-.7.3-1.4.5t-1.5.2q-2.1 0-3.2-1.1-1.1-1.12-1.1-3.14 0-2 1.1-3.2 1.1-1.17 2.8-1.17 1.7 0 2.6.96.9.96.9 2.74v.75zm-1.4-1.05q0-1.1-.5-1.68-.5-.6-1.6-.6t-1.8.66q-.7.65-.7 1.62h4.6zM233.8 100.15q0 1.02-.3 1.84-.3.8-.8 1.37-.5.58-1.1.87-.7.3-1.4.3t-1.2-.18q-.5-.16-1-.44l-.1.38h-1.3V92.9h1.4v4.07q.5-.47 1.2-.77.6-.3 1.4-.3 1.5 0 2.3 1.1.9 1.12.9 3.15zm-1.4 0q0-1.46-.5-2.22-.5-.76-1.6-.76-.6 0-1.2.27-.6.25-1.1.66v4.7q.5.25 1 .36.4.1.9.1 1.2 0 1.8-.75.7-.74.7-2.35zM242.9 100.2q0 2-1 3.17-1.1 1.16-2.8 1.16-1.7 0-2.7-1.16-1.1-1.16-1.1-3.16t1.1-3.14q1-1.17 2.7-1.17 1.7 0 2.8 1.16 1 1.15 1 3.15zm-1.4 0q0-1.58-.7-2.35-.6-.77-1.7-.77t-1.7.77q-.6.77-.6 2.36 0 1.55.6 2.35t1.7.8q1.1 0 1.7-.8.7-.8.7-2.34zM252 96.12l-3.3 8.18h-1.4l-3.3-8.18h1.5l2.5 6.5 2.5-6.5h1.5zM260.6 100.35h-6q0 .76.2 1.32.3.56.7.92.3.34.9.5.5.2 1.1.2.9 0 1.7-.34.8-.34 1.2-.66h.1v1.5q-.7.3-1.4.5-.8.2-1.6.2-2 0-3.1-1.1-1.2-1.12-1.2-3.14 0-2 1.1-3.2 1.1-1.17 2.9-1.17 1.6 0 2.5.96.9.96.9 2.74v.75zm-1.3-1.05q0-1.1-.6-1.68-.5-.6-1.6-.6t-1.7.66q-.7.65-.8 1.62h4.7zm.2-7.28l-2 2.74h-1.1l1.3-2.74h1.8zM285.1 101.94q0 1.12-.9 1.84t-2.5.72q-1 0-1.7-.22-.8-.22-1.3-.47v-1.54h.1q.6.5 1.4.8.8.27 1.6.27.9 0 1.4-.3.5-.28.5-.9 0-.5-.3-.75t-1-.42q-.3-.1-.8-.15-.5-.1-.9-.2-1-.27-1.5-.82-.4-.56-.4-1.36 0-.5.2-.95.2-.45.6-.8.4-.35 1-.54.7-.2 1.5-.2.7 0 1.4.17.8.18 1.3.44V98h-.1q-.5-.38-1.3-.64-.7-.28-1.4-.28-.8 0-1.3.3-.5.28-.5.85 0 .5.3.77.3.25 1 .4l.8.2.8.15q1 .22 1.5.76.5.55.5 1.44zM291.3 104.23q-.4.1-.8.16-.5.1-.8.1-1.3 0-1.9-.68-.7-.68-.7-2.16V97.3h-.9v-1.15h.9V93.8h1.4v2.35h2.8v1.16h-2.8v4.73l.2.7q.2.28.5.42.3.13.8.13.4 0 .7-.1.4-.1.6-.17v1.25zM298.1 97.62h-.1q-.3-.1-.6-.1h-.6q-.7 0-1.3.3-.6.26-1.1.7v5.82H293v-8.18h1.4v1.2q.8-.65 1.4-.92.7-.28 1.3-.28h.5q.2 0 .5.1v1.4zM305.8 104.3h-1.4v-.87q-.2.12-.5.35-.3.22-.6.35-.3.17-.8.28-.4.13-1 .13-1.1 0-1.9-.74-.8-.74-.8-1.87 0-.93.4-1.5.4-.58 1.2-.9.7-.34 1.8-.46 1-.12 2.2-.18v-.22q0-.47-.2-.78-.1-.3-.4-.48-.3-.17-.7-.23h-.9q-.5 0-1.2.13-.7.14-1.4.4v-1.4q.4-.1 1.1-.23.8-.13 1.5-.13.9 0 1.5.15.7.14 1.1.48.5.34.7.87.3.54.3 1.33v5.55zm-1.4-2.02V100q-.6 0-1.5.12-.8.1-1.3.2-.6.18-1 .54-.3.35-.3.97 0 .7.4 1.06.4.34 1.3.34.7 0 1.3-.27.6-.3 1.1-.7zm.5-10.26l-2 2.74h-1.1l1.3-2.74h1.8zM315.3 104.3h-1.4v-4.66q0-.56-.1-1.05 0-.5-.2-.8-.2-.3-.5-.44-.4-.16-.9-.16-.6 0-1.2.28t-1.2.7v6.12h-1.4v-8.18h1.4v.9q.7-.53 1.4-.83.6-.3 1.4-.3 1.3 0 2 .8t.7 2.3v5.3zM325.4 104.3h-1.9l-3.2-3.58-.9.85v2.73H318V92.9h1.4v7.3l4-4.08h1.7l-3.8 3.78 4.1 4.4zM333.9 96.12l-4.8 11.2h-1.5l1.6-3.42-3.3-7.78h1.5l2.5 6.06 2.5-6.06h1.5zM354.8 94.75h-1.6v-1.43h1.6v1.43zm-.1 9.75q0 1.43-.7 2.16-.8.74-2 .74-.3 0-.8-.1l-.8-.15v-1.3h.1q.2.1.5.17.4.1.7.1.6 0 .9-.14.3-.15.5-.44.1-.3.2-.7v-7.6h-1.7v-1.16h3.1v8.38zM363.2 101.94q0 1.12-.9 1.84t-2.5.72q-.9 0-1.7-.22-.7-.22-1.3-.47v-1.54h.1q.7.5 1.5.8.8.27 1.5.27.9 0 1.4-.3.5-.28.5-.9 0-.5-.3-.75-.2-.25-1-.42-.3-.1-.8-.15-.5-.1-.8-.2-1.1-.27-1.6-.82-.4-.56-.4-1.36 0-.5.2-.95.2-.45.6-.8.4-.35 1.1-.54.6-.2 1.4-.2.7 0 1.5.17.7.18 1.2.44V98h-.1q-.5-.38-1.2-.64-.8-.28-1.5-.28-.8 0-1.3.3-.5.28-.5.85 0 .5.3.77.3.25 1 .4l.8.2.8.15q1 .22 1.5.76.5.55.5 1.44zM372.2 100.2q0 2-1 3.17-1.1 1.16-2.8 1.16-1.7 0-2.7-1.16-1.1-1.16-1.1-3.16t1.1-3.14q1-1.17 2.7-1.17 1.7 0 2.8 1.16 1 1.15 1 3.15zm-1.4 0q0-1.58-.7-2.35-.6-.77-1.7-.77t-1.7.77q-.6.77-.6 2.36 0 1.55.6 2.35t1.7.8q1.1 0 1.7-.8.7-.8.7-2.34zM381.1 104.3h-1.4v-.9q-.7.54-1.3.83-.6.3-1.4.3-1.3 0-2-.8-.7-.78-.7-2.3v-5.3h1.3v4.65q0 .62.1 1.07.1.43.2.75.2.32.6.47.3.15.9.15.5 0 1.1-.28.7-.28 1.2-.7V96.1h1.4v8.18zM404.6 104.23q-.4.1-.8.16-.5.1-.9.1-1.2 0-1.9-.68-.6-.68-.6-2.16V97.3h-.9v-1.15h.9V93.8h1.4v2.35h2.8v1.16h-2.8v4.73q0 .37.2.7.2.28.4.42.3.13.9.13.3 0 .7-.1.4-.1.5-.17h.1v1.25zM413.2 100.2q0 2-1 3.17-1 1.16-2.7 1.16-1.8 0-2.8-1.16-1-1.16-1-3.16t1-3.14q1-1.17 2.8-1.17 1.7 0 2.7 1.16 1 1.15 1 3.15zm-1.4 0q0-1.58-.6-2.35t-1.7-.77q-1.1 0-1.8.77-.6.77-.6 2.36 0 1.55.6 2.35.7.8 1.8.8t1.7-.8q.6-.8.6-2.34zM419.6 104.23q-.4.1-.8.16-.5.1-.8.1-1.3 0-1.9-.68-.7-.68-.7-2.16V97.3h-.9v-1.15h.9V93.8h1.4v2.35h2.8v1.16h-2.8v4.73q0 .37.2.7.2.28.5.42.2.13.8.13.4 0 .7-.1.4-.1.6-.17v1.25zM422.8 94.75h-1.6v-1.43h1.6v1.43zm-.1 9.55h-1.4v-8.18h1.4v8.18zM431.3 104.3h-6.6v-1.02l4.8-6h-4.7V96.1h6.4v.98l-4.8 6.03h4.9v1.17zm-.8-12.28l-1.7 2.78h-1.7l-1.6-2.78h1.1l1.4 1.88 1.3-1.88h1.2zM79.7 118.86q0 1-.2 1.82-.3.82-.9 1.4-.4.54-1.1.84-.6.3-1.4.3-.6 0-1.1-.15-.5-.14-1.1-.43v3.43h-1.4v-11.2h1.4v.85q.6-.46 1.2-.76.7-.32 1.5-.32 1.5 0 2.3 1.12.8 1.1.8 3.1zm-1.4 0q0-1.48-.5-2.22-.5-.73-1.5-.73-.6 0-1.2.27-.6.25-1.2.67v4.64q.6.26 1 .36.4.1 1 .1 1.1 0 1.8-.77.6-.78.6-2.3zM88.9 118.96q0 2-1.1 3.16-1 1.16-2.7 1.16-1.7 0-2.8-1.16-1-1.16-1-3.16t1-3.15q1.1-1.16 2.8-1.16 1.7 0 2.7 1.17 1.1 1.16 1.1 3.16zm-1.5 0q0-1.6-.6-2.36-.6-.77-1.7-.77t-1.8.77q-.6.77-.6 2.36 0 1.54.7 2.34.6.8 1.7.8t1.7-.8q.6-.8.6-2.34zM96.8 120.7q0 1.1-.9 1.83-.9.72-2.5.72-.9 0-1.7-.22-.7-.22-1.3-.47V121h.1q.7.5 1.5.8.8.28 1.5.28.9 0 1.4-.3.5-.28.5-.9 0-.5-.2-.75-.3-.25-1.1-.42-.3-.1-.8-.14l-.8-.2q-1.1-.28-1.6-.83-.4-.56-.4-1.36 0-.5.2-.95.2-.45.6-.8.4-.35 1.1-.54.6-.2 1.4-.2.7 0 1.5.17.7.18 1.2.44v1.46h-.1q-.5-.4-1.2-.65-.8-.27-1.5-.27-.8 0-1.3.3-.5.28-.5.85 0 .5.3.77.3.25 1 .4.4.1.9.2.4.1.7.15 1 .22 1.5.76t.5 1.43zM106.2 123.05h-1.8l-3.3-3.58-.8.85v2.73h-1.4v-11.4h1.4v7.3l3.9-4.08h1.8l-3.8 3.78 4 4.4zM109.1 123.05h-1.4v-11.4h1.4v11.4zM118.1 123.05h-1.3v-.87q-.2.12-.5.35-.3.22-.6.35-.4.17-.8.28-.5.12-1.1.12-1.1 0-1.9-.74-.7-.73-.7-1.86 0-.93.4-1.5.4-.58 1.1-.9.8-.34 1.8-.46 1.1-.12 2.3-.18v-.2q0-.48-.2-.8-.2-.3-.5-.47-.3-.17-.7-.23h-.8q-.6 0-1.2.14-.7.14-1.4.4h-.1v-1.4q.4-.1 1.2-.23.7-.13 1.5-.13t1.5.15q.6.14 1.1.48.4.34.7.87.2.54.2 1.33v5.55zm-1.3-2.02v-2.27q-.7 0-1.5.1-.9.1-1.4.22-.6.17-.9.53-.4.36-.4.98 0 .7.4 1.06.4.35 1.3.35.7 0 1.3-.28.6-.3 1.2-.7zm.5-10.26l-2 2.74h-1.1l1.3-2.73h1.8zM127.4 123.05h-1.3v-.86q-.6.5-1.3.8-.6.28-1.4.28-1.5 0-2.3-1.13-.9-1.13-.9-3.13 0-1.04.3-1.85.3-.82.8-1.4.5-.54 1.2-.84.7-.3 1.4-.3.6 0 1.1.15.5.13 1.1.42v-3.55h1.3v11.4zm-1.3-2.02v-4.7q-.6-.24-1-.33-.5-.1-1-.1-1.2 0-1.8.8-.7.8-.7 2.3 0 1.45.5 2.2.5.77 1.6.77.6 0 1.2-.26.6-.25 1.2-.67zM136.5 123.05h-1.4v-.87q-.2.12-.5.35-.3.22-.6.35-.3.17-.8.28-.4.12-1 .12-1.1 0-1.9-.74-.8-.73-.8-1.86 0-.93.4-1.5.4-.58 1.2-.9.7-.34 1.8-.46 1-.12 2.2-.18v-.2q0-.48-.1-.8-.2-.3-.5-.47-.3-.17-.7-.23h-.9q-.5 0-1.2.14-.6.14-1.4.4v-1.4q.4-.1 1.1-.23.8-.13 1.5-.13.9 0 1.5.15.7.14 1.2.48.4.34.7.87.2.54.2 1.33v5.55zm-1.4-2.02v-2.27q-.6 0-1.5.1-.8.1-1.3.22-.6.17-1 .53-.3.36-.3.98 0 .7.4 1.06.4.35 1.3.35.7 0 1.3-.28.6-.3 1.1-.7zM146 123.05h-1.4v-4.66-1.06q-.1-.5-.3-.78-.2-.3-.5-.45-.4-.15-.9-.15-.6 0-1.2.28t-1.2.7v6.12h-1.3v-8.18h1.3v.9q.7-.53 1.4-.83.7-.3 1.4-.3 1.3 0 2 .8t.7 2.3v5.3zM155.5 119.1h-6q0 .76.2 1.32t.6.92q.4.35.9.52.6.18 1.2.18.8 0 1.7-.33.8-.33 1.2-.65v1.5q-.7.3-1.4.5t-1.5.2q-2 0-3.2-1.1-1.1-1.12-1.1-3.14 0-2 1.1-3.18 1.1-1.18 2.9-1.18 1.6 0 2.5.97.9.97.9 2.75v.75zm-1.3-1.05q0-1.1-.6-1.68-.5-.6-1.6-.6t-1.8.66q-.6.65-.7 1.62h4.7zm.1-7.28l-2 2.74h-1.1l1.3-2.73h1.8zM169.1 123.05h-6.6v-1.02l4.8-6h-4.7v-1.16h6.4v.98l-4.8 6.03h4.9v1.17zM177.8 119.1h-6q0 .76.2 1.32.3.56.7.92.3.35.9.52.5.18 1.1.18.9 0 1.7-.33.8-.33 1.2-.65h.1v1.5q-.7.3-1.4.5-.8.2-1.6.2-2 0-3.1-1.1-1.2-1.12-1.2-3.14 0-2 1.1-3.18 1.1-1.18 2.9-1.18 1.6 0 2.5.97.9.97.9 2.75v.75zm-1.3-1.05q0-1.1-.5-1.68-.6-.6-1.7-.6t-1.7.66q-.7.65-.8 1.62h4.7zM191.4 120.7q0 1.1-.9 1.83-1 .72-2.6.72-.9 0-1.6-.22-.8-.22-1.3-.47V121h.1q.6.5 1.4.8.8.28 1.5.28 1 0 1.5-.3.5-.28.5-.9 0-.5-.3-.75t-1.1-.42q-.3-.1-.7-.14-.5-.1-.9-.2-1.1-.28-1.5-.83-.5-.56-.5-1.36 0-.5.2-.95.2-.45.7-.8.4-.35 1-.54.6-.2 1.4-.2.8 0 1.5.17.8.18 1.3.44v1.46h-.1q-.5-.4-1.3-.65-.7-.27-1.5-.27-.7 0-1.2.3-.6.28-.6.85 0 .5.4.77.3.25.9.4.4.1.9.2l.8.15q.9.22 1.5.76.5.54.5 1.43zM200.6 118.86q0 1-.3 1.82-.3.82-.8 1.4-.5.54-1.2.84-.6.3-1.4.3-.6 0-1.1-.15-.5-.14-1.1-.43v3.43h-1.3v-11.2h1.3v.85q.6-.46 1.3-.76.7-.32 1.4-.32 1.5 0 2.3 1.12.9 1.1.9 3.1zm-1.5 0q0-1.48-.5-2.22-.5-.73-1.5-.73-.6 0-1.2.27-.6.25-1.2.67v4.64q.6.26 1 .36.5.1 1 .1 1.2 0 1.8-.77.6-.78.6-2.3zM209.7 118.96q0 2-1 3.16-1.1 1.16-2.8 1.16-1.7 0-2.8-1.16-1-1.16-1-3.16t1-3.15q1.1-1.16 2.8-1.16 1.7 0 2.8 1.17 1 1.16 1 3.16zm-1.4 0q0-1.6-.7-2.36-.6-.77-1.7-.77t-1.7.77q-.6.77-.6 2.36 0 1.54.6 2.34.6.8 1.7.8t1.7-.8q.7-.8.7-2.34zM218.6 123.05h-1.4v-.9q-.7.54-1.3.83-.6.3-1.4.3-1.3 0-2-.8-.7-.78-.7-2.3v-5.3h1.3v4.65q0 .62.1 1.07.1.43.2.75.2.32.6.47.3.15.9.15.5 0 1.1-.28.7-.3 1.2-.72v-6.1h1.4v8.17zM227.2 120.7q0 1.1-1 1.83-.9.72-2.5.72-.9 0-1.7-.22-.7-.22-1.2-.47V121q.7.5 1.5.8.8.28 1.5.28.9 0 1.4-.3.6-.28.6-.9 0-.5-.3-.75t-1.1-.42q-.3-.1-.8-.14l-.8-.2q-1.1-.28-1.6-.83-.4-.56-.4-1.36 0-.5.2-.95.2-.45.6-.8.5-.35 1.1-.54.6-.2 1.4-.2.7 0 1.5.17.7.18 1.2.44v1.46q-.6-.4-1.3-.65-.8-.27-1.5-.27-.8 0-1.3.3-.5.28-.5.85 0 .5.3.77.3.25 1 .4.4.1.9.2.4.1.8.15.9.22 1.4.76.6.54.6 1.43zM233.4 122.98q-.4.1-.9.16-.4.1-.8.1-1.2 0-1.9-.67-.6-.68-.6-2.16v-4.34h-1v-1.16h1v-2.35h1.3v2.35h2.9v1.16h-2.9v3.72q0 .65.1 1 0 .37.2.7.1.28.4.42.3.13.9.13.3 0 .7-.1l.5-.17h.1V123zM242.1 114.87l-4.8 11.2h-1.5l1.5-3.42-3.2-7.78h1.5l2.5 6.06 2.5-6.06h1.5zM256.9 123.05h-1.8l-3.3-3.58-.9.85v2.73h-1.4v-11.4h1.4v7.3l4-4.08h1.7l-3.8 3.78 4.1 4.4zM263.5 116.37h-.1q-.3-.1-.6-.1h-.7q-.6 0-1.2.3-.6.26-1.2.7v5.82h-1.3v-8.2h1.3v1.22q.9-.66 1.5-.93.6-.3 1.3-.3h.5q.1 0 .5.1v1.42zM270.9 123.05h-1.4v-.87q-.2.12-.5.35-.3.22-.6.35-.3.17-.8.28-.4.12-1 .12-1.1 0-1.9-.74-.8-.73-.8-1.86 0-.93.4-1.5.4-.58 1.2-.9.7-.34 1.8-.46 1-.12 2.2-.18v-.2q0-.48-.2-.8-.1-.3-.4-.47-.3-.17-.7-.23h-.9q-.5 0-1.2.14t-1.4.4h-.1v-1.4q.4-.1 1.2-.23.8-.13 1.5-.13.9 0 1.5.15.7.14 1.1.48.5.34.7.87.3.54.3 1.33v5.55zm-1.4-2.02v-2.27q-.6 0-1.5.1-.8.1-1.3.22-.6.17-1 .53t-.4.98q0 .7.5 1.06.4.35 1.3.35.7 0 1.3-.28.6-.3 1.1-.7zM280.7 118.9q0 1.02-.3 1.84-.2.82-.7 1.38-.6.58-1.2.87-.6.28-1.3.28-.7 0-1.3-.17-.5-.15-1-.43l-.1.38h-1.3v-11.4h1.4v4.07q.6-.47 1.2-.77.7-.3 1.5-.3 1.5 0 2.3 1.1.8 1.12.8 3.15zm-1.4 0q0-1.46-.5-2.22-.5-.76-1.5-.76-.6 0-1.2.27-.7.24-1.2.65v4.7q.6.25 1 .36.4.1 1 .1 1.1 0 1.8-.74.6-.75.6-2.36zM284.4 113.5h-1.6v-1.43h1.6v1.43zm-.1 9.55h-1.4v-8.18h1.4v8.18zM293 122.54q-.7.33-1.3.5-.6.2-1.3.2-.9 0-1.6-.26-.8-.27-1.3-.8-.5-.52-.8-1.33-.3-.8-.3-1.88 0-2 1.1-3.15 1.1-1.14 2.9-1.14.7 0 1.4.2.6.2 1.2.48v1.53h-.1q-.6-.5-1.3-.77-.6-.26-1.3-.26-1.1 0-1.8.8-.7.78-.7 2.3 0 1.48.7 2.28.6.8 1.8.8.4 0 .9-.12.4-.1.8-.3.3-.14.5-.3.3-.2.4-.3h.1v1.5zM297.6 120.96l-2 4.8h-1.1l1.3-4.8h1.8zM313.3 123.05h-1.9l-3.2-3.58-.9.85v2.73h-1.4v-11.4h1.4v7.3l4-4.08h1.7l-3.8 3.78 4.1 4.4zM319 122.98q-.4.1-.9.16-.4.1-.8.1-1.3 0-1.9-.67-.7-.68-.7-2.16v-4.34h-.9v-1.16h.9v-2.35h1.4v2.35h2.9v1.16h-2.9v3.72q0 .65.1 1 0 .37.2.7.1.28.4.42.3.13.9.13.3 0 .7-.1l.5-.17h.1V123zM327.5 119.1h-6q0 .76.2 1.32t.6.92q.4.35.9.52.5.18 1.2.18.8 0 1.6-.33.9-.33 1.2-.65h.1v1.5q-.7.3-1.4.5t-1.5.2q-2.1 0-3.2-1.1-1.1-1.12-1.1-3.14 0-2 1-3.18 1.1-1.18 2.9-1.18 1.7 0 2.6.97.9.97.9 2.75v.75zm-1.4-1.05q0-1.1-.5-1.68-.5-.6-1.6-.6t-1.8.66q-.7.65-.7 1.62h4.6zM334.7 116.37h-.1q-.3-.1-.6-.1h-.7q-.6 0-1.2.3-.6.26-1.2.7v5.82h-1.3v-8.2h1.3v1.22q.9-.66 1.5-.93.6-.3 1.3-.3h.5q.2 0 .5.1v1.42zM342.8 119.1h-6q0 .76.2 1.32.3.56.7.92.3.35.9.52.5.18 1.1.18.8 0 1.7-.33.8-.33 1.2-.65h.1v1.5q-.7.3-1.4.5-.8.2-1.6.2-2 0-3.2-1.1-1.1-1.12-1.1-3.14 0-2 1.1-3.18 1.1-1.18 2.9-1.18 1.6 0 2.5.97.9.97.9 2.75v.75zm-1.3-1.05q0-1.1-.6-1.68-.5-.6-1.6-.6t-1.8.66q-.6.65-.7 1.62h4.7zm.2-7.28l-2 2.74h-1.1l1.3-2.73h1.8zM353.1 113.5h-1.6v-1.43h1.6v1.43zm-.1 9.75q0 1.43-.7 2.16-.8.75-2 .75-.3 0-.8-.1l-.8-.15v-1.3h.1q.2.1.5.17.4.1.7.1.6 0 .9-.14.3-.15.5-.44.1-.3.2-.72v-7.6h-1.7v-1.15h3.1v8.38zM361.5 120.7q0 1.1-.9 1.83-.9.72-2.5.72-.9 0-1.7-.22-.7-.22-1.3-.47V121h.1q.7.5 1.5.8.8.28 1.5.28.9 0 1.4-.3.5-.28.5-.9 0-.5-.3-.75-.2-.25-1-.42-.3-.1-.8-.14-.5-.1-.8-.2-1.1-.28-1.6-.83-.4-.56-.4-1.36 0-.5.2-.95.2-.45.6-.8.4-.35 1.1-.54.6-.2 1.4-.2.7 0 1.5.17.7.18 1.2.44v1.46h-.1q-.5-.4-1.2-.65-.8-.27-1.5-.27-.8 0-1.3.3-.5.28-.5.85 0 .5.3.77.3.25 1 .4l.8.2.8.15q1 .22 1.5.76t.5 1.43zM370.5 118.96q0 2-1 3.16-1.1 1.16-2.8 1.16-1.7 0-2.7-1.16-1.1-1.16-1.1-3.16t1.1-3.15q1-1.16 2.7-1.16 1.7 0 2.8 1.17 1 1.16 1 3.16zm-1.4 0q0-1.6-.7-2.36-.6-.77-1.7-.77t-1.7.77q-.6.77-.6 2.36 0 1.54.6 2.34.6.8 1.7.8t1.7-.8q.7-.8.7-2.34zM379.4 123.05H378v-.9q-.7.54-1.3.83-.6.3-1.4.3-1.3 0-2-.8-.7-.78-.7-2.3v-5.3h1.3v4.65q0 .62.1 1.07.1.43.2.75.2.32.6.47.3.15.9.15.5 0 1.1-.28.7-.3 1.2-.72v-6.1h1.4v8.17zM394.6 123.05h-1.4v-4.66q0-.57-.1-1.06 0-.5-.2-.78-.2-.3-.5-.45-.4-.15-.9-.15-.6 0-1.2.28t-1.2.7v6.12h-1.4v-8.18h1.4v.9q.6-.53 1.3-.83.7-.3 1.5-.3 1.3 0 2 .8t.7 2.3v5.3zM404.1 119.1H398q0 .76.3 1.32.2.56.6.92.4.35.9.52.5.18 1.1.18.9 0 1.7-.33.9-.33 1.2-.65h.1v1.5q-.7.3-1.4.5t-1.5.2q-2.1 0-3.2-1.1-1.2-1.12-1.2-3.14 0-2 1.1-3.18 1.1-1.18 2.9-1.18 1.7 0 2.6.97.9.97.9 2.75v.75zm-1.4-1.05q0-1.1-.5-1.68-.6-.6-1.7-.6t-1.7.66q-.7.65-.8 1.62h4.7zm.4-7.28l-1.7 2.78h-1.6l-1.7-2.78h1.1l1.4 1.88 1.4-1.88h1.1zM413.6 123.05h-1.8l-3.3-3.58-.9.85v2.73h-1.4v-11.4h1.4v7.3l4-4.08h1.7l-3.8 3.78 4.1 4.4zM421.7 123.05h-1.4v-.86q-.6.5-1.2.8-.7.28-1.4.28-1.5 0-2.4-1.13-.8-1.13-.8-3.13 0-1.04.3-1.85.3-.82.8-1.4.5-.54 1.1-.84.7-.3 1.4-.3.6 0 1.1.15.5.13 1.1.42v-3.55h1.4v11.4zm-1.4-2.02v-4.7q-.6-.24-1-.33-.4-.1-1-.1-1.1 0-1.8.8-.6.8-.6 2.3 0 1.45.5 2.2.5.77 1.6.77.6 0 1.2-.26.6-.25 1.1-.67zM431.5 114.87l-4.8 11.2h-1.5l1.5-3.42-3.2-7.78h1.5l2.5 6.06 2.5-6.06h1.5zM79.6 133.6l-3.3 8.2h-1.4l-3.3-8.2h1.5l2.6 6.5 2.5-6.5h1.4zM88.1 137.9h-6q0 .7.2 1.3.3.5.7.9.4.3.9.5t1.1.2q.9 0 1.7-.3.9-.4 1.2-.7h.1v1.5q-.7.3-1.4.5-.8.2-1.6.2-2 0-3.1-1.1-1.2-1.1-1.2-3.1 0-2.1 1.1-3.2 1.1-1.2 2.9-1.2 1.7 0 2.5 1 .9.9.9 2.7v.8zm-1.3-1.1q0-1.1-.5-1.7-.6-.6-1.7-.6t-1.7.7q-.7.6-.8 1.6h4.7zM96.9 141.8h-1.4v-.9q-.6.6-1.2.8-.7.3-1.4.3-1.5 0-2.4-1.1-.8-1.1-.8-3.1 0-1.1.3-1.9.3-.8.8-1.4.5-.5 1.1-.8.7-.3 1.4-.3.6 0 1.1.1.5.2 1.1.4v-3.5h1.4v11.4zm-1.4-2v-4.7q-.6-.3-1-.4h-1q-1.1 0-1.8.8-.6.8-.6 2.2 0 1.5.5 2.3.5.7 1.6.7.6 0 1.2-.2.6-.3 1.1-.7zM101 141.8h-1.4v-11.4h1.4v11.4zM110.5 137.9h-6q0 .7.2 1.3.2.5.6.9.4.3.9.5.6.2 1.2.2.8 0 1.7-.3.8-.4 1.2-.7v1.5q-.7.3-1.4.5t-1.5.2q-2 0-3.2-1.1-1.1-1.1-1.1-3.1 0-2.1 1.1-3.2 1.1-1.2 2.9-1.2 1.6 0 2.5 1 .9.9.9 2.7v.8zm-1.3-1.1q0-1.1-.6-1.7-.5-.6-1.6-.6t-1.8.7q-.6.6-.7 1.6h4.7zM127 139.4q0 1.2-.9 1.9t-2.5.7q-.9 0-1.7-.2-.8-.2-1.3-.5v-1.5h.1q.6.5 1.4.7.8.3 1.6.3.9 0 1.4-.3.5-.3.5-.9 0-.5-.3-.7-.2-.3-1-.4-.3-.1-.8-.2t-.9-.2q-1-.3-1.5-.8-.4-.6-.4-1.4 0-.5.2-.9.2-.5.6-.8.4-.4 1-.6.7-.2 1.5-.2.7 0 1.4.2.8.2 1.3.4v1.5h-.1q-.5-.4-1.3-.6-.7-.3-1.4-.3-.8 0-1.3.3t-.5.8q0 .5.3.8.3.3 1 .4l.8.2q.5.1.8.2 1 .2 1.5.7.5.5.5 1.4zM135.8 137.9h-6q0 .7.2 1.3.3.5.7.9.3.3.9.5.5.2 1.1.2.9 0 1.7-.3.8-.4 1.2-.7h.1v1.5q-.7.3-1.4.5-.8.2-1.6.2-2 0-3.1-1.1-1.2-1.1-1.2-3.1 0-2.1 1.1-3.2 1.1-1.2 2.9-1.2 1.6 0 2.5 1 .9.9.9 2.7v.8zm-1.3-1.1q0-1.1-.5-1.7-.6-.6-1.7-.6t-1.7.7q-.7.6-.8 1.6h4.7zM145.1 137.6q0 1.1-.3 1.9-.3.8-.7 1.4-.6.5-1.2.8-.6.3-1.4.3-.6 0-1.2-.1-.5-.2-1-.5l-.1.4h-1.3v-11.4h1.4v4.1q.6-.5 1.2-.8.7-.3 1.5-.3 1.5 0 2.3 1.1.8 1.1.8 3.1zm-1.4.1q0-1.5-.5-2.2-.5-.8-1.5-.8-.6 0-1.3.3-.6.2-1.1.6v4.7q.6.3 1 .4.4.1 1 .1 1.1 0 1.8-.8.6-.7.6-2.3zM154.1 137.9h-6q0 .7.2 1.3.2.5.6.9.4.3.9.5.6.2 1.2.2.8 0 1.7-.3.8-.4 1.2-.7h.1v1.5q-.7.3-1.5.5-.7.2-1.5.2-2 0-3.2-1.1-1.1-1.1-1.1-3.1 0-2.1 1.1-3.2 1.1-1.2 2.9-1.2 1.6 0 2.5 1 .9.9.9 2.7v.8zm-1.3-1.1q0-1.1-.6-1.7-.5-.6-1.6-.6t-1.8.7q-.6.6-.7 1.6h4.7zM171.1 141.8h-1.3v-.9q-.2.2-.5.4t-.6.3q-.4.2-.8.3-.5.1-1.1.1-1.1 0-1.8-.7-.8-.7-.8-1.9 0-.9.4-1.5t1.1-.9q.8-.3 1.8-.4l2.3-.2v-.2q0-.5-.2-.8-.1-.3-.5-.5-.3-.1-.7-.2-.4-.1-.8-.1-.6 0-1.2.2-.7.1-1.4.4h-.1v-1.4q.4-.1 1.2-.2.8-.2 1.5-.2.9 0 1.5.2.6.1 1.1.5.5.3.7.8.2.6.2 1.3v5.6zm-1.3-2v-2.3q-.6 0-1.5.1t-1.4.2q-.5.2-.9.6-.4.3-.4.9 0 .7.4 1.1.5.3 1.3.3t1.4-.2q.6-.3 1.1-.7zM189.2 141.8h-1.3v-4.7q0-.5-.1-1t-.2-.8q-.2-.3-.6-.4-.3-.2-.9-.2-.5 0-1.1.3-.7.3-1.2.7v6.1h-1.4v-8.2h1.4v.9q.6-.5 1.3-.8.7-.3 1.4-.3 1.3 0 2 .8t.7 2.3v5.3zM198.7 137.9h-6q0 .7.2 1.3.3.5.7.9.3.3.9.5.5.2 1.1.2.9 0 1.7-.3.8-.4 1.2-.7h.1v1.5q-.7.3-1.4.5-.8.2-1.6.2-2 0-3.1-1.1-1.2-1.1-1.2-3.1 0-2.1 1.1-3.2 1.1-1.2 2.9-1.2 1.6 0 2.5 1 .9.9.9 2.7v.8zm-1.3-1.1q0-1.1-.6-1.7-.5-.6-1.6-.6t-1.8.7q-.6.6-.7 1.6h4.7zm.4-7.3l-1.7 2.8h-1.7l-1.6-2.8h1.1l1.4 1.9 1.3-1.9h1.2zM208.3 141.8h-1.9l-3.2-3.6-.9.9v2.7h-1.4v-11.4h1.4v7.3l3.9-4.1h1.8l-3.8 3.8 4.1 4.4zM216.3 141.8H215v-.9q-.6.6-1.3.8-.6.3-1.4.3-1.4 0-2.3-1.1-.9-1.1-.9-3.1 0-1.1.3-1.9.3-.8.8-1.4.5-.5 1.2-.8.7-.3 1.4-.3.6 0 1.1.1.5.2 1.1.4v-3.5h1.3v11.4zm-1.3-2v-4.7q-.6-.3-1-.4h-1q-1.2 0-1.8.8-.6.8-.6 2.2 0 1.5.5 2.3.5.7 1.6.7.5 0 1.1-.2.6-.3 1.2-.7zM226.1 133.6l-4.8 11.2h-1.4l1.5-3.4-3.3-7.8h1.5l2.5 6.1 2.6-6.1h1.4zM242.4 141.8h-6.6v-1l4.8-6h-4.7v-1.2h6.4v1l-4.8 6h4.9v1.2zM250.7 141.8h-1.3v-.9q-.2.2-.5.4t-.6.3q-.4.2-.8.3-.5.1-1.1.1-1.1 0-1.8-.7-.8-.7-.8-1.9 0-.9.4-1.5t1.1-.9q.8-.3 1.8-.4l2.3-.2v-.2q0-.5-.2-.8-.2-.3-.5-.5-.3-.1-.7-.2-.4-.1-.8-.1-.6 0-1.2.2-.7.1-1.4.4h-.1v-1.4q.4-.1 1.2-.2.7-.2 1.5-.2t1.5.2q.6.1 1.1.5.5.3.7.8.2.6.2 1.3v5.6zm-1.3-2v-2.3q-.7 0-1.5.1-.9.1-1.4.2-.6.2-.9.6-.4.3-.4.9 0 .7.4 1.1.5.3 1.3.3t1.4-.2q.6-.3 1.1-.7zM259.3 139.4q0 1.2-1 1.9-.9.7-2.5.7-.9 0-1.7-.2-.7-.2-1.2-.5v-1.5q.7.5 1.5.7.8.3 1.5.3.9 0 1.4-.3.5-.3.5-.9 0-.5-.2-.7-.3-.3-1.1-.4-.3-.1-.8-.2l-.8-.2q-1.1-.3-1.6-.8-.4-.6-.4-1.4 0-.5.2-.9.2-.5.6-.8.5-.4 1.1-.6.6-.2 1.4-.2.7 0 1.5.2.7.2 1.2.4v1.5q-.6-.4-1.3-.6-.8-.3-1.5-.3-.8 0-1.3.3t-.5.8q0 .5.3.8.3.3 1 .4.4.1.9.2l.8.2q.9.2 1.4.7.6.5.6 1.4zM268.1 137.9h-6q0 .7.2 1.3.2.5.6.9.4.3.9.5t1.2.2q.8 0 1.6-.3.9-.4 1.2-.7h.1v1.5q-.7.3-1.4.5t-1.5.2q-2.1 0-3.2-1.1t-1.1-3.1q0-2.1 1-3.2 1.1-1.2 2.9-1.2 1.7 0 2.6 1 .9.9.9 2.7v.8zm-1.4-1.1q0-1.1-.5-1.7-.5-.6-1.6-.6t-1.8.7q-.7.6-.7 1.6h4.6zM285.8 133.6l-3.3 8.2h-1.4l-3.3-8.2h1.5l2.6 6.5 2.5-6.5h1.4zM302.1 139.4q0 1.2-1 1.9-.9.7-2.5.7-.9 0-1.7-.2-.7-.2-1.2-.5v-1.5q.7.5 1.5.7.8.3 1.5.3.9 0 1.4-.3.5-.3.5-.9 0-.5-.2-.7-.3-.3-1.1-.4-.3-.1-.8-.2l-.8-.2q-1.1-.3-1.6-.8-.4-.6-.4-1.4 0-.5.2-.9.2-.5.6-.8.4-.4 1.1-.6.6-.2 1.4-.2.7 0 1.5.2.7.2 1.2.4v1.5q-.6-.4-1.3-.6-.8-.3-1.5-.3-.8 0-1.3.3t-.5.8q0 .5.3.8.3.3 1 .4.4.1.9.2l.8.2q.9.2 1.4.7.6.5.6 1.4zM311 137.7q0 2-1 3.2-1 1.1-2.8 1.1-1.7 0-2.7-1.1-1-1.2-1-3.2t1-3.1q1-1.2 2.7-1.2 1.8 0 2.8 1.2 1 1.1 1 3.1zm-1.4 0q0-1.6-.6-2.3-.7-.8-1.8-.8t-1.7.8q-.6.7-.6 2.3 0 1.6.6 2.3.6.8 1.7.8t1.8-.7q.6-.8.6-2.4zM320.3 137.6q0 1.1-.2 1.9-.3.8-.8 1.4-.5.5-1.2.8-.6.3-1.3.3-.7 0-1.3-.1-.5-.2-1-.5l-.1.4h-1.3v-11.4h1.4v4.1q.6-.5 1.3-.8.6-.3 1.4-.3 1.5 0 2.3 1.1.8 1.1.8 3.1zm-1.4.1q0-1.5-.5-2.2-.4-.8-1.5-.8-.6 0-1.2.3-.7.2-1.2.6v4.7q.6.3 1 .4.4.1 1 .1 1.1 0 1.8-.8.6-.7.6-2.3zM329.3 137.9h-6q0 .7.2 1.3.3.5.7.9.3.3.9.5.5.2 1.1.2.9 0 1.7-.3.8-.4 1.2-.7h.1v1.5q-.7.3-1.4.5-.8.2-1.6.2-2 0-3.1-1.1-1.2-1.1-1.2-3.1 0-2.1 1.1-3.2 1.1-1.2 2.9-1.2 1.6 0 2.5 1 .9.9.9 2.7v.8zm-1.3-1.1q0-1.1-.6-1.7-.5-.6-1.6-.6t-1.8.7q-.6.6-.7 1.6h4.7zm.4-7.3l-1.7 2.8H325l-1.6-2.8h1.1l1.4 1.9 1.3-1.9h1.2zM346.4 141.8H345v-.9q-.2.2-.5.4t-.6.3q-.3.2-.8.3-.4.1-1 .1-1.1 0-1.9-.7-.8-.7-.8-1.9 0-.9.4-1.5t1.2-.9q.7-.3 1.7-.4l2.3-.2v-.2q0-.5-.2-.8-.1-.3-.4-.5-.3-.1-.7-.2-.5-.1-.9-.1-.5 0-1.2.2-.7.1-1.4.4h-.1v-1.4q.4-.1 1.2-.2.8-.2 1.5-.2.9 0 1.5.2.7.1 1.1.5.5.3.7.8.3.6.3 1.3v5.6zm-1.4-2v-2.3q-.6 0-1.5.1-.8.1-1.3.2-.6.2-1 .6-.4.3-.4.9 0 .7.5 1.1.4.3 1.3.3.7 0 1.3-.2.6-.3 1.1-.7zM361.9 141.7q-.4.1-.9.2-.4.1-.8.1-1.3 0-1.9-.7-.7-.7-.7-2.2v-4.3h-.9v-1.2h.9v-2.3h1.4v2.3h2.9v1.2H359v4.7q.1.4.3.7.1.3.4.4.3.2.9.2.3 0 .7-.1.3-.1.5-.2h.1v1.2zM369.9 141.8h-1.4v-.9q-.2.2-.5.4t-.6.3q-.3.2-.8.3-.4.1-1 .1-1.1 0-1.9-.7-.8-.7-.8-1.9 0-.9.4-1.5t1.2-.9q.7-.3 1.8-.4l2.2-.2v-.2q0-.5-.2-.8-.1-.3-.4-.5-.3-.1-.7-.2-.4-.1-.9-.1t-1.2.2q-.7.1-1.4.4v-1.4q.4-.1 1.1-.2.8-.2 1.5-.2.9 0 1.5.2.7.1 1.1.5.5.3.7.8.3.6.3 1.3v5.6zm-1.4-2v-2.3q-.6 0-1.5.1-.8.1-1.3.2-.6.2-1 .6-.3.3-.3.9 0 .7.4 1.1.4.3 1.3.3.7 0 1.3-.2.6-.3 1.1-.7zM380 141.8h-1.8l-3.3-3.6-.9.9v2.7h-1.4v-11.4h1.4v7.3l4-4.1h1.7l-3.8 3.8 4.1 4.4zM397.2 137.6q0 1-.3 1.8-.3.9-.8 1.4-.5.6-1.1.9-.7.3-1.4.3-.6 0-1.2-.2-.5-.1-1-.4v3.4H390v-11.2h1.4v.9q.5-.5 1.2-.8.7-.3 1.5-.3 1.5 0 2.3 1.1.8 1.1.8 3.1zm-1.4 0q0-1.4-.5-2.2-.5-.7-1.6-.7-.6 0-1.2.3-.6.2-1.1.6v4.7q.6.2 1 .3.4.1 1 .1 1.1 0 1.7-.8.7-.7.7-2.3zM406.3 137.7q0 2-1 3.2-1 1.1-2.7 1.1-1.8 0-2.8-1.1-1-1.2-1-3.2t1-3.1q1-1.2 2.8-1.2 1.7 0 2.7 1.2 1 1.1 1 3.1zm-1.4 0q0-1.6-.6-2.3-.6-.8-1.7-.8-1.2 0-1.8.8-.6.7-.6 2.3 0 1.6.6 2.3.6.8 1.8.8 1.1 0 1.7-.7.6-.8.6-2.4zM413.6 135.1h-.1q-.3-.1-.6-.1h-.7q-.6 0-1.2.3-.6.2-1.2.7v5.8h-1.3v-8.2h1.3v1.2q.9-.6 1.5-.9.6-.3 1.3-.3h.5q.2.1.5.1v1.4zm-.4-5.6l-1.7 2.8h-1.6l-1.7-2.8h1.1l1.4 1.9 1.4-1.9h1.1zM421.2 141.8h-1.3v-.9q-.2.2-.5.4t-.6.3q-.4.2-.8.3-.5.1-1.1.1-1.1 0-1.8-.7-.8-.7-.8-1.9 0-.9.4-1.5t1.1-.9q.8-.3 1.8-.4l2.3-.2v-.2q0-.5-.2-.8-.2-.3-.5-.5-.3-.1-.7-.2-.4-.1-.8-.1-.6 0-1.2.2-.7.1-1.4.4h-.1v-1.4q.4-.1 1.2-.2.7-.2 1.5-.2t1.5.2q.6.1 1.1.5.5.3.7.8.2.6.2 1.3v5.6zm-1.3-2v-2.3q-.7 0-1.5.1-.9.1-1.4.2-.6.2-.9.6-.4.3-.4.9 0 .7.4 1.1.5.3 1.3.3t1.4-.2q.6-.3 1.1-.7zm.5-10.3l-2 2.8h-1.1l1.3-2.8h1.8zM430.5 141.8h-1.3v-.9q-.6.6-1.3.8-.6.3-1.4.3-1.4 0-2.3-1.1-.9-1.1-.9-3.1 0-1.1.3-1.9.3-.8.8-1.4.5-.5 1.2-.8.7-.3 1.4-.3.6 0 1.1.1.5.2 1.1.4v-3.5h1.3v11.4zm-1.3-2v-4.7q-.6-.3-1-.4h-1q-1.1 0-1.8.8-.6.8-.6 2.2 0 1.5.5 2.3.5.7 1.6.7.5 0 1.1-.2.6-.3 1.2-.7zM79.2 160.5h-1.4v-.8q-.6.5-1.2.8-.7.3-1.4.3-1.5 0-2.4-1.2-.8-1.1-.8-3.1 0-1 .3-1.8t.8-1.4q.5-.6 1.1-.9.7-.3 1.4-.3t1.2.2q.4.1 1 .4v-3.5h1.4v11.3zm-1.4-2v-4.7q-.6-.2-1-.3-.4-.1-1-.1-1.1 0-1.8.8-.6.8-.6 2.3 0 1.4.5 2.2.5.8 1.6.8.6 0 1.2-.3t1.1-.7zM88.9 156.5q0 2-1.1 3.1-1 1.2-2.7 1.2-1.7 0-2.8-1.2-1-1.1-1-3.1t1-3.2q1.1-1.2 2.8-1.2 1.7 0 2.7 1.2 1.1 1.2 1.1 3.2zm-1.5 0q0-1.6-.6-2.4-.6-.8-1.7-.8t-1.8.8q-.6.8-.6 2.4 0 1.5.7 2.3.6.8 1.7.8t1.7-.8q.6-.8.6-2.3zM98.4 160.5h-1.8l-3.3-3.5-.9.8v2.7h-1.3v-11.3h1.3v7.3l4-4.1h1.7l-3.8 3.7 4.1 4.4zM106.7 156.5q0 2-1 3.1-1.1 1.2-2.8 1.2-1.7 0-2.7-1.2-1.1-1.1-1.1-3.1t1.1-3.2q1-1.2 2.7-1.2 1.7 0 2.8 1.2 1 1.2 1 3.2zm-1.4 0q0-1.6-.6-2.4-.7-.8-1.8-.8t-1.7.8q-.6.8-.6 2.4 0 1.5.6 2.3.6.8 1.7.8t1.7-.8q.7-.8.7-2.3zM110.2 160.5h-1.3v-11.3h1.3v11.3zM119.3 160.5h-1.4v-.8q-.2.1-.5.3l-.6.4q-.3.1-.8.3-.4.1-1 .1-1.1 0-1.9-.8-.8-.7-.8-1.8 0-1 .4-1.5.4-.6 1.2-.9.7-.4 1.8-.5l2.2-.2v-.2q0-.4-.2-.7-.1-.4-.4-.5-.3-.2-.7-.3h-.9q-.5 0-1.2.1l-1.4.4h-.1v-1.4q.4-.1 1.2-.2.8-.1 1.5-.1.9 0 1.5.1.7.2 1.1.5.5.3.7.9.3.5.3 1.3v5.5zm-1.4-2v-2.2q-.6 0-1.5.1-.8 0-1.3.2-.6.1-1 .5t-.4 1q0 .7.5 1 .4.4 1.3.4.7 0 1.3-.3.6-.3 1.1-.7zM124.2 160.5h-1.8v-2h1.8v2z" style="line-height:125%;-inkscape-font-specification:'sans-serif, Normal';text-align:justify"/>
  </g>
  <text x="489.79" y="549.93" fill="#00f" style="line-height:125%;-inkscape-font-specification:'sans-serif, Normal';text-align:center" font-size="25" font-family="sans-serif" letter-spacing="0" word-spacing="0" text-anchor="middle" transform="translate(-238.5 -488.1)">
    <tspan x="489.79" y="549.93">padding</tspan>
  </text>
  <path fill="none" stroke="#00f" stroke-width="1.04" d="M19.5 220.3V301"/>
  <text x="451.27" y="806.13" fill="#00f" style="line-height:125%;-inkscape-font-specification:'sans-serif, Normal';text-align:center" font-size="25" font-family="sans-serif" letter-spacing="0" word-spacing="0" text-anchor="middle" transform="translate(-200.5 -524.25)">
    <tspan x="451.27" y="806.13">width</tspan>
  </text>
  <path fill="none" stroke="#00f" stroke-width="1.04" d="M481.5 220.25v80.7"/>
  <path fill="none" stroke="#00f" d="M220 818.1h461.4" marker-start="url(#a)" marker-end="url(#b)" transform="translate(-200.5 -524.25)"/>
  <text x="-642.16" y="762.27" fill="#00f" style="line-height:125%;-inkscape-font-specification:'sans-serif, Normal';text-align:center" transform="rotate(-90 -362.375 -161.875)" font-size="25" font-family="sans-serif" letter-spacing="0" word-spacing="0" text-anchor="middle">
    <tspan x="-642.16" y="762.27">height</tspan>
  </text>
  <path fill="none" stroke="#00f" stroke-width="1.11" d="M488 18.55h92.9"/>
  <path fill="none" stroke="#00f" d="M774.2 740.5V544.1" marker-start="url(#c)" marker-end="url(#d)" transform="translate(-200.5 -524.25)"/>
  <path fill="none" stroke="#00f" stroke-width="1.11" d="M488 217.45h92.9"/>
  <text x="489.79" y="675.93" fill="#00f" style="line-height:125%;-inkscape-font-specification:'sans-serif, Normal';text-align:center" font-size="25" font-family="sans-serif" letter-spacing="0" word-spacing="0" text-anchor="middle" transform="translate(-238.5 -488.1)">
    <tspan x="489.79" y="675.93">padding</tspan>
  </text>
  <text x="-606.01" y="299.35" fill="#00f" style="line-height:125%;-inkscape-font-specification:'sans-serif, Normal';text-align:center" transform="rotate(-90 -363.3 -124.8)" font-size="25" font-family="sans-serif" letter-spacing="0" word-spacing="0" text-anchor="middle">
    <tspan x="-606.01" y="299.35">padding</tspan>
  </text>
  <text x="-606.01" y="693.7" fill="#00f" style="line-height:125%;-inkscape-font-specification:'sans-serif, Normal';text-align:center" transform="rotate(-90 -363.3 -124.8)" font-size="25" font-family="sans-serif" letter-spacing="0" word-spacing="0" text-anchor="middle">
    <tspan x="-606.01" y="693.7">padding</tspan>
  </text>
  <g fill="#999" font-size="17.5" font-family="sans-serif" letter-spacing="0" word-spacing="0" text-anchor="middle">
    <text x="490.62" y="522.41" style="line-height:125%;-inkscape-font-specification:'sans-serif, Normal';text-align:center" transform="translate(-243.51 -489.11)">
      <tspan x="490.62" y="522.41">border</tspan>
    </text>
    <text x="490.62" y="703.42" style="line-height:125%;-inkscape-font-specification:'sans-serif, Normal';text-align:center" transform="translate(-243.51 -489.11)">
      <tspan x="490.62" y="703.42">border</tspan>
    </text>
    <text x="-605.28" y="277.09" transform="rotate(-90 -366.31 -122.8)" style="line-height:125%;-inkscape-font-specification:'sans-serif, Normal';text-align:center">
      <tspan x="-605.28" y="277.09">border</tspan>
    </text>
    <text x="-605.28" y="723.09" transform="rotate(-90 -366.31 -122.8)" style="line-height:125%;-inkscape-font-specification:'sans-serif, Normal';text-align:center">
      <tspan x="-605.28" y="723.09">border</tspan>
    </text>
  </g>
</svg>
