<svg xmlns="http://www.w3.org/2000/svg" viewBox="0 0 598.61 318.7">
  <defs>
    <marker id="d" orient="auto" overflow="visible">
      <path fill="#00f" fill-rule="evenodd" stroke="#00f" stroke-width=".8pt" d="M-10 0l-4 4L0 0l-14-4 4 4z"/>
    </marker>
    <marker id="c" orient="auto" overflow="visible">
      <path fill="#00f" fill-rule="evenodd" stroke="#00f" stroke-width=".8pt" d="M10 0l4-4L0 0l14 4-4-4z"/>
    </marker>
    <marker id="b" orient="auto" overflow="visible">
      <path fill="#00f" fill-rule="evenodd" stroke="#00f" stroke-width=".8pt" d="M-10 0l-4 4L0 0l-14-4 4 4z"/>
    </marker>
    <marker id="a" orient="auto" overflow="visible">
      <path fill="#00f" fill-rule="evenodd" stroke="#00f" stroke-width=".8pt" d="M10 0l4-4L0 0l14 4-4-4z"/>
    </marker>
  </defs>
  <text x="245.14" y="341.93" style="line-height:125%" font-size="40" font-family="sans-serif" letter-spacing="0" word-spacing="0" transform="translate(-238.464 -488.083)"/>
  <path fill="#fc0" fill-rule="evenodd" stroke="#fc0" stroke-width="17.6" d="M28.32 26.52h446V207.6h-446z"/>
  <g style="line-height:125%;-inkscape-font-specification:'sans-serif, Normal';text-align:justify" font-size="15" font-family="sans-serif" letter-spacing="0" word-spacing="0">
    <path d="M80.44 75.97h-3.9v9.6H75.1v-9.6h-3.9v-1.3h9.24v1.3zM86.4 85.58h-1.37v-.87l-.5.36q-.3.22-.6.35-.34.18-.8.3-.43.1-1.03.1-1.1 0-1.88-.72-.77-.74-.77-1.87 0-.92.4-1.5.4-.57 1.14-.9.74-.33 1.8-.45 1.03-.1 2.23-.17v-.22q0-.46-.16-.77-.16-.32-.47-.5-.3-.16-.7-.22-.42-.06-.86-.06-.54 0-1.2.15-.68.13-1.4.4h-.06v-1.4q.4-.1 1.16-.23.76-.14 1.5-.14.87 0 1.5.15.65.14 1.12.48.46.34.7.87.24.54.24 1.33v5.55zm-1.37-2v-2.3l-1.48.12q-.85.07-1.35.2-.6.18-.96.54-.37.35-.37.97 0 .72.43 1.08.42.35 1.3.35.72 0 1.32-.28.6-.3 1.1-.68zM95.7 85.58h-1.37v-.85q-.6.5-1.24.8-.65.28-1.4.28-1.47 0-2.34-1.12-.85-1.13-.85-3.13 0-1.04.3-1.85.3-.8.8-1.38.5-.56 1.16-.85.67-.3 1.38-.3.64 0 1.14.14.5.15 1.05.43V74.2h1.38v11.38zm-1.37-2v-4.7q-.56-.26-1-.35-.44-.1-.96-.1-1.15 0-1.8.8-.64.82-.64 2.3 0 1.45.5 2.2.5.77 1.6.77.58 0 1.18-.26t1.13-.67zM105.5 77.4l-4.78 11.2h-1.48l1.53-3.4-3.26-7.8H99l2.5 6.07 2.55-6.07h1.44zM120.34 76.03h-1.55V74.6h1.54v1.43zm-.1 9.75q0 1.44-.72 2.17-.73.73-1.96.73-.3 0-.78-.06-.48-.06-.8-.14v-1.32h.08l.54.2q.36.1.7.1.5 0 .84-.16.32-.14.48-.44.16-.3.2-.7.06-.42.06-1v-6.6h-1.7V77.4h3.07v8.38zM129.8 81.63h-6.03q0 .76.22 1.32t.62.92q.38.35.9.53.53.17 1.16.17.83 0 1.67-.33.85-.33 1.2-.66h.08v1.5q-.7.3-1.42.5-.7.2-1.5.2-2.05 0-3.2-1.1-1.13-1.1-1.13-3.14 0-2 1.1-3.2 1.1-1.17 2.88-1.17 1.65 0 2.54.97.9.97.9 2.75v.73zm-1.34-1.05q0-1.08-.55-1.68-.53-.6-1.63-.6-1.1 0-1.76.66-.64.65-.73 1.62h4.7zM149.35 81.5q0 2-1.02 3.15-1.03 1.16-2.75 1.16-1.73 0-2.76-1.15-1.02-1.16-1.02-3.15 0-2 1.02-3.16 1.03-1.17 2.76-1.17 1.72 0 2.75 1.17 1.02 1.16 1.02 3.16zm-1.42 0q0-1.6-.62-2.36-.6-.78-1.72-.78t-1.74.78q-.62.77-.62 2.36 0 1.53.63 2.33.62.8 1.73.8 1.1 0 1.72-.8.63-.78.63-2.33zM158.7 81.43q0 1.02-.3 1.85-.3.82-.78 1.37-.52.58-1.14.87-.62.3-1.37.3-.68 0-1.2-.18-.52-.16-1.03-.44l-.1.38h-1.28v-11.4h1.37v4.08q.58-.48 1.23-.78.65-.3 1.46-.3 1.46 0 2.3 1.1.83 1.12.83 3.15zm-1.43.04q0-1.47-.48-2.22-.5-.76-1.57-.76-.6 0-1.22.25-.6.26-1.13.67v4.68q.6.27 1 .37.43.1.96.1 1.15 0 1.8-.75.64-.75.64-2.35zM166.68 83.22q0 1.12-.93 1.84-.92.72-2.52.72-.9 0-1.67-.2-.76-.23-1.27-.5v-1.53h.06q.65.5 1.45.78.8.3 1.54.3.9 0 1.42-.3.52-.3.52-.93 0-.48-.28-.73t-1.07-.43l-.77-.15-.86-.2q-1.07-.3-1.53-.84-.44-.55-.44-1.36 0-.5.2-.95.2-.45.64-.8.4-.34 1.04-.54.65-.2 1.43-.2.73 0 1.48.2.76.16 1.26.42v1.47h-.07q-.54-.4-1.3-.66-.75-.27-1.47-.27-.76 0-1.28.3-.52.28-.52.85 0 .5.32.76.3.26 1 .42l.84.17.78.16q.96.22 1.48.76.52.53.52 1.42zM175.02 85.58h-1.37v-.87l-.5.36q-.3.22-.6.35-.34.18-.8.3-.44.1-1.04.1-1.1 0-1.86-.72-.77-.74-.77-1.87 0-.92.4-1.5.4-.57 1.14-.9.75-.33 1.8-.45 1.05-.1 2.25-.17v-.22q0-.46-.17-.77-.16-.32-.47-.5-.28-.16-.7-.22-.4-.06-.85-.06-.54 0-1.2.15-.67.13-1.38.4h-.08v-1.4q.4-.1 1.16-.23.76-.14 1.5-.14.86 0 1.5.15.64.14 1.1.48.47.34.72.87.24.54.24 1.33v5.55zm-1.37-2v-2.3l-1.5.12q-.84.07-1.34.2-.58.18-.95.54-.36.35-.36.97 0 .72.4 1.08.44.35 1.3.35.73 0 1.34-.28.6-.3 1.1-.68zM184.52 85.58h-1.37v-4.66q0-.56-.07-1.05-.06-.5-.24-.78-.18-.3-.53-.46-.33-.15-.88-.15-.56 0-1.18.26-.6.28-1.18.7v6.12h-1.38v-11.4h1.38v4.13q.65-.53 1.33-.83.68-.3 1.4-.3 1.33 0 2.03.8.7.8.7 2.3v5.3zM190.03 83.5l-2.06 4.8h-1.07l1.27-4.8h1.86zM207.37 85.5q-.4.1-.85.18-.45.06-.8.06-1.26 0-1.92-.67-.65-.67-.65-2.16v-4.34h-.93V77.4h.93v-2.35h1.38v2.35h2.84v1.16h-2.84v3.73q0 .63.03 1 .03.36.2.67.17.3.44.43.3.13.87.13.34 0 .7-.1.37-.1.53-.16h.07v1.24zM214.15 78.9h-.08q-.3-.07-.6-.1-.28-.04-.68-.04-.65 0-1.24.3-.6.27-1.14.7v5.82h-1.38V77.4h1.38v1.2q.82-.65 1.44-.92.63-.28 1.28-.28.36 0 .52.02l.5.07v1.4zm-.4-5.6l-1.66 2.78h-1.67l-1.67-2.77h1.16l1.36 1.88 1.34-1.87h1.14zM222.3 81.63h-6.02q0 .76.23 1.32t.63.92q.38.35.9.53.53.17 1.16.17.82 0 1.66-.33.85-.33 1.2-.66h.08v1.5q-.7.3-1.42.5t-1.52.2q-2.04 0-3.18-1.1-1.14-1.1-1.14-3.14 0-2 1.1-3.2 1.1-1.17 2.88-1.17 1.65 0 2.55.97.9.97.9 2.75v.73zm-1.33-1.05q0-1.08-.55-1.68-.54-.6-1.64-.6-1.1 0-1.76.66-.65.65-.74 1.62h4.7zM231.6 81.43q0 1.02-.3 1.85-.3.82-.78 1.37-.52.58-1.14.87-.62.3-1.37.3-.68 0-1.2-.18-.52-.16-1.03-.44l-.1.38h-1.28v-11.4h1.37v4.08q.58-.48 1.23-.78.65-.3 1.47-.3 1.45 0 2.28 1.1.84 1.12.84 3.15zm-1.43.04q0-1.47-.48-2.22-.5-.76-1.57-.76-.6 0-1.22.25-.6.26-1.13.67v4.68q.6.27 1 .37.43.1.96.1 1.15 0 1.8-.75.64-.75.64-2.35zM240.1 85.58h-1.37v-.87l-.5.36q-.3.22-.6.35-.35.18-.8.3-.44.1-1.04.1-1.12 0-1.9-.72-.75-.74-.75-1.87 0-.92.4-1.5.4-.57 1.13-.9.75-.33 1.8-.45 1.05-.1 2.25-.17v-.22q0-.46-.17-.77-.16-.32-.47-.5-.3-.16-.7-.22-.42-.06-.87-.06-.54 0-1.2.15-.68.13-1.4.4h-.06v-1.4q.4-.1 1.17-.23.76-.14 1.5-.14.86 0 1.5.15.64.14 1.1.48.47.34.7.87.26.54.26 1.33v5.55zm-1.37-2v-2.3l-1.5.12q-.84.07-1.34.2-.6.18-.97.54-.36.35-.36.97 0 .72.42 1.08.42.35 1.3.35.7 0 1.3-.28.6-.3 1.13-.68zM257.5 85.5q-.38.1-.84.18-.45.06-.8.06-1.27 0-1.92-.67-.65-.67-.65-2.16v-4.34h-.94V77.4h.93v-2.35h1.37v2.35h2.84v1.16h-2.83v3.73q0 .63.03 1 .03.36.2.67.16.3.44.43.3.13.87.13.34 0 .7-.1l.54-.16h.07v1.24zM266.03 81.63H260q0 .76.23 1.32.22.56.62.92.38.35.9.53.53.17 1.16.17.84 0 1.68-.33.85-.33 1.2-.66h.1v1.5q-.7.3-1.44.5-.72.2-1.52.2-2.03 0-3.18-1.1-1.14-1.1-1.14-3.14 0-2 1.1-3.2 1.1-1.17 2.88-1.17 1.65 0 2.55.97.9.97.9 2.75v.73zm-1.34-1.05q-.02-1.08-.56-1.68-.54-.6-1.64-.6-1.1 0-1.76.66-.65.65-.74 1.62h4.7zM275.2 85.58h-1.74l-2.32-3.14-2.34 3.14h-1.6l3.2-4.08-3.17-4.1h1.73l2.3 3.1 2.33-3.1h1.6l-3.22 4.03 3.22 4.15zM281.24 85.5q-.4.1-.85.18-.46.06-.82.06-1.26 0-1.9-.67-.66-.67-.66-2.16v-4.34h-.93V77.4h.92v-2.35h1.38v2.35h2.84v1.16h-2.84v3.73q0 .63.03 1 .03.36.2.67.16.3.44.43.3.13.87.13.33 0 .7-.1l.53-.16h.07v1.24zM300.25 85.58h-1.38v-4.66q0-.56-.06-1.05-.06-.5-.24-.78-.18-.3-.52-.46-.35-.15-.9-.15-.56 0-1.18.26-.6.28-1.18.7v6.12h-1.37V77.4h1.38v.9q.65-.53 1.34-.83.7-.3 1.4-.3 1.34 0 2.03.8.7.8.7 2.3v5.3zM309.75 81.63h-6.03q0 .76.23 1.32.22.56.62.92.38.35.9.53.53.17 1.16.17.83 0 1.68-.33t1.2-.66h.1v1.5q-.7.3-1.43.5t-1.53.2q-2.03 0-3.18-1.1-1.14-1.1-1.14-3.14 0-2 1.1-3.2 1.1-1.17 2.88-1.17 1.65 0 2.55.97.9.97.9 2.75v.73zm-1.34-1.05q0-1.08-.54-1.68-.54-.6-1.64-.6-1.1 0-1.76.66-.65.65-.74 1.62h4.7zM319.04 81.43q0 1.02-.3 1.85-.28.82-.77 1.37-.52.58-1.15.87-.62.3-1.37.3-.7 0-1.2-.18-.53-.16-1.04-.44l-.08.38h-1.28v-11.4h1.37v4.08q.6-.48 1.24-.78.65-.3 1.47-.3 1.46 0 2.3 1.1.84 1.12.84 3.15zm-1.43.04q0-1.47-.47-2.22-.48-.76-1.56-.76-.6 0-1.22.25-.6.26-1.14.67v4.68q.6.27 1.02.37.42.1.96.1 1.14 0 1.78-.75.65-.75.65-2.35zM328.15 81.5q0 2-1.02 3.15-1.03 1.16-2.75 1.16-1.73 0-2.76-1.15-1.02-1.16-1.02-3.15 0-2 1.02-3.16 1.03-1.17 2.76-1.17 1.72 0 2.75 1.17 1.02 1.16 1.02 3.16zm-1.42 0q0-1.6-.62-2.36-.6-.78-1.72-.78t-1.74.78q-.62.77-.62 2.36 0 1.53.63 2.33.62.8 1.73.8 1.1 0 1.72-.8.63-.78.63-2.33zM343.34 76.03h-1.55V74.6h1.54v1.43zm-.1 9.75q0 1.44-.72 2.17-.73.73-1.96.73-.3 0-.78-.06-.48-.06-.8-.14v-1.32h.07l.55.2q.36.1.7.1.5 0 .83-.16.33-.14.5-.44.15-.3.2-.7.04-.42.04-1v-6.6h-1.7V77.4h3.08v8.38zM347.43 76.03h-1.56V74.6h1.56v1.43zm-.1 9.55h-1.37V77.4h1.38v8.18zM356.86 85.58h-1.38v-4.66q0-.56-.06-1.05-.07-.5-.24-.78-.2-.3-.53-.46-.35-.15-.9-.15-.56 0-1.17.26-.62.28-1.18.7v6.12h-1.38V77.4h1.38v.9q.64-.53 1.33-.83.7-.3 1.4-.3 1.34 0 2.03.8.7.8.7 2.3v5.3zM365.87 85.58h-1.37v-.87l-.5.36q-.3.22-.6.35-.34.18-.8.3-.44.1-1.04.1-1.1 0-1.87-.72-.78-.74-.78-1.87 0-.92.4-1.5.4-.57 1.14-.9.74-.33 1.8-.45 1.04-.1 2.24-.17v-.22q0-.46-.17-.77-.16-.32-.47-.5-.3-.16-.7-.22-.4-.06-.86-.06-.54 0-1.2.15-.67.13-1.38.4h-.08v-1.4q.4-.1 1.17-.23.77-.14 1.5-.14.87 0 1.5.15.66.14 1.12.48.47.34.7.87.25.54.25 1.33v5.55zm-1.37-2v-2.3l-1.5.12q-.84.07-1.34.2-.6.18-.95.54-.36.35-.36.97 0 .72.42 1.08.43.35 1.3.35.73 0 1.33-.28.6-.3 1.1-.68zm.5-10.27l-2 2.75h-1.1l1.32-2.74H365zM386.46 85.58h-1.82L381.36 82l-.9.85v2.73h-1.37v-11.4h1.37v7.32l3.98-4.1h1.73l-3.8 3.78 4.08 4.4zM393.02 78.9h-.08q-.3-.07-.6-.1-.28-.04-.68-.04-.64 0-1.23.3-.6.27-1.14.7v5.82h-1.4V77.4h1.4v1.2q.8-.65 1.43-.92.63-.28 1.28-.28.37 0 .53.02l.5.07v1.4zM400.42 85.58h-1.37v-.87l-.5.36q-.3.22-.6.35-.34.18-.8.3-.44.1-1.04.1-1.1 0-1.86-.72-.77-.74-.77-1.87 0-.92.4-1.5.4-.57 1.14-.9.75-.33 1.8-.45 1.05-.1 2.25-.17v-.22q0-.46-.17-.77-.16-.32-.47-.5-.28-.16-.7-.22-.4-.06-.85-.06-.54 0-1.2.15-.67.13-1.38.4h-.08v-1.4q.4-.1 1.16-.23.76-.14 1.5-.14.86 0 1.5.15.65.14 1.12.48.46.34.7.87.24.54.24 1.33v5.55zm-1.37-2v-2.3l-1.5.12q-.84.07-1.33.2-.6.18-.96.54-.37.35-.37.97 0 .72.4 1.08.44.35 1.3.35.74 0 1.34-.28.6-.3 1.1-.68zM410.3 81.43q0 1.02-.3 1.85-.3.82-.78 1.37-.52.58-1.15.87-.62.3-1.37.3-.7 0-1.2-.18-.53-.16-1.04-.44l-.1.38h-1.27v-11.4h1.36v4.08q.58-.48 1.23-.78.65-.3 1.46-.3 1.45 0 2.28 1.1.85 1.12.85 3.15zm-1.44.04q0-1.47-.48-2.22-.48-.76-1.56-.76-.6 0-1.2.25-.63.26-1.16.67v4.68q.6.27 1 .37.43.1.97.1 1.14 0 1.78-.75.66-.75.66-2.35zM413.9 76.03h-1.54V74.6h1.55v1.43zm-.08 9.55h-1.37V77.4h1.37v8.18zM422.55 85.07q-.68.33-1.3.5-.62.2-1.32.2-.88 0-1.62-.26-.73-.25-1.26-.78-.54-.53-.83-1.33-.28-.82-.28-1.9 0-2 1.1-3.15 1.1-1.14 2.9-1.14.7 0 1.4.2.67.2 1.23.5v1.52h-.07q-.63-.5-1.3-.75-.67-.27-1.3-.27-1.18 0-1.86.8-.67.78-.67 2.3 0 1.48.66 2.28.67.8 1.87.8.42 0 .85-.12.43-.1.78-.28.3-.16.56-.33.27-.17.42-.3h.07v1.52zM431.17 81.63h-6.02q0 .76.22 1.32.23.56.63.92.38.35.9.53.52.17 1.15.17.84 0 1.68-.33.85-.33 1.2-.66h.08v1.5q-.68.3-1.4.5-.73.2-1.53.2-2.04 0-3.18-1.1-1.15-1.1-1.15-3.14 0-2 1.1-3.2 1.1-1.17 2.87-1.17 1.66 0 2.55.97.9.97.9 2.75v.73zm-1.34-1.05q0-1.08-.55-1.68-.53-.6-1.63-.6-1.1 0-1.76.66-.67.65-.75 1.62h4.68zM75.1 94.78h-1.56v-1.43h1.56v1.43zm-.1 9.75q0 1.44-.72 2.17-.74.73-1.97.73-.28 0-.76-.06t-.8-.14v-1.32h.07q.22.1.56.2.35.1.68.1.53 0 .85-.15.3-.14.47-.44.17-.28.2-.7.06-.4.06-1v-6.6h-1.7v-1.15H75v8.38zM84.06 104.33H82.7v-.87l-.5.35q-.3.23-.6.36-.35.17-.8.28-.45.12-1.05.12-1.1 0-1.87-.73-.77-.74-.77-1.87 0-.93.4-1.5.4-.58 1.15-.9.74-.34 1.8-.46 1.04-.1 2.24-.17v-.22q0-.45-.18-.76-.16-.3-.47-.5-.3-.15-.7-.2-.4-.07-.86-.07-.55 0-1.2.15-.68.13-1.4.4h-.07v-1.4q.4-.1 1.17-.23.76-.15 1.5-.15.87 0 1.5.15.65.14 1.12.48.46.34.7.87.24.54.24 1.33v5.55zm-1.37-2v-2.3l-1.5.12q-.85.07-1.34.2-.6.18-.96.54-.37.34-.37.96 0 .7.43 1.07.42.35 1.3.35.72 0 1.32-.28.6-.3 1.1-.68zM94.15 104.33h-1.8l-3.3-3.58-.9.85v2.73H86.8v-11.4h1.36v7.32l3.98-4.1h1.73l-3.8 3.78 4.08 4.4zM102.43 100.25q0 2-1.03 3.15-1.02 1.16-2.74 1.16-1.74 0-2.76-1.16-1.02-1.16-1.02-3.15 0-2 1.02-3.16 1.02-1.18 2.76-1.18 1.72 0 2.74 1.17 1.03 1.15 1.03 3.15zm-1.42 0q0-1.6-.6-2.36-.64-.8-1.74-.8-1.12 0-1.75.8-.6.76-.6 2.35 0 1.53.62 2.33t1.74.8q1.1 0 1.72-.8.63-.78.63-2.33zM123.66 94.78h-1.56v-1.43h1.56v1.43zm-.1 9.75q0 1.44-.72 2.17-.74.73-1.97.73-.3 0-.77-.06-.48-.06-.8-.14v-1.32h.07q.2.1.55.2.35.1.68.1.53 0 .85-.15.32-.14.5-.44.15-.28.2-.7.04-.4.04-1v-6.6h-1.7v-1.15h3.07v8.38zM133.1 100.38h-6.02q0 .76.23 1.32.24.56.63.92.4.35.9.53.53.17 1.16.17.83 0 1.67-.33.85-.34 1.2-.67h.08v1.5q-.7.3-1.42.5t-1.52.2q-2.03 0-3.17-1.1-1.14-1.1-1.14-3.14 0-2.02 1.08-3.2 1.1-1.18 2.88-1.18 1.66 0 2.55.97.9.96.9 2.74v.74zm-1.33-1.05q0-1.08-.55-1.68-.53-.6-1.63-.6-1.12 0-1.78.66-.65.66-.74 1.63h4.7zM156 104.26q-.4.1-.86.17-.46.06-.8.06-1.27 0-1.92-.68-.65-.67-.65-2.16V97.3h-.93v-1.15h.93V93.8h1.38v2.35H156v1.16h-2.85v3.74q0 .64.03 1 .03.37.2.68.16.3.44.43.3.13.86.13.34 0 .7-.1l.54-.16h.07v1.24zM164.02 104.33h-1.37v-.87l-.5.35q-.3.23-.6.36-.35.17-.8.28-.44.12-1.04.12-1.1 0-1.87-.73-.77-.74-.77-1.87 0-.93.4-1.5.4-.58 1.14-.9.75-.34 1.8-.46 1.04-.1 2.25-.17v-.22q0-.45-.17-.76-.16-.3-.47-.5-.28-.15-.7-.2-.4-.07-.85-.07-.54 0-1.2.15-.68.13-1.4.4h-.06v-1.4q.4-.1 1.15-.23.77-.15 1.5-.15.87 0 1.5.15.65.14 1.12.48.46.34.7.87.25.54.25 1.33v5.55zm-1.37-2v-2.3l-1.5.12q-.84.07-1.34.2-.58.18-.95.54-.36.34-.36.96 0 .7.4 1.07.44.35 1.3.35.73 0 1.33-.28.6-.3 1.12-.68zM170.93 104.26q-.4.1-.85.17-.45.06-.8.06-1.27 0-1.92-.68-.65-.67-.65-2.16V97.3h-.92v-1.15h.93V93.8h1.4v2.35h2.83v1.16h-2.84v3.74q0 .64.02 1 .03.37.2.68.16.3.44.43.3.13.87.13.33 0 .7-.1.37-.1.53-.16h.07v1.24zM179.57 100.25q0 2-1.02 3.15-1.03 1.16-2.75 1.16-1.74 0-2.76-1.16-1.02-1.16-1.02-3.15 0-2 1.02-3.16 1.02-1.18 2.76-1.18 1.72 0 2.75 1.17 1.02 1.15 1.02 3.15zm-1.42 0q0-1.6-.62-2.36-.62-.8-1.73-.8-1.12 0-1.74.8-.62.76-.62 2.35 0 1.53.62 2.33.63.8 1.74.8 1.1 0 1.72-.8.63-.78.63-2.33zM183.8 104.33h-1.74v-2.1h1.75v2.1zM216.36 93.43l-2.84 10.9h-1.63l-2.3-9.05-2.25 9.05h-1.6l-2.88-10.9h1.5l2.28 9.06 2.26-9.07h1.48l2.28 9.15 2.28-9.15h1.42zM224.5 100.38h-6.03q0 .76.22 1.32t.62.92q.38.35.9.53.52.17 1.15.17.84 0 1.68-.33.85-.34 1.2-.67h.08v1.5q-.7.3-1.42.5-.7.2-1.5.2-2.05 0-3.2-1.1-1.13-1.1-1.13-3.14 0-2.02 1.1-3.2 1.1-1.18 2.87-1.18 1.66 0 2.55.97.9.96.9 2.74v.74zm-1.35-1.05q0-1.08-.55-1.68-.53-.6-1.63-.6-1.1 0-1.76.66-.65.66-.73 1.63h4.68zM233.78 100.18q0 1.02-.3 1.85-.28.82-.77 1.37-.5.58-1.13.87-.62.3-1.37.3-.7 0-1.22-.18-.52-.17-1.02-.45l-.1.38h-1.28v-11.4h1.38v4.08q.58-.47 1.23-.77.64-.3 1.45-.3 1.45 0 2.3 1.1.83 1.12.83 3.15zm-1.42.04q0-1.47-.48-2.22-.5-.76-1.56-.76-.6 0-1.22.26-.6.26-1.14.67v4.68q.58.27 1 .37.43.1.96.1 1.14 0 1.8-.75.64-.75.64-2.35zM242.9 100.25q0 2-1.03 3.15-1.02 1.16-2.74 1.16-1.74 0-2.76-1.16-1.02-1.16-1.02-3.15 0-2 1.02-3.16 1.02-1.18 2.76-1.18 1.72 0 2.74 1.17 1.03 1.15 1.03 3.15zm-1.42 0q0-1.6-.62-2.36-.63-.8-1.73-.8-1.12 0-1.75.8-.6.76-.6 2.35 0 1.53.6 2.33.63.8 1.75.8 1.1 0 1.72-.8.63-.78.63-2.33zM252 96.15l-3.3 8.18h-1.4l-3.3-8.18h1.5l2.54 6.5 2.5-6.5H252zM260.65 100.38h-6.03q0 .76.23 1.32.22.56.62.92.38.35.9.53.53.17 1.16.17.83 0 1.67-.33.85-.34 1.2-.67h.08v1.5q-.7.3-1.42.5t-1.52.2q-2.04 0-3.18-1.1-1.14-1.1-1.14-3.14 0-2.02 1.1-3.2 1.1-1.18 2.88-1.18 1.65 0 2.55.97.9.96.9 2.74v.74zm-1.34-1.05q0-1.08-.54-1.68-.54-.6-1.64-.6-1.1 0-1.76.66-.65.66-.74 1.63h4.7zm.17-7.27l-2 2.74h-1.1l1.32-2.74h1.77zM285.12 101.97q0 1.12-.93 1.84-.93.73-2.54.73-.9 0-1.67-.2-.76-.23-1.28-.5v-1.53h.08q.65.5 1.45.78.8.3 1.53.3.9 0 1.42-.3.5-.3.5-.93 0-.48-.27-.73t-1.07-.43l-.76-.16-.86-.2q-1.08-.28-1.53-.83-.44-.54-.44-1.35 0-.5.2-.95.22-.45.64-.8.4-.34 1.04-.54t1.42-.2q.74 0 1.48.18.76.17 1.26.43v1.47h-.08q-.52-.4-1.28-.65-.75-.28-1.48-.28-.75 0-1.27.3-.53.28-.53.85 0 .5.3.76.32.26 1 .42l.86.17.8.16q.95.22 1.47.76t.52 1.43zM291.34 104.26q-.38.1-.85.17-.46.06-.82.06-1.25 0-1.9-.68-.66-.67-.66-2.16V97.3h-.93v-1.15h.92V93.8h1.38v2.35h2.84v1.16h-2.84v3.74q0 .64.03 1 .03.37.2.68.17.3.45.43t.86.13q.34 0 .7-.1.37-.1.53-.16h.07v1.24zM298.12 97.65h-.07q-.3-.07-.6-.1-.3-.04-.7-.04-.62 0-1.22.3-.6.28-1.14.72v5.8H293v-8.17h1.4v1.2q.8-.65 1.43-.92.63-.28 1.3-.28.34 0 .5.02l.5.07v1.4zM305.8 104.33h-1.38v-.87l-.5.35q-.3.23-.6.36-.35.17-.8.28-.44.12-1.04.12-1.1 0-1.87-.73-.76-.74-.76-1.87 0-.93.4-1.5.4-.58 1.13-.9.75-.34 1.8-.46 1.05-.1 2.25-.17v-.22q0-.45-.17-.76-.16-.3-.47-.5-.3-.15-.7-.2-.4-.07-.86-.07-.54 0-1.2.15-.67.13-1.4.4h-.06v-1.4q.4-.1 1.17-.23.76-.15 1.5-.15.86 0 1.5.15.64.14 1.1.48.47.34.72.87.24.54.24 1.33v5.55zm-1.38-2v-2.3l-1.5.12q-.84.07-1.34.2-.6.18-.96.54-.36.34-.36.96 0 .7.42 1.07.43.35 1.3.35.72 0 1.32-.28.6-.3 1.12-.68zm.5-10.27l-2 2.74h-1.1l1.32-2.74h1.78zM315.3 104.33h-1.38v-4.66q0-.56-.07-1.05-.06-.5-.24-.78-.17-.3-.52-.45-.34-.16-.9-.16t-1.17.27q-.6.3-1.17.72v6.1h-1.38v-8.17h1.38v.9q.64-.53 1.33-.83.7-.3 1.42-.3 1.32 0 2.02.8t.7 2.3v5.3zM325.37 104.33h-1.8l-3.3-3.58-.9.85v2.73H318v-11.4h1.38v7.32l3.98-4.1h1.73l-3.8 3.78 4.07 4.4zM333.9 96.15l-4.78 11.2h-1.47l1.52-3.4-3.26-7.8h1.5l2.52 6.07 2.53-6.07h1.45zM354.8 94.78h-1.56v-1.43h1.55v1.43zm-.1 9.75q0 1.44-.73 2.17t-1.97.73q-.3 0-.77-.06-.48-.06-.8-.14v-1.32h.07q.2.1.55.2.35.1.68.1.53 0 .85-.15.33-.14.5-.44.15-.28.2-.7.04-.4.04-1v-6.6h-1.7v-1.15h3.08v8.38zM363.24 101.97q0 1.12-.93 1.84-.9.73-2.52.73-.9 0-1.67-.2-.74-.23-1.25-.5v-1.53h.07q.65.5 1.45.78.8.3 1.53.3.9 0 1.42-.3.5-.3.5-.93 0-.48-.26-.73-.28-.25-1.07-.43l-.78-.16-.86-.2q-1.08-.28-1.53-.83-.45-.54-.45-1.35 0-.5.2-.95.22-.45.65-.8.4-.34 1.04-.54.63-.2 1.42-.2.72 0 1.47.18.75.17 1.25.43v1.47h-.08q-.52-.4-1.28-.65-.75-.28-1.48-.28-.75 0-1.27.3-.5.28-.5.85 0 .5.3.76t1 .42l.85.17.8.16q.95.22 1.47.76t.52 1.43zM372.2 100.25q0 2-1.04 3.15-1.02 1.16-2.74 1.16-1.74 0-2.76-1.16-1.02-1.16-1.02-3.15 0-2 1.02-3.16 1.02-1.18 2.76-1.18 1.72 0 2.74 1.17 1.03 1.15 1.03 3.15zm-1.43 0q0-1.6-.62-2.36-.63-.8-1.73-.8-1.12 0-1.74.8-.62.76-.62 2.35 0 1.53.62 2.33.63.8 1.74.8 1.1 0 1.72-.8.63-.78.63-2.33zM381.1 104.33h-1.37v-.9q-.7.54-1.33.84-.64.3-1.4.3-1.3 0-2-.8-.73-.8-.73-2.3v-5.32h1.38v4.66q0 .63.06 1.08.06.44.26.75.2.33.5.47.32.15.92.15.54 0 1.17-.28.64-.28 1.18-.7v-6.12h1.38v8.18zM404.6 104.26q-.38.1-.84.17-.45.06-.8.06-1.27 0-1.92-.68-.65-.67-.65-2.16V97.3h-.94v-1.15h.93V93.8h1.37v2.35h2.84v1.16h-2.83v3.74q0 .64.03 1 .03.37.2.68.16.3.44.43.3.13.87.13.34 0 .7-.1l.54-.16h.07v1.24zM413.25 100.25q0 2-1.02 3.15-1.03 1.16-2.75 1.16-1.74 0-2.76-1.16-1.02-1.16-1.02-3.15 0-2 1.02-3.16 1.02-1.18 2.76-1.18 1.72 0 2.75 1.17 1.02 1.15 1.02 3.15zm-1.42 0q0-1.6-.62-2.36-.6-.8-1.72-.8t-1.74.8q-.62.76-.62 2.35 0 1.53.62 2.33.63.8 1.74.8 1.1 0 1.72-.8.63-.78.63-2.33zM419.64 104.26q-.4.1-.85.17-.47.06-.82.06-1.26 0-1.9-.68-.66-.67-.66-2.16V97.3h-.93v-1.15h.92V93.8h1.38v2.35h2.84v1.16h-2.84v3.74q0 .64.03 1 .03.37.2.68.16.3.44.43.3.13.86.13.34 0 .7-.1l.54-.16h.07v1.24zM422.8 94.78h-1.56v-1.43h1.55v1.43zm-.1 9.55h-1.38v-8.18h1.38v8.18zM431.3 104.33h-6.6v-1.02l4.78-6h-4.67v-1.15h6.4v.98l-4.8 6.04h4.9v1.16zm-.82-12.27l-1.67 2.77h-1.65l-1.67-2.77h1.16l1.36 1.87 1.34-1.87h1.14zM79.75 118.9q0 1-.3 1.82-.27.82-.8 1.4-.48.53-1.14.83-.64.3-1.37.3-.64 0-1.16-.15-.5-.13-1.05-.43v3.43h-1.37v-11.2h1.37v.86q.55-.46 1.23-.77.7-.33 1.47-.33 1.48 0 2.3 1.12.83 1.1.83 3.1zm-1.42.03q0-1.48-.5-2.2-.52-.74-1.56-.74-.6 0-1.2.24-.6.26-1.15.68v4.63q.6.27 1 .36.43.1.97.1 1.14 0 1.78-.77.65-.78.65-2.3zM88.87 119q0 2-1.03 3.15-1.03 1.16-2.75 1.16-1.74 0-2.77-1.15Q81.3 121 81.3 119q0-2 1.03-3.16 1.03-1.17 2.76-1.17 1.7 0 2.74 1.17 1.03 1.16 1.03 3.16zm-1.43 0q0-1.6-.62-2.36-.62-.78-1.73-.78-1.13 0-1.75.78-.62.77-.62 2.36 0 1.53.63 2.33.62.8 1.73.8 1.1 0 1.7-.8.64-.78.64-2.33zM96.85 120.72q0 1.12-.93 1.84-.92.72-2.53.72-.92 0-1.68-.2-.75-.23-1.27-.5v-1.53h.08q.65.5 1.45.78.8.3 1.53.3.92 0 1.43-.3.5-.3.5-.93 0-.48-.27-.73t-1.07-.43l-.77-.15-.86-.2q-1.08-.3-1.53-.84-.45-.55-.45-1.36 0-.5.2-.95.2-.45.63-.8.4-.34 1.04-.54t1.42-.2q.73 0 1.47.2.76.16 1.26.42v1.47h-.08q-.52-.4-1.28-.66-.75-.27-1.48-.27-.76 0-1.28.3-.52.28-.52.85 0 .5.3.76.32.26 1 .42l.86.17.8.16q.95.22 1.47.76.52.53.52 1.42zM106.25 123.08h-1.8l-3.3-3.58-.9.85v2.73H98.9v-11.4h1.38V119l3.98-4.1h1.73l-3.8 3.78 4.08 4.4zM109.1 123.08h-1.38v-11.4h1.37v11.4zM118.13 123.08h-1.37v-.87l-.5.36q-.3.22-.6.35-.34.18-.8.3-.43.1-1.03.1-1.1 0-1.88-.72-.77-.74-.77-1.87 0-.92.4-1.5.4-.57 1.14-.9.75-.33 1.8-.45 1.04-.1 2.24-.17v-.22q0-.46-.17-.77-.17-.32-.47-.5-.3-.16-.7-.22-.42-.06-.86-.06-.55 0-1.2.15-.68.13-1.4.4h-.06v-1.4q.4-.1 1.17-.23.76-.14 1.5-.14.87 0 1.5.15.65.14 1.12.48.45.34.7.87.23.54.23 1.33v5.55zm-1.37-2v-2.3l-1.48.12q-.85.07-1.35.2-.6.18-.96.54-.37.35-.37.97 0 .72.43 1.08.42.35 1.3.35.72 0 1.32-.28.6-.3 1.1-.68zm.5-10.27l-2 2.75h-1.1l1.32-2.74h1.78zM127.43 123.08h-1.37v-.85q-.6.5-1.24.8-.64.28-1.4.28-1.46 0-2.33-1.12-.87-1.13-.87-3.13 0-1.04.3-1.85.3-.8.8-1.38.5-.56 1.16-.85.66-.3 1.37-.3.64 0 1.14.14.5.15 1.06.43v-3.54h1.37v11.38zm-1.37-2v-4.7q-.56-.26-1-.35-.44-.1-.96-.1-1.16 0-1.8.8-.64.82-.64 2.3 0 1.45.5 2.2.5.77 1.6.77.58 0 1.18-.26t1.12-.67zM136.5 123.08h-1.37v-.87l-.5.36q-.3.22-.6.35-.34.18-.8.3-.43.1-1.03.1-1.1 0-1.88-.72-.77-.74-.77-1.87 0-.92.4-1.5.4-.57 1.14-.9.74-.33 1.78-.45 1.05-.1 2.25-.17v-.22q0-.46-.17-.77-.16-.32-.46-.5-.3-.16-.7-.22-.42-.06-.86-.06-.55 0-1.2.15-.68.13-1.4.4h-.06v-1.4q.4-.1 1.16-.23.76-.14 1.5-.14.87 0 1.5.15.65.14 1.12.48.46.34.7.87.24.54.24 1.33v5.55zm-1.37-2v-2.3l-1.48.12q-.85.07-1.35.2-.6.18-.96.54-.37.35-.37.97 0 .72.43 1.08.42.35 1.3.35.72 0 1.32-.28.6-.3 1.1-.68zM146 123.08h-1.37v-4.66q0-.56-.06-1.05-.07-.5-.25-.78-.18-.3-.52-.46-.35-.15-.9-.15-.56 0-1.18.26-.6.28-1.18.7v6.12h-1.37v-8.18h1.37v.9q.65-.53 1.34-.83.7-.3 1.4-.3 1.34 0 2.03.8.7.8.7 2.3v5.3zM155.5 119.13h-6.02q0 .76.23 1.32t.63.92q.38.35.9.53.53.17 1.16.17.82 0 1.67-.33t1.2-.66h.08v1.5q-.7.3-1.42.5-.73.2-1.53.2-2.03 0-3.18-1.1-1.14-1.1-1.14-3.14 0-2 1.1-3.2 1.1-1.17 2.88-1.17 1.65 0 2.55.97.9.97.9 2.75v.73zm-1.33-1.05q0-1.08-.55-1.68-.54-.6-1.63-.6-1.12 0-1.78.66-.65.65-.74 1.62h4.7zm.17-7.27l-2 2.75h-1.1l1.32-2.74h1.78zM169.14 123.08h-6.6v-1.02l4.76-6h-4.66v-1.16h6.38v.98l-4.8 6.04h4.92v1.16zM177.85 119.13h-6.03q0 .76.23 1.32t.62.92q.38.35.9.53.53.17 1.16.17.83 0 1.68-.33.86-.33 1.2-.66h.1v1.5q-.7.3-1.43.5t-1.53.2q-2.03 0-3.18-1.1-1.14-1.1-1.14-3.14 0-2 1.1-3.2 1.1-1.17 2.88-1.17 1.65 0 2.55.97.9.97.9 2.75v.73zm-1.34-1.05q0-1.08-.54-1.68-.54-.6-1.63-.6-1.1 0-1.77.66-.65.65-.74 1.62h4.7zM191.4 120.72q0 1.12-.94 1.84-.92.72-2.52.72-.9 0-1.67-.2-.76-.23-1.27-.5v-1.53h.07q.65.5 1.45.78.8.3 1.53.3.9 0 1.42-.3.52-.3.52-.93 0-.48-.3-.73-.27-.25-1.06-.43l-.77-.15-.86-.2q-1.06-.3-1.52-.84-.44-.55-.44-1.36 0-.5.2-.95.2-.45.64-.8.4-.34 1.04-.54t1.42-.2q.73 0 1.48.2.75.16 1.25.42v1.47H191q-.53-.4-1.28-.66-.76-.27-1.48-.27-.76 0-1.28.3-.52.28-.52.85 0 .5.32.76.3.26 1 .42l.84.17.8.16q.95.22 1.47.76.52.53.52 1.42zM200.57 118.9q0 1-.28 1.82-.3.82-.82 1.4-.48.53-1.14.83-.65.3-1.4.3-.62 0-1.14-.15-.52-.13-1.05-.43v3.43h-1.38v-11.2h1.38v.86q.55-.46 1.23-.77.7-.33 1.46-.33 1.48 0 2.3 1.12.83 1.1.83 3.1zm-1.42.03q0-1.48-.5-2.2-.5-.74-1.56-.74-.6 0-1.2.24-.6.26-1.15.68v4.63q.58.27 1 .36.43.1.96.1 1.16 0 1.8-.77.65-.78.65-2.3zM209.7 119q0 2-1.04 3.15-1.02 1.16-2.74 1.16-1.74 0-2.76-1.15-1.02-1.16-1.02-3.15 0-2 1.02-3.16 1.02-1.17 2.76-1.17 1.72 0 2.74 1.17 1.03 1.16 1.03 3.16zm-1.43 0q0-1.6-.62-2.36-.63-.78-1.73-.78-1.12 0-1.75.78-.6.77-.6 2.36 0 1.53.6 2.33.63.8 1.75.8 1.1 0 1.72-.8.63-.78.63-2.33zM218.6 123.08h-1.37v-.9q-.7.54-1.33.84-.64.3-1.4.3-1.3 0-2-.8-.73-.8-.73-2.3v-5.32h1.38v4.66q0 .62.06 1.07.06.44.25.75.2.33.52.47.3.15.9.15.55 0 1.18-.28.63-.28 1.18-.7v-6.12h1.38v8.18zM227.17 120.72q0 1.12-.94 1.84-.92.72-2.52.72-.9 0-1.66-.2-.76-.23-1.27-.5v-1.53h.07q.66.5 1.45.78.8.3 1.53.3.9 0 1.42-.3.5-.3.5-.93 0-.48-.27-.73-.28-.25-1.07-.43l-.76-.15q-.47-.1-.85-.2-1.1-.3-1.55-.84-.44-.55-.44-1.36 0-.5.2-.95.23-.45.65-.8.4-.34 1.04-.54.63-.2 1.4-.2.74 0 1.5.2.74.16 1.24.42v1.47h-.07q-.53-.4-1.28-.66-.77-.27-1.5-.27-.75 0-1.27.3-.52.28-.52.85 0 .5.33.76.3.26 1 .42l.84.17.8.16q.95.22 1.47.76.53.53.53 1.42zM233.4 123q-.4.1-.86.18-.45.06-.8.06-1.26 0-1.92-.67-.65-.67-.65-2.16v-4.34h-.93v-1.16h.93v-2.35h1.38v2.35h2.84v1.16h-2.85v3.73q0 .63.03 1 .03.36.2.67.16.3.44.43.3.13.87.13.32 0 .7-.1.36-.1.52-.16h.07V123zM242.08 114.9l-4.78 11.2h-1.47l1.52-3.4-3.26-7.8h1.5l2.5 6.07 2.53-6.07h1.45zM256.92 123.08h-1.82l-3.28-3.58-.9.85v2.73h-1.37v-11.4h1.38V119l3.97-4.1h1.74l-3.8 3.78 4.08 4.4zM263.47 116.4h-.07q-.3-.07-.6-.1-.3-.04-.68-.04-.64 0-1.23.3-.6.27-1.15.7v5.82h-1.38v-8.18h1.38v1.2q.82-.65 1.44-.92.62-.28 1.27-.28.36 0 .52.02l.47.07v1.4zM270.88 123.08h-1.37v-.87q-.17.14-.5.36-.3.22-.6.35-.33.18-.78.3-.45.1-1.05.1-1.1 0-1.87-.72-.77-.74-.77-1.87 0-.92.4-1.5.4-.57 1.14-.9.74-.33 1.8-.45 1.04-.1 2.24-.17v-.22q0-.46-.16-.77-.16-.32-.47-.5-.3-.16-.7-.22-.4-.06-.86-.06-.53 0-1.2.15-.66.13-1.37.4h-.08v-1.4q.4-.1 1.17-.23.76-.14 1.5-.14.86 0 1.5.15.64.14 1.1.48.47.34.72.87.24.54.24 1.33v5.55zm-1.37-2v-2.3l-1.48.12q-.85.07-1.35.2-.6.18-.96.54-.35.35-.35.97 0 .72.42 1.08.43.35 1.3.35.72 0 1.32-.28.6-.3 1.1-.68zM280.74 118.93q0 1.02-.3 1.85-.28.82-.77 1.37-.52.58-1.14.87-.62.3-1.37.3-.7 0-1.2-.18-.53-.16-1.04-.44l-.1.38h-1.28v-11.4h1.38v4.08q.58-.48 1.23-.78.65-.3 1.47-.3 1.45 0 2.28 1.1.84 1.12.84 3.15zm-1.42.04q0-1.47-.48-2.22-.48-.76-1.56-.76-.6 0-1.22.25-.6.26-1.14.67v4.68q.6.27 1 .37.43.1.96.1 1.15 0 1.8-.75.64-.75.64-2.35zM284.37 113.53h-1.55v-1.43h1.55v1.43zm-.1 9.55h-1.37v-8.18h1.38v8.18zM293 122.57q-.68.33-1.3.5-.6.2-1.3.2-.9 0-1.64-.26-.74-.25-1.26-.78-.54-.53-.83-1.33-.3-.82-.3-1.9 0-2 1.1-3.15 1.1-1.14 2.92-1.14.7 0 1.37.2.68.2 1.24.5v1.52h-.06q-.63-.5-1.3-.75-.67-.27-1.3-.27-1.18 0-1.86.8-.68.78-.68 2.3 0 1.48.66 2.28.67.8 1.87.8.42 0 .85-.12.43-.1.78-.28.3-.16.56-.33.26-.17.42-.3h.07v1.52zM297.64 121l-2.06 4.8h-1.07l1.28-4.8h1.86zM313.27 123.08h-1.8l-3.3-3.58-.9.85v2.73h-1.37v-11.4h1.38V119l3.98-4.1H313l-3.8 3.78 4.07 4.4zM318.97 123q-.4.1-.85.18-.45.06-.8.06-1.26 0-1.92-.67-.65-.67-.65-2.16v-4.34h-.93v-1.16h.93v-2.35h1.38v2.35h2.84v1.16h-2.84v3.73q0 .63.03 1 .03.36.2.67.16.3.44.43.3.13.87.13.33 0 .7-.1.37-.1.53-.16h.07V123zM327.5 119.13h-6.04q0 .76.23 1.32.22.56.6.92.4.35.9.53.54.17 1.17.17.83 0 1.68-.33t1.2-.66h.08v1.5q-.7.3-1.42.5t-1.52.2q-2.03 0-3.18-1.1-1.14-1.1-1.14-3.14 0-2 1.1-3.2 1.1-1.17 2.88-1.17 1.65 0 2.55.97.9.97.9 2.75v.73zm-1.35-1.05q0-1.08-.55-1.68-.54-.6-1.63-.6-1.1 0-1.77.66-.65.65-.74 1.62h4.7zM334.68 116.4h-.07q-.3-.07-.6-.1-.28-.04-.67-.04-.64 0-1.23.3-.6.27-1.15.7v5.82h-1.37v-8.18h1.37v1.2q.82-.65 1.45-.92.63-.28 1.28-.28.36 0 .52.02l.48.07v1.4zM342.84 119.13h-6.03q0 .76.24 1.32.23.56.62.92.38.35.9.53.53.17 1.16.17.84 0 1.68-.33.85-.33 1.2-.66h.08v1.5q-.7.3-1.42.5-.73.2-1.53.2-2.03 0-3.17-1.1-1.15-1.1-1.15-3.14 0-2 1.1-3.2 1.1-1.17 2.9-1.17 1.65 0 2.54.97.9.97.9 2.75v.73zm-1.34-1.05q0-1.08-.55-1.68-.53-.6-1.63-.6-1.1 0-1.77.66-.65.65-.74 1.62h4.7zm.17-7.27l-2 2.75h-1.1l1.32-2.74h1.77zM353.1 113.53h-1.56v-1.43h1.55v1.43zm-.1 9.75q0 1.44-.73 2.17t-1.96.73q-.3 0-.77-.06-.48-.06-.8-.14v-1.32h.07l.55.2q.35.1.68.1.53 0 .85-.16.33-.14.5-.44.15-.3.2-.7.04-.42.04-1v-6.6h-1.7v-1.16H353v8.38zM361.54 120.72q0 1.12-.93 1.84-.9.72-2.52.72-.9 0-1.67-.2-.74-.23-1.25-.5v-1.53h.07q.65.5 1.45.78.8.3 1.53.3.9 0 1.42-.3.5-.3.5-.93 0-.48-.26-.73-.28-.25-1.07-.43l-.78-.15-.86-.2q-1.08-.3-1.53-.84-.45-.55-.45-1.36 0-.5.2-.95.22-.45.65-.8.4-.34 1.04-.54.63-.2 1.42-.2.72 0 1.47.2.75.16 1.25.42v1.47h-.07q-.53-.4-1.3-.66-.74-.27-1.47-.27-.75 0-1.27.3-.5.28-.5.85 0 .5.3.76t1 .42l.85.17.8.16q.95.22 1.47.76.52.53.52 1.42zM370.5 119q0 2-1.03 3.15-1.03 1.16-2.75 1.16-1.74 0-2.76-1.15-1.02-1.16-1.02-3.15 0-2 1.02-3.16 1.02-1.17 2.76-1.17 1.72 0 2.75 1.17 1.02 1.16 1.02 3.16zm-1.43 0q0-1.6-.62-2.36-.62-.78-1.73-.78-1.12 0-1.74.78-.62.77-.62 2.36 0 1.53.62 2.33.63.8 1.74.8 1.1 0 1.72-.8.63-.78.63-2.33zM379.4 123.08h-1.36v-.9q-.7.54-1.34.84-.64.3-1.4.3-1.3 0-2-.8-.73-.8-.73-2.3v-5.32h1.38v4.66q0 .62.06 1.07.07.44.26.75.2.33.5.47.32.15.92.15.54 0 1.17-.28.64-.28 1.2-.7v-6.12h1.36v8.18zM394.58 123.08h-1.38v-4.66q0-.56-.07-1.05-.06-.5-.24-.78-.2-.3-.54-.46-.34-.15-.9-.15-.55 0-1.17.26-.62.28-1.2.7v6.12h-1.37v-8.18h1.38v.9q.66-.53 1.34-.83.7-.3 1.42-.3 1.32 0 2.02.8t.7 2.3v5.3zM404.07 119.13h-6.02q0 .76.22 1.32.23.56.63.92.38.35.9.53.52.17 1.15.17.84 0 1.68-.33.85-.33 1.2-.66h.08v1.5q-.68.3-1.4.5-.73.2-1.53.2-2.04 0-3.18-1.1-1.15-1.1-1.15-3.14 0-2 1.1-3.2 1.1-1.17 2.88-1.17 1.65 0 2.54.97.9.97.9 2.75v.73zm-1.34-1.05q0-1.08-.54-1.68-.55-.6-1.65-.6-1.1 0-1.76.66-.67.65-.75 1.62h4.68zm.36-7.27l-1.68 2.78h-1.66l-1.67-2.77h1.16l1.35 1.88 1.36-1.87h1.13zM413.6 123.08h-1.83l-3.28-3.58-.9.85v2.73h-1.38v-11.4h1.38V119l3.97-4.1h1.74l-3.8 3.78 4.1 4.4zM421.67 123.08h-1.37v-.85q-.6.5-1.24.8-.64.28-1.4.28-1.46 0-2.33-1.12-.85-1.13-.85-3.13 0-1.04.3-1.85.3-.8.8-1.38.5-.56 1.15-.85.67-.3 1.38-.3.65 0 1.15.14.5.15 1.05.43v-3.54h1.37v11.38zm-1.37-2v-4.7q-.56-.26-1-.35-.44-.1-.96-.1-1.15 0-1.8.8-.64.82-.64 2.3 0 1.45.5 2.2.5.77 1.6.77.58 0 1.18-.26t1.12-.67zM431.46 114.9l-4.78 11.2h-1.47l1.54-3.4-3.26-7.8h1.5l2.5 6.07 2.54-6.07h1.44zM79.62 133.65l-3.3 8.18h-1.4l-3.28-8.18h1.5l2.53 6.5 2.5-6.5h1.45zM88.15 137.88h-6.02q0 .76.22 1.32.23.56.63.92.38.35.9.53.52.17 1.15.17.84 0 1.68-.33.86-.34 1.22-.67H88v1.5q-.7.3-1.43.5-.72.2-1.52.2-2.04 0-3.18-1.1-1.14-1.1-1.14-3.14 0-2.02 1.1-3.2 1.1-1.18 2.88-1.18 1.66 0 2.55.97.9.96.9 2.74v.74zm-1.34-1.05q0-1.08-.53-1.68-.54-.6-1.64-.6-1.1 0-1.76.66-.66.66-.74 1.63h4.68zM96.88 141.83H95.5v-.85q-.6.5-1.24.8-.64.28-1.4.28-1.46 0-2.32-1.13-.86-1.13-.86-3.13 0-1.04.3-1.85.3-.8.8-1.38.5-.56 1.15-.85.67-.3 1.38-.3.66 0 1.15.14.5.14 1.05.42v-3.54h1.38v11.4zm-1.38-2v-4.7q-.56-.26-1-.35-.43-.1-.95-.1-1.16 0-1.8.8-.65.82-.65 2.3 0 1.45.5 2.2.5.77 1.6.77.58 0 1.18-.26.6-.27 1.12-.68zM100.98 141.83H99.6v-11.4h1.38v11.4zM110.5 137.88h-6.02q0 .76.23 1.32t.63.92q.38.35.9.53.53.17 1.16.17.82 0 1.67-.33.85-.34 1.2-.67h.08v1.5q-.7.3-1.42.5-.73.2-1.53.2-2.03 0-3.18-1.1-1.14-1.1-1.14-3.14 0-2.02 1.1-3.2 1.1-1.18 2.88-1.18 1.65 0 2.55.97.9.96.9 2.74v.74zm-1.33-1.05q0-1.08-.55-1.68-.54-.6-1.63-.6-1.12 0-1.78.66-.65.66-.74 1.63h4.7zM127.02 139.47q0 1.12-.93 1.84-.93.73-2.53.73-.9 0-1.67-.2-.76-.23-1.27-.5v-1.53h.07q.65.5 1.45.78.8.3 1.53.3.9 0 1.42-.3.52-.3.52-.93 0-.48-.28-.73t-1.07-.43l-.77-.16-.86-.2q-1.07-.28-1.53-.83-.44-.54-.44-1.35 0-.5.2-.95.22-.45.65-.8.42-.34 1.05-.54.63-.2 1.42-.2.73 0 1.48.18.75.17 1.25.43v1.47h-.07q-.53-.4-1.28-.65-.76-.28-1.48-.28-.76 0-1.28.3-.53.28-.53.85 0 .5.32.76.3.26.98.42l.85.17.8.16q.95.22 1.47.76t.52 1.43zM135.85 137.88h-6.03q0 .76.23 1.32.22.56.62.92.38.35.9.53.53.17 1.16.17.83 0 1.68-.33.85-.34 1.2-.67h.1v1.5q-.7.3-1.43.5t-1.53.2q-2.03 0-3.18-1.1-1.14-1.1-1.14-3.14 0-2.02 1.1-3.2 1.1-1.18 2.88-1.18 1.65 0 2.55.97.9.96.9 2.74v.74zm-1.34-1.05q0-1.08-.54-1.68-.54-.6-1.63-.6-1.1 0-1.77.66-.65.66-.74 1.63h4.7zM145.14 137.68q0 1.02-.3 1.85-.28.82-.77 1.37-.52.58-1.15.87-.62.3-1.37.3-.7 0-1.2-.18-.53-.17-1.04-.45l-.08.38h-1.28v-11.4h1.37v4.08q.6-.47 1.24-.77.65-.3 1.47-.3 1.46 0 2.3 1.1.84 1.12.84 3.15zm-1.43.04q0-1.47-.47-2.22-.48-.76-1.56-.76-.6 0-1.2.26-.63.26-1.16.67v4.68q.6.27 1.02.37.42.1.96.1 1.14 0 1.78-.75.65-.75.65-2.35zM154.13 137.88h-6.03q0 .76.23 1.32t.62.92q.38.35.9.53.53.17 1.16.17.84 0 1.7-.33.84-.34 1.2-.67h.07v1.5q-.7.3-1.42.5-.73.2-1.53.2-2.03 0-3.17-1.1-1.15-1.1-1.15-3.14 0-2.02 1.1-3.2 1.1-1.18 2.88-1.18 1.65 0 2.55.97.9.96.9 2.74v.74zm-1.34-1.05q-.02-1.08-.56-1.68-.53-.6-1.63-.6-1.1 0-1.76.66-.65.66-.74 1.63h4.7zM171.16 141.83h-1.37v-.87l-.5.35q-.32.23-.6.36-.36.17-.8.28-.45.12-1.05.12-1.1 0-1.88-.73-.76-.74-.76-1.87 0-.93.4-1.5.4-.58 1.14-.9.75-.34 1.8-.46 1.05-.1 2.25-.17v-.22q0-.45-.18-.76-.16-.3-.47-.5-.3-.15-.7-.2-.4-.07-.86-.07-.55 0-1.22.15-.67.13-1.38.4h-.07v-1.4q.4-.1 1.17-.23.76-.15 1.5-.15.86 0 1.5.15.64.14 1.1.48.47.34.7.87.26.54.26 1.33v5.55zm-1.37-2v-2.3l-1.5.12q-.85.07-1.35.2-.6.18-.96.54-.37.34-.37.96 0 .7.42 1.07.43.35 1.3.35.72 0 1.32-.28.6-.3 1.12-.68zM189.25 141.83h-1.38v-4.66q0-.56-.07-1.05-.06-.5-.24-.78-.18-.3-.53-.45-.34-.16-.9-.16-.55 0-1.17.27-.6.3-1.18.72v6.1h-1.38v-8.17h1.38v.9q.65-.53 1.33-.83.7-.3 1.43-.3 1.32 0 2.02.8t.7 2.3v5.3zM198.74 137.88h-6.02q0 .76.22 1.32.23.56.63.92.38.35.9.53.52.17 1.15.17.84 0 1.68-.33.85-.34 1.2-.67h.08v1.5q-.7.3-1.42.5t-1.52.2q-2.04 0-3.18-1.1-1.14-1.1-1.14-3.14 0-2.02 1.1-3.2 1.1-1.18 2.87-1.18 1.65 0 2.54.97.9.96.9 2.74v.74zm-1.34-1.05q0-1.08-.55-1.68-.53-.6-1.63-.6-1.1 0-1.76.66-.66.66-.74 1.63h4.68zm.36-7.27l-1.67 2.77h-1.67l-1.67-2.77h1.17l1.35 1.87 1.35-1.87h1.13zM208.26 141.83h-1.82l-3.28-3.58-.9.85v2.73h-1.37v-11.4h1.37v7.32l3.97-4.1h1.74l-3.8 3.78 4.08 4.4zM216.34 141.83h-1.37v-.85q-.6.5-1.24.8-.64.28-1.4.28-1.46 0-2.33-1.13-.86-1.13-.86-3.13 0-1.04.3-1.85.3-.8.8-1.38.5-.56 1.16-.85.67-.3 1.38-.3.64 0 1.14.14.5.14 1.05.42v-3.54h1.37v11.4zm-1.37-2v-4.7q-.56-.26-1-.35-.44-.1-.96-.1-1.15 0-1.8.8-.63.82-.63 2.3 0 1.45.5 2.2.5.77 1.6.77.58 0 1.18-.26.6-.27 1.12-.68zM226.13 133.65l-4.78 11.2h-1.47l1.53-3.4-3.25-7.8h1.5l2.5 6.07 2.54-6.07h1.43zM242.45 141.83h-6.6v-1.02l4.76-6h-4.66v-1.15h6.38v.98l-4.8 6.04h4.93v1.16zM250.75 141.83h-1.37v-.87l-.5.35q-.3.23-.6.36-.34.17-.8.28-.43.12-1.03.12-1.1 0-1.88-.73-.77-.74-.77-1.87 0-.93.4-1.5.4-.58 1.14-.9.75-.34 1.8-.46 1.04-.1 2.24-.17v-.22q0-.45-.17-.76-.15-.3-.45-.5-.3-.15-.7-.2-.42-.07-.86-.07-.56 0-1.22.15-.67.13-1.38.4h-.07v-1.4q.4-.1 1.16-.23.75-.15 1.5-.15.86 0 1.5.15.64.14 1.1.48.47.34.7.87.25.54.25 1.33v5.55zm-1.37-2v-2.3l-1.48.12q-.85.07-1.35.2-.6.18-.96.54-.38.34-.38.96 0 .7.43 1.07.42.35 1.3.35.72 0 1.32-.28.6-.3 1.1-.68zM259.26 139.47q0 1.12-.93 1.84-.92.73-2.52.73-.9 0-1.66-.2-.76-.23-1.27-.5v-1.53h.07q.65.5 1.45.78.8.3 1.52.3.9 0 1.42-.3.52-.3.52-.93 0-.48-.28-.73t-1.07-.43q-.28-.07-.76-.16l-.86-.2q-1.07-.28-1.53-.83-.44-.54-.44-1.35 0-.5.2-.95.22-.45.65-.8.4-.34 1.04-.54.62-.2 1.4-.2.74 0 1.5.18.74.17 1.24.43v1.47h-.07q-.53-.4-1.28-.65-.77-.28-1.5-.28-.75 0-1.27.3-.52.28-.52.85 0 .5.33.76.3.26 1 .42l.84.17.8.16q.95.22 1.47.76t.52 1.43zM268.1 137.88h-6.04q0 .76.23 1.32.2.56.6.92.4.35.9.53.54.17 1.17.17.83 0 1.68-.33.85-.34 1.2-.67h.08v1.5q-.7.3-1.42.5t-1.52.2q-2.03 0-3.18-1.1-1.14-1.1-1.14-3.14 0-2.02 1.1-3.2 1.1-1.18 2.88-1.18 1.65 0 2.55.97.9.96.9 2.74v.74zm-1.35-1.05q0-1.08-.55-1.68-.54-.6-1.63-.6-1.1 0-1.77.66-.65.66-.74 1.63h4.7zM285.83 133.65l-3.3 8.18h-1.4l-3.28-8.18h1.5l2.53 6.5 2.5-6.5h1.45zM302.06 139.47q0 1.12-.93 1.84-.92.73-2.53.73-.9 0-1.67-.2-.75-.23-1.26-.5v-1.53h.07q.65.5 1.45.78.8.3 1.52.3.9 0 1.42-.3.52-.3.52-.93 0-.48-.28-.73t-1.07-.43l-.76-.16-.86-.2q-1.08-.28-1.53-.83-.45-.54-.45-1.35 0-.5.2-.95.22-.45.65-.8.4-.34 1.04-.54.62-.2 1.4-.2.74 0 1.5.18.74.17 1.24.43v1.47h-.07q-.53-.4-1.3-.65-.74-.28-1.47-.28-.75 0-1.27.3-.52.28-.52.85 0 .5.33.76.3.26 1 .42l.84.17.8.16q.95.22 1.47.76t.52 1.43zM311 137.75q0 2-1 3.15-1.04 1.16-2.76 1.16-1.74 0-2.76-1.16-1.02-1.16-1.02-3.15 0-2 1.02-3.16 1.02-1.18 2.76-1.18 1.72 0 2.75 1.17 1 1.15 1 3.15zm-1.4 0q0-1.6-.63-2.36-.62-.8-1.73-.8-1.12 0-1.74.8-.62.76-.62 2.35 0 1.53.62 2.33.63.8 1.74.8 1.1 0 1.72-.8.63-.78.63-2.33zM320.35 137.68q0 1.02-.3 1.85-.28.82-.77 1.37-.52.58-1.14.87-.62.3-1.37.3-.7 0-1.22-.18-.52-.17-1.02-.45l-.1.38h-1.28v-11.4h1.38v4.08q.58-.47 1.23-.77.65-.3 1.46-.3 1.45 0 2.3 1.1.83 1.12.83 3.15zm-1.42.04q0-1.47-.48-2.22-.5-.76-1.56-.76-.6 0-1.23.26-.62.26-1.14.67v4.68q.58.27 1 .37.43.1.96.1 1.13 0 1.78-.75.65-.75.65-2.35zM329.34 137.88h-6.02q0 .76.22 1.32.23.56.63.92.38.35.9.53.52.17 1.15.17.84 0 1.68-.33.85-.34 1.2-.67h.08v1.5q-.7.3-1.42.5t-1.52.2q-2.04 0-3.18-1.1-1.14-1.1-1.14-3.14 0-2.02 1.1-3.2 1.1-1.18 2.87-1.18 1.65 0 2.54.97.9.96.9 2.74v.74zm-1.34-1.05q0-1.08-.55-1.68-.53-.6-1.63-.6-1.1 0-1.76.66-.66.66-.74 1.63H328zm.36-7.27l-1.67 2.77h-1.67l-1.67-2.77h1.16l1.36 1.87 1.35-1.87h1.13zM346.37 141.83H345v-.87l-.5.35q-.3.23-.6.36-.34.17-.8.28-.43.12-1.04.12-1.1 0-1.87-.73-.78-.74-.78-1.87 0-.93.4-1.5.4-.58 1.14-.9.75-.34 1.8-.46 1.04-.1 2.24-.17v-.22q0-.45-.17-.76-.16-.3-.47-.5-.3-.15-.7-.2-.4-.07-.86-.07-.54 0-1.2.15-.67.13-1.38.4h-.07v-1.4q.4-.1 1.16-.23.77-.15 1.5-.15.88 0 1.5.15.66.14 1.13.48.46.34.7.87.24.54.24 1.33v5.55zm-1.37-2v-2.3l-1.5.12q-.83.07-1.33.2-.6.18-.96.54-.36.34-.36.96 0 .7.43 1.07.42.35 1.3.35.72 0 1.32-.28.6-.3 1.1-.68zM361.87 141.76q-.4.1-.85.17-.46.06-.82.06-1.25 0-1.9-.68-.65-.67-.65-2.16v-4.35h-.93v-1.15h.93v-2.35h1.38v2.35h2.84v1.16h-2.84v3.74q0 .64.02 1 .03.37.2.68.17.3.45.43t.86.13q.34 0 .7-.1.37-.1.53-.16h.07v1.24zM369.9 141.83h-1.38v-.87l-.5.35q-.3.23-.6.36-.34.17-.78.28-.45.12-1.05.12-1.12 0-1.9-.73-.76-.74-.76-1.87 0-.93.4-1.5.4-.58 1.14-.9.75-.34 1.8-.46 1.04-.1 2.24-.17v-.22q0-.45-.16-.76-.16-.3-.47-.5-.3-.15-.72-.2-.4-.07-.85-.07-.54 0-1.2.15-.68.13-1.4.4h-.06v-1.4q.4-.1 1.16-.23.77-.15 1.5-.15.87 0 1.5.15.65.14 1.12.48.46.34.7.87.24.54.24 1.33v5.55zm-1.38-2v-2.3l-1.48.12q-.85.07-1.35.2-.6.18-.97.54-.37.34-.37.96 0 .7.43 1.07.4.35 1.3.35.7 0 1.3-.28.6-.3 1.12-.68zM380 141.83h-1.83l-3.28-3.58-.9.85v2.73h-1.38v-11.4H374v7.32l3.97-4.1h1.74l-3.8 3.78 4.1 4.4zM397.22 137.64q0 1-.3 1.83-.27.82-.8 1.4-.48.53-1.13.83-.67.3-1.4.3-.64 0-1.16-.15-.5-.13-1.04-.43v3.43h-1.38v-11.2h1.38v.86q.55-.45 1.23-.76.7-.32 1.46-.32 1.47 0 2.3 1.12.82 1.12.82 3.1zm-1.42.04q0-1.48-.5-2.2-.5-.74-1.56-.74-.6 0-1.2.25t-1.14.67v4.63q.58.27 1 .36.42.1.96.1 1.15 0 1.8-.78.64-.78.64-2.3zM406.34 137.75q0 2-1.03 3.15-1 1.16-2.73 1.16-1.74 0-2.77-1.16-1-1.16-1-3.15 0-2 1-3.16 1.03-1.18 2.77-1.18 1.72 0 2.74 1.17 1.04 1.15 1.04 3.15zm-1.42 0q0-1.6-.63-2.36-.63-.8-1.73-.8-1.12 0-1.75.8-.6.76-.6 2.35 0 1.53.6 2.33.63.8 1.75.8 1.1 0 1.72-.8.62-.78.62-2.33zM413.58 135.15h-.07q-.3-.07-.6-.1-.28-.04-.67-.04-.64 0-1.23.3-.6.28-1.15.72v5.8h-1.37v-8.17h1.37v1.2q.82-.65 1.45-.92.63-.28 1.28-.28.36 0 .52.02l.48.07v1.4zm-.4-5.6l-1.66 2.78h-1.66l-1.67-2.77h1.16l1.35 1.87 1.36-1.87h1.13zM421.25 141.83h-1.37v-.87l-.5.35q-.3.23-.6.36-.34.17-.8.28-.44.12-1.04.12-1.1 0-1.87-.73-.77-.74-.77-1.87 0-.93.4-1.5.4-.58 1.14-.9.74-.34 1.8-.46 1.04-.1 2.24-.17v-.22q0-.45-.17-.76-.15-.3-.46-.5-.3-.15-.7-.2-.4-.07-.86-.07-.54 0-1.2.15-.67.13-1.38.4h-.08v-1.4q.4-.1 1.17-.23.75-.15 1.5-.15.85 0 1.5.15.64.14 1.1.48.47.34.7.87.25.54.25 1.33v5.55zm-1.37-2v-2.3l-1.5.12q-.84.07-1.33.2-.6.18-.96.54-.38.34-.38.96 0 .7.42 1.07.43.35 1.3.35.73 0 1.33-.28.6-.3 1.1-.68zm.5-10.27l-2 2.74h-1.1l1.32-2.74h1.78zM430.55 141.83h-1.38v-.85q-.6.5-1.23.8-.65.28-1.4.28-1.47 0-2.33-1.13-.85-1.13-.85-3.13 0-1.04.3-1.85.3-.8.8-1.38.5-.56 1.16-.85.67-.3 1.38-.3.65 0 1.15.14.5.14 1.04.42v-3.54h1.38v11.4zm-1.38-2v-4.7q-.55-.26-1-.35-.43-.1-.95-.1-1.16 0-1.8.8-.65.82-.65 2.3 0 1.45.5 2.2.5.77 1.6.77.58 0 1.18-.26.6-.27 1.12-.68zM79.18 160.58H77.8v-.85q-.6.5-1.23.8-.65.28-1.4.28-1.47 0-2.33-1.12-.86-1.13-.86-3.13 0-1.04.3-1.85.3-.8.8-1.38.5-.56 1.16-.85.67-.3 1.38-.3.64 0 1.14.14.5.15 1.05.43v-3.54h1.38v11.38zm-1.37-2v-4.7q-.55-.26-1-.35-.43-.1-.95-.1-1.16 0-1.8.8-.65.82-.65 2.3 0 1.45.5 2.2.5.77 1.6.77.58 0 1.2-.26.6-.26 1.1-.67zM88.87 156.5q0 2-1.03 3.15-1.03 1.16-2.75 1.16-1.74 0-2.77-1.15-1.02-1.16-1.02-3.15 0-2 1.03-3.16 1.03-1.17 2.76-1.17 1.7 0 2.74 1.17 1.03 1.16 1.03 3.16zm-1.43 0q0-1.6-.62-2.36-.62-.78-1.73-.78-1.13 0-1.75.78-.62.77-.62 2.36 0 1.53.63 2.33.62.8 1.73.8 1.1 0 1.7-.8.64-.78.64-2.33zM98.43 160.58H96.6L93.34 157l-.9.85v2.73h-1.37v-11.4h1.38v7.32l3.98-4.1h1.73l-3.8 3.78 4.08 4.4zM106.7 156.5q0 2-1.02 3.15-1.02 1.16-2.74 1.16-1.74 0-2.77-1.15-1-1.16-1-3.15 0-2 1-3.16 1.03-1.17 2.77-1.17 1.72 0 2.74 1.17 1.03 1.16 1.03 3.16zm-1.4 0q0-1.6-.64-2.36-.62-.78-1.72-.78-1.13 0-1.75.78-.62.77-.62 2.36 0 1.53.62 2.33t1.74.8q1.1 0 1.72-.8.63-.78.63-2.33zM110.24 160.58h-1.38v-11.4h1.38v11.4zM119.28 160.58h-1.37v-.87l-.5.36q-.3.22-.6.35-.34.18-.78.3-.45.1-1.05.1-1.1 0-1.88-.72-.78-.74-.78-1.87 0-.92.4-1.5.4-.57 1.14-.9.75-.33 1.8-.45 1.04-.1 2.25-.17v-.22q0-.46-.16-.77-.16-.32-.47-.5-.3-.16-.7-.22-.4-.06-.86-.06-.53 0-1.2.15-.67.13-1.38.4h-.07v-1.4q.4-.1 1.16-.23.78-.14 1.52-.14.86 0 1.5.15.64.14 1.1.48.47.34.7.87.26.54.26 1.33v5.55zm-1.37-2v-2.3l-1.48.12q-.85.07-1.35.2-.6.18-.96.54-.35.35-.35.97 0 .72.42 1.08.43.35 1.3.35.72 0 1.32-.28.6-.3 1.1-.68zM124.2 160.58h-1.76v-2.1h1.75v2.1z" style="line-height:125%;-inkscape-font-specification:'sans-serif, Normal';text-align:justify"/>
  </g>
  <path fill="none" stroke="#00f" stroke-width="1.04" d="M19.54 220.27V301"/>
  <text x="451.27" y="806.13" fill="#00f" style="line-height:125%;-inkscape-font-specification:'sans-serif, Normal';text-align:center" font-size="25" font-family="sans-serif" letter-spacing="0" word-spacing="0" text-anchor="middle" transform="translate(-200.463 -524.233)">
    <tspan x="451.27" y="806.13">width</tspan>
  </text>
  <path fill="none" stroke="#00f" stroke-width="1.04" d="M481.54 220.27V301"/>
  <path fill="none" stroke="#00f" d="M220 818.08h461.43" marker-start="url(#a)" marker-end="url(#b)" transform="translate(-200.463 -524.233)"/>
  <text x="-642.16" y="762.27" fill="#00f" style="line-height:125%;-inkscape-font-specification:'sans-serif, Normal';text-align:center" transform="rotate(-90 -362.348 -161.885)" font-size="25" font-family="sans-serif" letter-spacing="0" word-spacing="0" text-anchor="middle">
    <tspan x="-642.16" y="762.27">height</tspan>
  </text>
  <path fill="none" stroke="#00f" stroke-width="1.11" d="M488.04 18.56h92.85"/>
  <path fill="none" stroke="#00f" d="M774.2 740.48V544.05" marker-start="url(#c)" marker-end="url(#d)" transform="translate(-200.463 -524.233)"/>
  <path fill="none" stroke="#00f" stroke-width="1.11" d="M488.04 217.5h92.85"/>
</svg>
