<svg xmlns="http://www.w3.org/2000/svg" viewBox="0 0 708.66 354.33">
  <defs>
    <marker id="a" orient="auto" overflow="visible">
      <path fill="#00f" fill-rule="evenodd" stroke="#00f" stroke-width=".8pt" d="M10 0l4-4L0 0l14 4-4-4z"/>
    </marker>
    <marker id="b" orient="auto" overflow="visible">
      <path fill="#00f" fill-rule="evenodd" stroke="#00f" stroke-width=".8pt" d="M-10 0l-4 4L0 0l-14-4 4 4z"/>
    </marker>
    <marker id="c" orient="auto" overflow="visible">
      <path fill="#00f" fill-rule="evenodd" stroke="#00f" stroke-width=".8pt" d="M10 0l4-4L0 0l14 4-4-4z"/>
    </marker>
    <marker id="d" orient="auto" overflow="visible">
      <path fill="#00f" fill-rule="evenodd" stroke="#00f" stroke-width=".8pt" d="M-10 0l-4 4L0 0l-14-4 4 4z"/>
    </marker>
  </defs>
  <path fill="#fc0" fill-rule="evenodd" d="M96.17 23.45h534.4v266.17H96.18zM-438.5 23.45H95.9v266.17h-534.4z"/>
  <text x="285.14" y="381.93" style="line-height:125%" font-size="40" font-family="sans-serif" letter-spacing="0" word-spacing="0" transform="translate(-166.413 -488.605)"/>
  <path fill="#fff" fill-rule="evenodd" stroke="#000" stroke-width="17.6" d="M140.37 66h446v181.08h-446z"/>
  <path fill="none" d="M183.03 110.84H543.7v91.4H183.04z"/>
  <g style="line-height:125%;-inkscape-font-specification:'sans-serif, Normal';text-align:justify" font-size="15" font-family="sans-serif" letter-spacing="0" word-spacing="0">
    <path d="M192.5 115.44h-3.9v9.62h-1.46v-9.62h-3.9v-1.3h9.25v1.3zM198.45 125.06h-1.36v-.87q-.2.1-.5.34-.32.22-.6.35-.36.16-.8.27-.45.12-1.05.12-1.1 0-1.88-.75-.77-.73-.77-1.86 0-.94.4-1.5.4-.6 1.14-.92.75-.33 1.8-.45 1.04-.12 2.25-.18v-.2q0-.48-.18-.78-.16-.3-.47-.5-.3-.16-.7-.2-.42-.07-.86-.07-.55 0-1.22.14-.67.14-1.38.4h-.07v-1.4q.4-.1 1.16-.23.76-.12 1.5-.12.86 0 1.5.15.64.14 1.1.48.47.35.7.88.25.54.25 1.33v5.56zm-1.36-2v-2.3q-.64.04-1.5.12-.85.07-1.35.2-.6.18-.96.54-.37.35-.37.97 0 .7.42 1.05.42.36 1.3.36.72 0 1.32-.27.6-.3 1.12-.68zM207.76 125.06h-1.38v-.86q-.6.52-1.24.8-.64.3-1.4.3-1.46 0-2.33-1.14-.84-1.13-.84-3.13 0-1.04.3-1.85.3-.8.8-1.4.5-.54 1.15-.84.68-.3 1.4-.3.63 0 1.13.15.5.12 1.05.4v-3.54h1.38v11.4zm-1.38-2v-4.7q-.56-.26-1-.35-.44-.1-.96-.1-1.15 0-1.8.82-.64.8-.64 2.28 0 1.46.5 2.22.5.76 1.6.76.58 0 1.18-.26t1.12-.67zM217.54 116.88l-4.77 11.2h-1.48l1.52-3.42-3.26-7.78h1.5l2.5 6.06 2.54-6.06h1.44zM232.4 115.5h-1.56v-1.42h1.55v1.43zm-.1 9.76q0 1.43-.73 2.17-.73.73-1.96.73-.3 0-.77-.06-.47-.06-.8-.15v-1.3h.08l.56.18q.35.1.68.1.52 0 .85-.15.3-.15.47-.44.16-.3.2-.7.06-.42.06-1v-6.6h-1.7v-1.16h3.07v8.38zM241.85 121.1h-6.03q0 .77.23 1.33.22.56.62.92.38.35.9.52.53.18 1.16.18.83 0 1.67-.33.85-.34 1.2-.66h.1v1.5q-.7.3-1.44.5-.72.2-1.52.2-2.04 0-3.18-1.1-1.14-1.1-1.14-3.14 0-2 1.1-3.2 1.1-1.17 2.88-1.17 1.65 0 2.55.97.9.97.9 2.75v.74zm-1.34-1.04q0-1.1-.54-1.68-.54-.6-1.64-.6-1.1 0-1.76.66-.65.65-.74 1.62h4.7zM261.4 120.97q0 2-1.02 3.16-1.03 1.16-2.75 1.16-1.73 0-2.76-1.17-1.02-1.16-1.02-3.16t1.02-3.15q1.03-1.17 2.76-1.17 1.72 0 2.75 1.17 1.02 1.15 1.02 3.15zm-1.42 0q0-1.6-.62-2.36-.62-.76-1.73-.76-1.12 0-1.74.77-.63.78-.63 2.37 0 1.54.63 2.34.62.8 1.73.8 1.1 0 1.72-.78.63-.8.63-2.35zM270.74 120.9q0 1.03-.3 1.85-.28.82-.77 1.38-.52.58-1.14.87-.62.3-1.37.3-.7 0-1.2-.18-.53-.16-1.04-.44l-.1.38h-1.28v-11.4h1.38v4.08q.58-.48 1.23-.78.65-.3 1.47-.3 1.45 0 2.28 1.1.84 1.12.84 3.15zm-1.42.04q0-1.46-.48-2.22-.48-.76-1.56-.76-.6 0-1.22.27-.6.25-1.14.66v4.68q.6.26 1 .37.43.1.96.1 1.15 0 1.8-.75.64-.75.64-2.36zM278.73 122.7q0 1.12-.93 1.84-.92.72-2.52.72-.9 0-1.67-.2-.75-.23-1.26-.5v-1.54h.07q.66.5 1.46.8.8.27 1.53.27.9 0 1.4-.3.53-.3.53-.92 0-.5-.28-.73-.28-.25-1.07-.43-.3-.07-.77-.15l-.85-.2q-1.07-.28-1.53-.83-.44-.56-.44-1.36 0-.5.2-.95.2-.45.64-.8.4-.35 1.04-.54.64-.22 1.42-.22.73 0 1.48.18t1.25.44v1.47h-.06q-.53-.4-1.28-.65-.76-.27-1.48-.27-.76 0-1.28.3-.52.27-.52.85 0 .5.32.76.3.25 1 .4.37.1.84.2l.8.15q.95.23 1.47.77.53.54.53 1.43zM287.07 125.06h-1.37v-.87q-.18.1-.5.34-.3.22-.6.35-.34.16-.8.27-.44.12-1.04.12-1.1 0-1.87-.75-.78-.73-.78-1.86 0-.94.4-1.5.4-.6 1.14-.92.74-.33 1.8-.45 1.04-.12 2.24-.18v-.2q0-.48-.17-.78-.16-.3-.47-.5-.3-.16-.7-.2-.4-.07-.86-.07-.54 0-1.2.14-.67.14-1.38.4h-.08v-1.4q.4-.1 1.17-.23.77-.12 1.5-.12.87 0 1.5.15.66.14 1.12.48.47.35.7.88.25.54.25 1.33v5.56zm-1.37-2v-2.3q-.63.04-1.5.12-.84.07-1.34.2-.6.18-.95.54-.36.35-.36.97 0 .7.42 1.05.43.36 1.3.36.73 0 1.33-.27.6-.3 1.1-.68zM296.58 125.06h-1.38v-4.66q0-.56-.07-1.05-.06-.5-.24-.78-.2-.3-.54-.45-.34-.16-.9-.16-.55 0-1.17.28-.62.28-1.2.7v6.12h-1.37v-11.4h1.38v4.13q.66-.55 1.34-.85.7-.3 1.42-.3 1.32 0 2.02.8t.7 2.3v5.3zM302.08 122.97l-2.06 4.8h-1.07l1.27-4.8h1.86zM319.42 125q-.4.1-.85.16-.45.06-.8.06-1.26 0-1.9-.67-.67-.68-.67-2.16v-4.36h-.93v-1.16h.93v-2.35h1.38v2.35h2.84v1.16h-2.84v3.72q0 .65.03 1 .04.37.22.7.16.28.43.42.3.13.87.13.34 0 .7-.08.37-.1.53-.17h.07V125zM326.2 118.38h-.08q-.3-.07-.6-.1-.28-.04-.68-.04-.63 0-1.23.3-.58.27-1.13.7v5.82h-1.38v-8.18h1.37v1.2q.82-.65 1.44-.92.64-.28 1.3-.28.35 0 .5.02l.5.07v1.4zm-.4-5.6l-1.66 2.78h-1.66l-1.67-2.78h1.17l1.36 1.88 1.34-1.88h1.14zM334.36 121.1h-6.03q0 .77.23 1.33.22.56.62.92.38.35.9.52.53.18 1.16.18.83 0 1.67-.33.86-.34 1.22-.66h.08v1.5q-.7.3-1.43.5-.72.2-1.52.2-2.03 0-3.18-1.1-1.14-1.1-1.14-3.14 0-2 1.1-3.2 1.1-1.17 2.88-1.17 1.66 0 2.56.97.9.97.9 2.75v.74zm-1.34-1.04q0-1.1-.55-1.68-.54-.6-1.64-.6-1.1 0-1.76.66-.65.65-.74 1.62h4.7zM343.64 120.9q0 1.03-.3 1.85-.27.82-.77 1.38-.52.58-1.14.87-.62.3-1.37.3-.7 0-1.2-.18-.53-.16-1.04-.44l-.1.38h-1.28v-11.4h1.38v4.08q.58-.48 1.23-.78.65-.3 1.47-.3 1.45 0 2.28 1.1.84 1.12.84 3.15zm-1.42.04q0-1.46-.48-2.22-.48-.76-1.56-.76-.6 0-1.22.27-.6.25-1.14.66v4.68q.6.26 1 .37.43.1.96.1 1.15 0 1.8-.75.64-.75.64-2.36zM352.15 125.06h-1.37v-.87q-.2.1-.5.34-.3.22-.6.35-.35.16-.8.27-.44.12-1.04.12-1.1 0-1.87-.75-.77-.73-.77-1.86 0-.94.4-1.5.4-.6 1.13-.92.75-.33 1.8-.45t2.25-.18v-.2q0-.48-.17-.78-.15-.3-.46-.5-.3-.16-.7-.2-.4-.07-.86-.07-.54 0-1.2.14-.67.14-1.4.4h-.06v-1.4q.4-.1 1.17-.23.75-.12 1.5-.12.85 0 1.5.15.63.14 1.1.48.46.35.7.88.25.54.25 1.33v5.56zm-1.37-2v-2.3q-.63.04-1.5.12-.84.07-1.34.2-.6.18-.96.54-.36.35-.36.97 0 .7.42 1.05.43.36 1.3.36.72 0 1.32-.27.6-.3 1.12-.68zM369.56 125q-.4.1-.85.16-.44.06-.8.06-1.26 0-1.9-.67-.66-.68-.66-2.16v-4.36h-.93v-1.16h.94v-2.35h1.38v2.35h2.84v1.16h-2.84v3.72q0 .65.03 1 .03.37.2.7.16.28.44.42.28.13.86.13.33 0 .7-.08.37-.1.53-.17h.06V125zM378.08 121.1h-6.03q0 .77.23 1.33.22.56.62.92.38.35.9.52.53.18 1.16.18.83 0 1.67-.33.85-.34 1.2-.66h.1v1.5q-.7.3-1.43.5t-1.53.2q-2.03 0-3.18-1.1-1.15-1.1-1.15-3.14 0-2 1.1-3.2 1.1-1.17 2.88-1.17 1.65 0 2.55.97.9.97.9 2.75v.74zm-1.34-1.04q0-1.1-.55-1.68-.55-.6-1.65-.6-1.1 0-1.76.66-.66.65-.75 1.62h4.7zM387.25 125.06h-1.74l-2.3-3.14-2.35 3.14h-1.6l3.2-4.08-3.17-4.1H381l2.32 3.1 2.32-3.1h1.6l-3.2 4.03 3.2 4.16zM393.3 125q-.4.1-.86.16-.45.06-.8.06-1.26 0-1.92-.67-.65-.68-.65-2.16v-4.36h-.93v-1.16h.93v-2.35h1.38v2.35h2.84v1.16h-2.85v3.72q0 .65.03 1 .03.37.2.7.16.28.44.42.3.13.87.13.32 0 .7-.08.36-.1.52-.17h.07V125zM412.3 125.06h-1.38v-4.66q0-.56-.06-1.05-.07-.5-.25-.78-.17-.3-.5-.45-.36-.16-.9-.16-.57 0-1.2.28-.6.28-1.16.7v6.12h-1.38v-8.18h1.38v.9q.64-.53 1.33-.83.7-.3 1.4-.3 1.34 0 2.03.8.7.8.7 2.3v5.3zM421.8 121.1h-6.03q0 .77.23 1.33.22.56.62.92.38.35.9.52.53.18 1.16.18.83 0 1.68-.33.85-.34 1.2-.66h.08v1.5q-.7.3-1.42.5-.73.2-1.53.2-2.04 0-3.2-1.1-1.13-1.1-1.13-3.14 0-2 1.1-3.2 1.1-1.17 2.88-1.17 1.65 0 2.55.97.9.97.9 2.75v.74zm-1.34-1.04q0-1.1-.55-1.68-.53-.6-1.62-.6-1.1 0-1.77.66-.64.65-.73 1.62h4.7zM431.1 120.9q0 1.03-.3 1.85-.3.82-.78 1.38-.52.58-1.15.87-.62.3-1.37.3-.7 0-1.2-.18-.53-.16-1.04-.44l-.08.38h-1.3v-11.4h1.38v4.08q.58-.48 1.23-.78.65-.3 1.46-.3 1.45 0 2.28 1.1.85 1.12.85 3.15zm-1.44.04q0-1.46-.48-2.22-.48-.76-1.56-.76-.6 0-1.2.27-.63.25-1.16.66v4.68q.6.26 1 .37.43.1.97.1 1.14 0 1.78-.75.66-.75.66-2.36zM440.2 120.97q0 2-1.02 3.16-1.03 1.16-2.75 1.16-1.73 0-2.76-1.17-1.02-1.16-1.02-3.16t1.02-3.15q1.03-1.17 2.76-1.17 1.72 0 2.75 1.17 1.02 1.15 1.02 3.15zm-1.42 0q0-1.6-.62-2.36-.62-.76-1.73-.76-1.12 0-1.74.77-.63.78-.63 2.37 0 1.54.63 2.34.62.8 1.73.8 1.1 0 1.72-.78.63-.8.63-2.35zM455.4 115.5h-1.56v-1.42h1.55v1.43zm-.1 9.76q0 1.43-.73 2.17-.73.73-1.96.73-.3 0-.77-.06-.48-.06-.8-.15v-1.3h.08l.55.18q.36.1.7.1.5 0 .84-.15.3-.15.47-.44.16-.3.2-.7.06-.42.06-1v-6.6h-1.7v-1.16h3.07v8.38zM459.48 115.5h-1.56v-1.42h1.56v1.43zm-.1 9.56h-1.37v-8.18h1.4v8.18zM468.9 125.06h-1.37v-4.66q0-.56-.06-1.05-.07-.5-.24-.78-.2-.3-.53-.45-.35-.16-.9-.16-.56 0-1.17.28-.62.28-1.18.7v6.12h-1.38v-8.18h1.38v.9q.64-.53 1.33-.83.7-.3 1.4-.3 1.34 0 2.03.8.7.8.7 2.3v5.3zM477.92 125.06h-1.37v-.87q-.18.1-.5.34-.3.22-.6.35-.34.16-.8.27-.44.12-1.04.12-1.1 0-1.86-.75-.77-.73-.77-1.86 0-.94.4-1.5.4-.6 1.14-.92.75-.33 1.8-.45t2.25-.18v-.2q0-.48-.17-.78-.16-.3-.47-.5-.28-.16-.7-.2-.4-.07-.85-.07-.54 0-1.2.14-.67.14-1.38.4h-.08v-1.4q.4-.1 1.16-.23.76-.12 1.5-.12.86 0 1.5.15.65.14 1.1.48.48.35.72.88.24.54.24 1.33v5.56zm-1.37-2v-2.3q-.63.04-1.5.12-.84.07-1.33.2-.6.18-.96.54-.37.35-.37.97 0 .7.4 1.05.44.36 1.3.36.74 0 1.34-.27.6-.3 1.1-.68zm.5-10.28l-2 2.74h-1.1l1.32-2.74h1.78zM498.5 125.06h-1.8l-3.3-3.58-.88.85v2.73h-1.38v-11.4h1.38v7.3l3.98-4.08h1.73l-3.8 3.78 4.08 4.4zM505.07 118.38H505q-.32-.07-.6-.1-.3-.04-.7-.04-.63 0-1.22.3-.6.27-1.14.7v5.82h-1.38v-8.18h1.38v1.2q.82-.65 1.44-.92.63-.28 1.28-.28.36 0 .52.02l.5.07v1.4zM512.47 125.06h-1.37v-.87q-.18.1-.5.34-.3.22-.6.35-.34.16-.8.27-.44.12-1.04.12-1.1 0-1.87-.75-.78-.73-.78-1.86 0-.94.4-1.5.4-.6 1.14-.92.75-.33 1.8-.45 1.04-.12 2.24-.18v-.2q0-.48-.17-.78-.16-.3-.47-.5-.3-.16-.7-.2-.4-.07-.86-.07-.54 0-1.2.14-.67.14-1.38.4h-.07v-1.4q.4-.1 1.16-.23.77-.12 1.5-.12.88 0 1.5.15.66.14 1.13.48.46.35.7.88.24.54.24 1.33v5.56zm-1.37-2v-2.3q-.63.04-1.5.12-.84.07-1.33.2-.6.18-.96.54-.36.35-.36.97 0 .7.43 1.05.42.36 1.3.36.72 0 1.32-.27.6-.3 1.1-.68zM522.34 120.9q0 1.03-.3 1.85-.28.82-.77 1.38-.52.58-1.15.87-.62.3-1.37.3-.7 0-1.2-.18-.53-.16-1.04-.44l-.07.38h-1.3v-11.4h1.38v4.08q.6-.48 1.24-.78.66-.3 1.47-.3 1.46 0 2.3 1.1.84 1.12.84 3.15zm-1.42.04q0-1.46-.5-2.22-.47-.76-1.55-.76-.6 0-1.2.27-.63.25-1.16.66v4.68q.6.26 1.02.37.42.1.96.1 1.14 0 1.78-.75.66-.75.66-2.36zM525.96 115.5h-1.55v-1.42h1.56v1.43zm-.1 9.56h-1.36v-8.18h1.37v8.18zM534.6 124.55q-.68.33-1.3.5-.62.2-1.32.2-.88 0-1.62-.26-.74-.28-1.27-.8-.55-.53-.84-1.34-.3-.8-.3-1.88 0-2 1.1-3.15 1.1-1.14 2.92-1.14.7 0 1.38.2.68.18 1.24.47v1.53h-.07q-.63-.5-1.3-.75-.67-.27-1.3-.27-1.18 0-1.86.8-.67.78-.67 2.3 0 1.48.66 2.28.66.8 1.86.8.42 0 .85-.12.44-.1.78-.3.3-.14.56-.3.28-.18.43-.3h.07v1.5zM543.22 121.1h-6.02q0 .77.22 1.33.23.56.63.92.38.35.9.52.52.18 1.15.18.84 0 1.68-.33.85-.34 1.2-.66h.08v1.5q-.7.3-1.42.5t-1.52.2q-2.04 0-3.18-1.1-1.14-1.1-1.14-3.14 0-2 1.1-3.2 1.1-1.17 2.88-1.17 1.65 0 2.54.97.9.97.9 2.75v.74zm-1.34-1.04q0-1.1-.54-1.68-.54-.6-1.64-.6-1.1 0-1.76.66-.65.65-.74 1.62h4.68zM187.15 134.26h-1.56v-1.43h1.55v1.43zm-.1 9.75q0 1.44-.72 2.18-.74.73-1.97.73-.3 0-.77-.05-.5-.06-.8-.15v-1.3h.06l.55.18q.36.1.7.1.52 0 .84-.15.32-.15.5-.44.15-.3.2-.72.04-.4.04-1v-6.6h-1.7v-1.15h3.08V144zM196.1 143.8h-1.36v-.86l-.5.35q-.3.2-.6.34-.34.17-.8.28-.43.12-1.04.12-1.1 0-1.87-.74-.77-.73-.77-1.86 0-.93.4-1.5.4-.58 1.14-.9.75-.34 1.8-.46 1.04-.12 2.24-.18v-.2q0-.48-.17-.78-.16-.3-.47-.5-.3-.16-.7-.2-.4-.07-.86-.07-.54 0-1.2.14-.67.13-1.38.4h-.07v-1.4q.4-.1 1.15-.24.76-.13 1.5-.13.87 0 1.5.15.65.14 1.12.48.46.34.7.87.24.54.24 1.33v5.55zm-1.36-2v-2.28q-.63.03-1.5.1-.83.08-1.33.22-.6.17-.95.53-.37.35-.37.97 0 .7.43 1.06.43.36 1.3.36.73 0 1.33-.28.6-.3 1.1-.68zM206.2 143.8h-1.8l-3.3-3.57-.9.85v2.73h-1.36v-11.4h1.37v7.32l4-4.1h1.73l-3.8 3.8 4.07 4.4zM214.48 139.72q0 2-1.03 3.16-1.02 1.16-2.74 1.16-1.73 0-2.75-1.16t-1.02-3.16q0-2 1.02-3.15 1.02-1.17 2.76-1.17 1.73 0 2.75 1.17 1.03 1.15 1.03 3.15zm-1.42 0q0-1.6-.62-2.36-.63-.77-1.73-.77t-1.73.76q-.62.77-.62 2.36 0 1.54.62 2.34.63.8 1.74.8 1.1 0 1.73-.8.63-.78.63-2.34zM235.7 134.26h-1.54v-1.43h1.55v1.43zm-.08 9.75q0 1.44-.73 2.18-.74.73-1.98.73-.3 0-.77-.05-.48-.06-.8-.15v-1.3h.07l.55.18q.35.1.68.1.53 0 .85-.15.33-.15.5-.44.15-.3.2-.72.04-.4.04-1v-6.6h-1.7v-1.15h3.08V144zM245.16 139.86h-6.02q0 .76.22 1.32.23.56.63.92.37.35.9.52.5.18 1.14.18.84 0 1.68-.33.85-.34 1.2-.66h.08v1.5q-.7.3-1.42.5t-1.52.2q-2.04 0-3.18-1.1-1.14-1.1-1.14-3.13 0-2 1.1-3.2 1.1-1.17 2.87-1.17 1.67 0 2.56.97.9.97.9 2.75v.74zm-1.34-1.05q0-1.08-.55-1.67-.53-.6-1.63-.6-1.1 0-1.76.66-.66.64-.74 1.6h4.68zM268.04 143.74q-.4.1-.85.17-.46.07-.82.07-1.26 0-1.9-.67-.66-.68-.66-2.16v-4.35h-.93v-1.17h.92v-2.35h1.38v2.35h2.84v1.16h-2.84v3.7q0 .66.03 1.02t.2.68q.16.3.44.43.3.13.87.13.33 0 .7-.1l.53-.16h.07v1.24zM276.07 143.8h-1.37v-.86q-.2.12-.5.35-.3.2-.6.34-.35.17-.8.28-.44.12-1.04.12-1.1 0-1.88-.74-.76-.73-.76-1.86 0-.93.4-1.5.4-.58 1.13-.9.75-.34 1.8-.46t2.25-.18v-.2q0-.48-.17-.78-.16-.3-.47-.5-.3-.16-.7-.2-.4-.07-.86-.07-.54 0-1.2.14-.68.13-1.4.4h-.06v-1.4q.4-.1 1.17-.24.77-.13 1.5-.13.87 0 1.5.15.65.14 1.12.48.46.34.7.87.25.54.25 1.33v5.55zm-1.37-2v-2.28q-.63.03-1.5.1-.84.08-1.34.22-.6.17-.96.53-.36.35-.36.97 0 .7.42 1.06.43.36 1.3.36.72 0 1.32-.28.6-.3 1.12-.68zM282.98 143.74q-.4.1-.85.17-.45.07-.8.07-1.26 0-1.92-.67-.64-.68-.64-2.16v-4.35h-.93v-1.17h.93v-2.35h1.38v2.35h2.84v1.16h-2.84v3.7q0 .66.03 1.02t.2.68q.16.3.44.43.3.13.88.13.33 0 .7-.1.37-.1.53-.16h.08v1.24zM291.62 139.72q0 2-1.02 3.16-1.03 1.16-2.75 1.16-1.73 0-2.76-1.16-1.03-1.16-1.03-3.16t1.02-3.15q1.02-1.17 2.75-1.17 1.72 0 2.75 1.17 1.02 1.15 1.02 3.15zm-1.42 0q0-1.6-.62-2.36-.62-.77-1.73-.77-1.12 0-1.74.76-.6.77-.6 2.36 0 1.54.62 2.34.62.8 1.73.8 1.1 0 1.72-.8.63-.78.63-2.34zM295.86 143.8h-1.75v-2.08h1.76v2.1zM328.4 132.9l-2.83 10.9h-1.63l-2.3-9.04-2.23 9.05h-1.6l-2.88-10.9h1.5l2.28 9.07 2.26-9.07h1.47l2.28 9.16 2.3-9.16h1.4zM336.54 139.86h-6.02q0 .76.22 1.32.23.56.63.92.38.35.9.52.52.18 1.15.18.84 0 1.68-.33.85-.34 1.2-.66h.08v1.5q-.7.3-1.42.5t-1.52.2q-2.04 0-3.18-1.1-1.14-1.1-1.14-3.13 0-2 1.1-3.2 1.1-1.17 2.87-1.17 1.65 0 2.54.97.9.97.9 2.75v.74zm-1.34-1.05q0-1.08-.55-1.67-.53-.6-1.63-.6-1.1 0-1.76.66-.66.64-.74 1.6h4.68zM345.83 139.66q0 1.02-.3 1.84-.28.82-.77 1.38-.52.58-1.14.87-.62.3-1.37.3-.7 0-1.22-.18-.52-.16-1.02-.44l-.08.38h-1.3v-11.4h1.4v4.1q.57-.5 1.22-.8.65-.3 1.46-.3 1.45 0 2.3 1.12.83 1.1.83 3.14zm-1.42.03q0-1.47-.47-2.23-.5-.76-1.56-.76-.6 0-1.22.28-.6.25-1.14.66v4.7q.6.25 1 .36.44.1.97.1 1.14 0 1.8-.75.64-.75.64-2.36zM354.95 139.72q0 2-1.03 3.16-1.02 1.16-2.74 1.16-1.74 0-2.76-1.16-1.02-1.16-1.02-3.16t1.02-3.15q1.02-1.17 2.76-1.17 1.72 0 2.74 1.17 1.03 1.15 1.03 3.15zm-1.42 0q0-1.6-.62-2.36-.62-.77-1.72-.77-1.12 0-1.75.76-.6.77-.6 2.36 0 1.54.6 2.34.63.8 1.75.8 1.1 0 1.72-.8.63-.78.63-2.34zM364.05 135.63l-3.3 8.18h-1.4l-3.3-8.17h1.5l2.54 6.5 2.5-6.5h1.45zM372.7 139.86h-6.03q0 .76.23 1.32.22.56.62.92.38.35.9.52.53.18 1.16.18.83 0 1.67-.33.85-.34 1.2-.66h.1v1.5q-.7.3-1.44.5-.7.2-1.5.2-2.04 0-3.2-1.1-1.13-1.1-1.13-3.13 0-2 1.1-3.2 1.1-1.17 2.88-1.17 1.65 0 2.55.97.9.97.9 2.75v.74zm-1.34-1.05q0-1.08-.55-1.67-.53-.6-1.63-.6-1.1 0-1.76.66-.64.64-.73 1.6h4.7zm.16-7.27l-2 2.74h-1.1l1.32-2.74h1.78zM397.17 141.45q0 1.12-.93 1.84-.92.7-2.53.7-.9 0-1.66-.2-.75-.22-1.27-.48v-1.55h.08q.65.5 1.45.8.8.27 1.53.27.9 0 1.42-.3.5-.28.5-.9 0-.5-.27-.74-.27-.25-1.07-.43-.28-.07-.75-.15l-.86-.2q-1.1-.28-1.54-.83-.45-.57-.45-1.37 0-.5.22-.95.2-.45.63-.8.4-.35 1.04-.54.63-.2 1.4-.2.75 0 1.5.17.75.2 1.25.45v1.47h-.08q-.52-.4-1.28-.65-.76-.27-1.5-.27t-1.26.3q-.52.27-.52.85 0 .5.3.76.32.26 1 .42.4.1.86.18l.8.16q.95.22 1.47.76t.52 1.43zM403.4 143.74q-.4.1-.86.17-.45.07-.8.07-1.26 0-1.9-.67-.66-.68-.66-2.16v-4.35h-.93v-1.17h.93v-2.35h1.37v2.35h2.84v1.16h-2.85v3.7q0 .66.03 1.02t.2.68q.17.3.45.43t.86.13q.33 0 .7-.1.36-.1.52-.16h.07v1.24zM410.17 137.13h-.07q-.3-.07-.6-.1-.3-.04-.7-.04-.62 0-1.22.28t-1.14.72v5.8h-1.38v-8.17h1.38v1.2q.82-.65 1.44-.92.63-.27 1.3-.27.34 0 .5.02l.5.07v1.4zM417.84 143.8h-1.37v-.86l-.5.35q-.3.2-.6.34-.34.17-.8.28-.44.12-1.04.12-1.1 0-1.87-.74-.77-.73-.77-1.86 0-.93.38-1.5.4-.58 1.15-.9.74-.34 1.8-.46 1.04-.12 2.24-.18v-.2q0-.48-.17-.78-.16-.3-.47-.5-.3-.16-.7-.2-.4-.07-.86-.07-.54 0-1.2.14-.67.13-1.38.4h-.1v-1.4q.42-.1 1.18-.24.76-.13 1.5-.13.86 0 1.5.15.64.14 1.1.48.47.34.72.87.24.54.24 1.33v5.55zm-1.37-2v-2.28q-.63.03-1.5.1-.84.08-1.34.22-.6.17-.96.53-.36.35-.36.97 0 .7.43 1.06.43.36 1.3.36.72 0 1.32-.28.6-.3 1.12-.68zm.5-10.27l-2 2.74h-1.1l1.32-2.74h1.77zM427.34 143.8h-1.37v-4.65q0-.56-.07-1.05-.06-.5-.24-.78-.18-.3-.53-.45-.34-.16-.9-.16-.55 0-1.17.3-.62.27-1.18.7v6.1h-1.38v-8.17h1.38v.9q.65-.53 1.33-.83.7-.3 1.43-.3 1.32 0 2.02.8t.7 2.3v5.3zM437.42 143.8h-1.8l-3.3-3.57-.9.85v2.73h-1.37v-11.4h1.38v7.32l3.98-4.1h1.74l-3.8 3.8 4.08 4.4zM445.95 135.63l-4.78 11.2h-1.47l1.52-3.42-3.26-7.77h1.5l2.5 6.06 2.55-6.07h1.45zM466.84 134.26h-1.55v-1.43h1.54v1.43zm-.1 9.75q0 1.44-.72 2.18-.73.73-1.96.73-.3 0-.78-.05-.48-.06-.8-.15v-1.3h.07l.55.18q.35.1.68.1.53 0 .85-.15.33-.15.5-.44.15-.3.2-.72.04-.4.04-1v-6.6h-1.7v-1.15h3.08V144zM475.3 141.45q0 1.12-.94 1.84-.92.7-2.53.7-.9 0-1.67-.2-.75-.22-1.26-.48v-1.55h.07q.65.5 1.45.8.8.27 1.53.27.9 0 1.42-.3.5-.28.5-.9 0-.5-.26-.74-.27-.25-1.06-.43-.3-.07-.77-.15l-.86-.2q-1.07-.28-1.52-.83-.45-.57-.45-1.37 0-.5.2-.95.22-.45.65-.8.4-.35 1.04-.54.63-.2 1.42-.2.73 0 1.48.17.75.2 1.25.45v1.47h-.07q-.53-.4-1.3-.65-.74-.27-1.47-.27-.75 0-1.27.3-.52.27-.52.85 0 .5.3.76.32.26 1 .42.4.1.86.18l.8.16q.95.22 1.47.76t.52 1.43zM484.24 139.72q0 2-1.02 3.16-1.03 1.16-2.75 1.16-1.74 0-2.76-1.16-1-1.16-1-3.16t1-3.15q1.03-1.17 2.77-1.17 1.72 0 2.75 1.17 1.02 1.15 1.02 3.15zm-1.42 0q0-1.6-.62-2.36-.62-.77-1.73-.77-1.12 0-1.74.76-.62.77-.62 2.36 0 1.54.63 2.34.63.8 1.74.8 1.1 0 1.72-.8.62-.78.62-2.34zM493.16 143.8h-1.37v-.9q-.7.55-1.35.84-.64.3-1.4.3-1.3 0-2-.8-.73-.78-.73-2.3v-5.3h1.38v4.65q0 .6.06 1.06.06.44.25.75.2.33.52.48.3.15.9.15.55 0 1.18-.28.64-.28 1.2-.7v-6.12h1.36v8.18zM516.66 143.74q-.4.1-.85.17-.44.07-.8.07-1.26 0-1.9-.67-.66-.68-.66-2.16v-4.35h-.93v-1.17h.94v-2.35h1.38v2.35h2.84v1.16h-2.84v3.7q0 .66.03 1.02t.2.68q.16.3.44.43t.86.13q.33 0 .7-.1.37-.1.53-.16h.06v1.24zM525.3 139.72q0 2-1.02 3.16-1.03 1.16-2.75 1.16-1.74 0-2.76-1.16-1.02-1.16-1.02-3.16t1.02-3.15q1.02-1.17 2.76-1.17 1.72 0 2.75 1.17 1.02 1.15 1.02 3.15zm-1.42 0q0-1.6-.62-2.36-.62-.77-1.73-.77-1.12 0-1.74.76-.63.77-.63 2.36 0 1.54.62 2.34.62.8 1.73.8 1.1 0 1.72-.8.63-.78.63-2.34zM531.7 143.74q-.4.1-.86.17-.45.07-.8.07-1.27 0-1.92-.67-.65-.68-.65-2.16v-4.35h-.93v-1.17h.93v-2.35h1.38v2.35h2.84v1.16h-2.85v3.7q0 .66.03 1.02t.2.68q.16.3.44.43.3.13.87.13.32 0 .7-.1l.52-.16h.07v1.24zM534.84 134.26h-1.55v-1.43h1.54v1.43zm-.1 9.55h-1.37v-8.17h1.38v8.18zM543.36 143.8h-6.6v-1l4.77-6.02h-4.67v-1.15h6.38v.98l-4.8 6.05h4.92v1.16zm-.83-12.27l-1.67 2.78h-1.66l-1.67-2.77h1.16l1.35 1.88 1.34-1.87h1.13zM191.8 158.37q0 1-.3 1.82-.27.8-.8 1.4-.48.53-1.14.83-.65.3-1.38.3-.64 0-1.16-.15-.5-.14-1.05-.43v3.43h-1.37v-11.2h1.37v.86q.55-.47 1.23-.77.7-.32 1.47-.32 1.48 0 2.3 1.12.83 1.12.83 3.1zm-1.42.04q0-1.47-.5-2.2-.5-.74-1.56-.74-.6 0-1.2.26t-1.15.67v4.63q.6.26 1 .36.43.08.97.08 1.15 0 1.8-.77.64-.77.64-2.3zM200.92 158.47q0 2-1.03 3.16-1.03 1.16-2.76 1.16-1.73 0-2.76-1.17-1.02-1.16-1.02-3.16t1.02-3.15q1.03-1.17 2.76-1.17 1.73 0 2.75 1.17 1.02 1.15 1.02 3.15zm-1.43 0q0-1.6-.63-2.36-.62-.76-1.73-.76-1.12 0-1.74.77-.6.78-.6 2.37 0 1.54.6 2.34.63.8 1.74.8 1.1 0 1.73-.78.62-.8.62-2.35zM208.9 160.2q0 1.12-.93 1.84-.92.72-2.53.72-.9 0-1.67-.2-.75-.23-1.26-.5v-1.54h.08q.65.5 1.45.8.8.27 1.53.27.9 0 1.42-.3.5-.3.5-.92 0-.5-.27-.73-.26-.25-1.05-.43-.3-.07-.77-.15l-.86-.2q-1.08-.28-1.53-.83-.46-.56-.46-1.36 0-.5.2-.95.22-.45.64-.8.4-.35 1.04-.54.64-.22 1.43-.22.73 0 1.47.18.76.18 1.26.44v1.47h-.08q-.52-.4-1.28-.65-.75-.27-1.48-.27-.75 0-1.27.3-.52.27-.52.85 0 .5.3.76.32.25 1 .4l.86.2.8.15q.96.23 1.48.77t.52 1.43zM218.3 162.56h-1.8l-3.3-3.58-.9.85v2.73h-1.36v-11.4h1.37v7.3l4-4.08h1.73l-3.8 3.78 4.07 4.4zM221.15 162.56h-1.38v-11.4h1.38v11.4zM230.18 162.56h-1.37v-.87q-.17.1-.48.34-.3.22-.6.35-.35.16-.8.27-.44.12-1.04.12-1.1 0-1.88-.75-.77-.73-.77-1.86 0-.94.4-1.5.4-.6 1.14-.92.75-.33 1.8-.45 1.04-.12 2.24-.18v-.2q0-.48-.15-.78-.17-.3-.47-.5-.3-.16-.7-.2-.42-.07-.86-.07-.55 0-1.2.14-.68.14-1.4.4h-.06v-1.4q.4-.1 1.16-.23.76-.12 1.5-.12.87 0 1.5.15.65.14 1.12.48.46.35.7.88.24.54.24 1.33v5.56zm-1.37-2v-2.3q-.62.04-1.47.12-.85.07-1.35.2-.6.18-.96.54-.37.35-.37.97 0 .7.43 1.05.42.36 1.3.36.72 0 1.32-.27.6-.3 1.1-.68zm.5-10.28l-2 2.74h-1.08l1.3-2.74h1.8zM239.5 162.56h-1.4v-.86q-.58.52-1.23.8-.64.3-1.4.3-1.46 0-2.33-1.14-.85-1.13-.85-3.13 0-1.04.28-1.85.3-.8.8-1.4.5-.54 1.16-.84.67-.3 1.38-.3.64 0 1.14.15.5.12 1.05.4v-3.54h1.4v11.4zm-1.4-2v-4.7q-.55-.26-1-.35-.43-.1-.95-.1-1.15 0-1.8.82-.64.8-.64 2.28 0 1.46.5 2.22.5.76 1.6.76.6 0 1.2-.26t1.1-.67zM248.55 162.56h-1.37v-.87q-.18.1-.5.34-.3.22-.6.35-.34.16-.8.27-.43.12-1.03.12-1.1 0-1.88-.75-.77-.73-.77-1.86 0-.94.4-1.5.4-.6 1.14-.92.75-.33 1.8-.45 1.04-.12 2.24-.18v-.2q0-.48-.17-.78-.15-.3-.45-.5-.3-.16-.7-.2-.42-.07-.86-.07-.56 0-1.22.14-.67.14-1.38.4h-.07v-1.4q.4-.1 1.16-.23.75-.12 1.5-.12.86 0 1.5.15.64.14 1.1.48.47.35.7.88.25.54.25 1.33v5.56zm-1.37-2v-2.3q-.63.04-1.48.12-.85.07-1.35.2-.6.18-.96.54-.38.35-.38.97 0 .7.43 1.05.42.36 1.3.36.72 0 1.32-.27.6-.3 1.1-.68zM258.06 162.56h-1.38v-4.66q0-.56-.06-1.05-.07-.5-.25-.78-.18-.3-.52-.45-.35-.16-.9-.16-.56 0-1.18.28-.6.28-1.17.7v6.12h-1.38v-8.18h1.38v.9q.64-.53 1.33-.83.7-.3 1.4-.3 1.34 0 2.03.8.7.8.7 2.3v5.3zM267.56 158.6h-6.03q0 .77.23 1.33t.62.92q.38.35.9.52.53.18 1.16.18.83 0 1.68-.33.85-.34 1.2-.66h.08v1.5q-.7.3-1.42.5-.73.2-1.53.2-2.03 0-3.18-1.1-1.14-1.1-1.14-3.14 0-2 1.1-3.2 1.1-1.17 2.88-1.17 1.66 0 2.56.97.9.97.9 2.75v.74zm-1.34-1.04q0-1.1-.55-1.68-.54-.6-1.63-.6-1.1 0-1.77.66-.65.65-.74 1.62h4.7zm.17-7.28l-2 2.74h-1.1l1.3-2.74h1.8zM281.2 162.56h-6.62v-1.02l4.77-6h-4.66v-1.16h6.37v.98l-4.8 6.04h4.92v1.16zM289.9 158.6h-6.03q0 .77.23 1.33t.62.92q.38.35.9.52.53.18 1.16.18.83 0 1.68-.33.85-.34 1.2-.66h.08v1.5q-.7.3-1.42.5-.73.2-1.53.2-2.04 0-3.18-1.1-1.15-1.1-1.15-3.14 0-2 1.1-3.2 1.1-1.17 2.88-1.17 1.66 0 2.55.97.9.97.9 2.75v.74zm-1.34-1.04q0-1.1-.55-1.68-.52-.6-1.62-.6t-1.77.66q-.64.65-.73 1.62h4.7zM303.44 160.2q0 1.12-.93 1.84-.9.72-2.5.72-.92 0-1.68-.2-.76-.23-1.27-.5v-1.54h.07q.66.5 1.45.8.8.27 1.53.27.9 0 1.43-.3.5-.3.5-.92 0-.5-.27-.73-.28-.25-1.07-.43-.3-.07-.78-.15l-.86-.2q-1.07-.28-1.53-.83-.44-.56-.44-1.36 0-.5.2-.95.2-.45.63-.8.4-.35 1.04-.54.64-.22 1.42-.22.72 0 1.47.18t1.25.44v1.47h-.07q-.53-.4-1.28-.65-.76-.27-1.48-.27-.77 0-1.3.3-.5.27-.5.85 0 .5.3.76.32.25 1 .4l.85.2.8.15q.95.23 1.47.77t.52 1.43zM312.62 158.37q0 1-.28 1.82-.3.8-.8 1.4-.5.53-1.15.83-.66.3-1.4.3-.63 0-1.15-.15-.52-.14-1.05-.43v3.43h-1.38v-11.2h1.38v.86q.55-.47 1.23-.77.7-.32 1.46-.32 1.47 0 2.3 1.12.82 1.12.82 3.1zm-1.42.04q0-1.47-.5-2.2-.5-.74-1.56-.74-.6 0-1.2.26t-1.14.67v4.63q.58.26 1 .36.43.08.96.08 1.15 0 1.8-.77.64-.77.64-2.3zM321.74 158.47q0 2-1.03 3.16-1 1.16-2.73 1.16-1.74 0-2.76-1.17-1-1.16-1-3.16t1-3.15q1.03-1.17 2.77-1.17 1.72 0 2.74 1.17 1.04 1.15 1.04 3.15zm-1.42 0q0-1.6-.62-2.36-.63-.76-1.73-.76-1.12 0-1.75.77-.6.78-.6 2.37 0 1.54.6 2.34.63.8 1.75.8 1.1 0 1.72-.78.62-.8.62-2.35zM330.66 162.56h-1.38v-.9q-.7.54-1.33.83-.64.3-1.4.3-1.3 0-2-.8-.73-.8-.73-2.3v-5.32h1.38v4.66q0 .62.06 1.07.05.45.24.76.2.32.52.47.3.15.9.15.55 0 1.18-.28.63-.28 1.18-.7v-6.12h1.38v8.18zM339.22 160.2q0 1.12-.93 1.84-.94.72-2.54.72-.9 0-1.67-.2-.77-.23-1.28-.5v-1.54h.07q.65.5 1.45.8.8.27 1.53.27.9 0 1.42-.3.5-.3.5-.92 0-.5-.27-.73-.28-.25-1.07-.43-.3-.07-.77-.15-.48-.1-.86-.2-1.08-.28-1.53-.83-.44-.56-.44-1.36 0-.5.2-.95.22-.45.64-.8.4-.35 1.04-.54.64-.22 1.42-.22.73 0 1.48.18.76.18 1.25.44v1.47h-.08q-.53-.4-1.28-.65-.76-.27-1.48-.27-.76 0-1.28.3-.52.27-.52.85 0 .5.32.76.3.25 1 .4.38.1.85.2l.8.15q.95.23 1.47.77t.52 1.43zM345.44 162.5q-.4.1-.85.16-.46.06-.82.06-1.25 0-1.9-.67-.66-.68-.66-2.16v-4.36h-.93v-1.16h.92v-2.35h1.38v2.35h2.84v1.16h-2.84v3.72q0 .65.03 1 .03.37.2.7.16.28.44.42.3.13.87.13.33 0 .7-.08.37-.1.53-.17h.07v1.24zM354.13 154.38l-4.78 11.2h-1.47l1.52-3.42-3.26-7.78h1.5l2.5 6.06 2.54-6.06h1.45zM368.97 162.56h-1.82l-3.28-3.58-.9.85v2.73h-1.37v-11.4h1.38v7.3l3.97-4.08h1.74l-3.8 3.78 4.07 4.4zM375.52 155.88h-.07q-.3-.07-.6-.1-.3-.04-.68-.04-.64 0-1.23.3-.6.27-1.14.7v5.82h-1.38v-8.18h1.38v1.2q.82-.65 1.44-.92.63-.28 1.28-.28.36 0 .52.02l.48.07v1.4zM382.93 162.56h-1.37v-.87q-.18.1-.5.34-.3.22-.6.35-.34.16-.8.27-.44.12-1.04.12-1.1 0-1.87-.75-.77-.73-.77-1.86 0-.94.4-1.5.4-.6 1.14-.92.74-.33 1.8-.45 1.04-.12 2.24-.18v-.2q0-.48-.17-.78-.17-.3-.48-.5-.3-.16-.7-.2-.4-.07-.86-.07-.54 0-1.2.14-.67.14-1.38.4h-.08v-1.4q.4-.1 1.17-.23.76-.12 1.5-.12.86 0 1.5.15.65.14 1.1.48.48.35.72.88.23.54.23 1.33v5.56zm-1.37-2v-2.3q-.63.04-1.5.12-.84.07-1.34.2-.6.18-.95.54-.37.35-.37.97 0 .7.42 1.05.43.36 1.3.36.73 0 1.33-.27.6-.3 1.1-.68zM392.8 158.4q0 1.03-.3 1.85-.28.82-.78 1.38-.52.58-1.14.87-.62.3-1.37.3-.68 0-1.2-.18-.52-.16-1.03-.44l-.1.38h-1.28v-11.4h1.37v4.08q.58-.48 1.23-.78.65-.3 1.47-.3 1.45 0 2.28 1.1.84 1.12.84 3.15zm-1.43.04q0-1.46-.48-2.22-.5-.76-1.57-.76-.6 0-1.22.27-.6.25-1.13.66v4.68q.6.26 1 .37.43.1.96.1 1.15 0 1.8-.75.64-.75.64-2.36zM396.42 153h-1.55v-1.42h1.55V153zm-.1 9.56h-1.37v-8.18h1.38v8.18zM405.06 162.05q-.7.33-1.3.5-.62.2-1.32.2-.9 0-1.63-.26-.73-.28-1.25-.8-.54-.53-.83-1.34-.3-.8-.3-1.88 0-2 1.1-3.15 1.1-1.14 2.92-1.14.7 0 1.38.2.68.18 1.24.47v1.53H405q-.64-.5-1.3-.75-.68-.27-1.32-.27-1.17 0-1.85.8-.68.78-.68 2.3 0 1.48.66 2.28.68.8 1.88.8.42 0 .85-.12.43-.1.78-.3.3-.14.57-.3.27-.18.42-.3h.06v1.5zM409.7 160.47l-2.07 4.8h-1.07l1.27-4.8h1.86zM425.32 162.56h-1.8l-3.3-3.58-.9.85v2.73h-1.37v-11.4h1.38v7.3l3.98-4.08h1.74l-3.8 3.78 4.08 4.4zM431.02 162.5q-.4.1-.85.16-.45.06-.8.06-1.26 0-1.92-.67-.65-.68-.65-2.16v-4.36h-.93v-1.16h.93v-2.35h1.38v2.35h2.84v1.16h-2.84v3.72q0 .65.03 1 .04.37.2.7.18.28.45.42.3.13.87.13.33 0 .7-.08.37-.1.53-.17h.07v1.24zM439.54 158.6h-6.03q0 .77.24 1.33.23.56.62.92.38.35.9.52.53.18 1.16.18.83 0 1.68-.33.85-.34 1.2-.66h.08v1.5q-.7.3-1.42.5-.73.2-1.53.2-2.03 0-3.17-1.1-1.15-1.1-1.15-3.14 0-2 1.1-3.2 1.1-1.17 2.9-1.17 1.64 0 2.54.97.9.97.9 2.75v.74zm-1.34-1.04q0-1.1-.55-1.68-.53-.6-1.63-.6-1.1 0-1.77.66-.65.65-.74 1.62h4.7zM446.73 155.88h-.07q-.3-.07-.6-.1-.3-.04-.68-.04-.64 0-1.23.3-.6.27-1.15.7v5.82h-1.37v-8.18H443v1.2q.82-.65 1.45-.92.63-.28 1.28-.28.36 0 .52.02l.48.07v1.4zM454.9 158.6h-6.04q0 .77.23 1.33.22.56.6.92.4.35.9.52.54.18 1.17.18.84 0 1.68-.33.85-.34 1.2-.66h.08v1.5q-.7.3-1.42.5t-1.5.2q-2.05 0-3.2-1.1-1.14-1.1-1.14-3.14 0-2 1.1-3.2 1.1-1.17 2.88-1.17 1.66 0 2.55.97.9.97.9 2.75v.74zm-1.35-1.04q0-1.1-.55-1.68-.53-.6-1.63-.6-1.1 0-1.77.66-.65.65-.74 1.62h4.7zm.17-7.28l-2 2.74h-1.1l1.32-2.74h1.78zM465.14 153h-1.55v-1.42h1.54V153zm-.1 9.76q0 1.43-.72 2.17-.73.73-1.96.73-.3 0-.78-.06-.48-.06-.8-.15v-1.3h.07l.55.18q.36.1.7.1.5 0 .83-.15.33-.15.5-.44.15-.3.2-.7.04-.42.04-1v-6.6h-1.7v-1.16h3.08v8.38zM473.6 160.2q0 1.12-.94 1.84-.92.72-2.53.72-.9 0-1.67-.2-.75-.23-1.26-.5v-1.54h.07q.65.5 1.45.8.8.27 1.53.27.9 0 1.42-.3.52-.3.52-.92 0-.5-.3-.73-.27-.25-1.06-.43-.3-.07-.77-.15l-.86-.2q-1.06-.28-1.52-.83-.45-.56-.45-1.36 0-.5.2-.95.22-.45.65-.8.4-.35 1.04-.54.63-.22 1.42-.22.73 0 1.48.18t1.25.44v1.47h-.07q-.53-.4-1.3-.65-.74-.27-1.46-.27-.76 0-1.28.3-.52.27-.52.85 0 .5.32.76.3.25 1 .4.37.1.84.2l.8.15q.95.23 1.47.77t.52 1.43zM482.54 158.47q0 2-1.02 3.16-1.03 1.16-2.75 1.16-1.74 0-2.76-1.17-1-1.16-1-3.16t1-3.15q1.03-1.17 2.77-1.17 1.72 0 2.75 1.17 1.02 1.15 1.02 3.15zm-1.42 0q0-1.6-.62-2.36-.62-.76-1.73-.76-1.12 0-1.74.77-.62.78-.62 2.37 0 1.54.63 2.34.63.8 1.74.8 1.1 0 1.72-.78.62-.8.62-2.35zM491.46 162.56h-1.37v-.9q-.7.54-1.35.83-.63.3-1.4.3-1.3 0-2-.8-.73-.8-.73-2.3v-5.32H486v4.66q0 .62.06 1.07.06.45.25.76.2.32.52.47.3.15.9.15.55 0 1.18-.28.64-.28 1.2-.7v-6.12h1.36v8.18zM506.63 162.56h-1.38v-4.66q0-.56-.07-1.05-.06-.5-.24-.78-.18-.3-.53-.45-.33-.16-.88-.16-.56 0-1.18.28-.6.28-1.18.7v6.12h-1.37v-8.18h1.36v.9q.65-.53 1.34-.83.68-.3 1.4-.3 1.33 0 2.03.8.7.8.7 2.3v5.3zM516.13 158.6h-6.03q0 .77.22 1.33.23.56.63.92.38.35.9.52.53.18 1.16.18.84 0 1.68-.33.85-.34 1.2-.66h.08v1.5q-.7.3-1.42.5t-1.52.2q-2.04 0-3.18-1.1-1.14-1.1-1.14-3.14 0-2 1.1-3.2 1.1-1.17 2.88-1.17 1.65 0 2.54.97.9.97.9 2.75v.74zm-1.34-1.04q-.02-1.1-.56-1.68-.54-.6-1.64-.6-1.1 0-1.76.66-.65.65-.74 1.62h4.7zm.34-7.28l-1.67 2.78h-1.66l-1.66-2.78h1.17l1.36 1.88 1.35-1.88h1.14zM525.64 162.56h-1.82l-3.28-3.58-.9.85v2.73h-1.37v-11.4h1.38v7.3l3.98-4.08h1.73l-3.8 3.78 4.08 4.4zM533.73 162.56h-1.38v-.86q-.6.52-1.24.8-.63.3-1.4.3-1.45 0-2.32-1.14-.85-1.13-.85-3.13 0-1.04.3-1.85.3-.8.8-1.4.5-.54 1.15-.84.67-.3 1.38-.3.64 0 1.14.15.5.12 1.05.4v-3.54h1.38v11.4zm-1.38-2v-4.7q-.56-.26-1-.35-.44-.1-.96-.1-1.16 0-1.8.82-.65.8-.65 2.28 0 1.46.5 2.22.5.76 1.6.76.58 0 1.18-.26t1.12-.67zM543.5 154.38l-4.76 11.2h-1.48l1.53-3.42-3.27-7.78h1.5l2.5 6.06 2.54-6.06h1.44zM191.67 173.13l-3.3 8.18h-1.4l-3.28-8.17h1.48l2.54 6.5 2.5-6.5h1.45zM200.2 177.36h-6.02q0 .76.22 1.32.23.56.63.92.38.35.9.52.53.18 1.16.18.82 0 1.66-.33.85-.34 1.2-.66h.08v1.5q-.7.3-1.42.5t-1.52.2q-2.04 0-3.18-1.1-1.14-1.1-1.14-3.13 0-2 1.1-3.2 1.1-1.17 2.88-1.17 1.65 0 2.54.97.9.97.9 2.75v.74zm-1.33-1.05q0-1.08-.55-1.67-.54-.6-1.64-.6-1.1 0-1.76.66-.65.64-.74 1.6h4.7zM208.93 181.3h-1.38v-.85q-.6.52-1.24.8-.63.3-1.4.3-1.45 0-2.3-1.14-.87-1.12-.87-3.12 0-1.04.3-1.85.3-.8.8-1.4.5-.54 1.15-.84.67-.3 1.38-.3.65 0 1.14.14.5.13 1.05.42v-3.55h1.38v11.4zm-1.38-2v-4.7q-.56-.25-1-.34-.43-.1-.95-.1-1.16 0-1.8.8-.65.8-.65 2.3 0 1.45.5 2.2.5.77 1.6.77.58 0 1.18-.26t1.12-.67zM213.03 181.3h-1.38v-11.4h1.38v11.4zM222.56 177.36h-6.03q0 .76.23 1.32t.62.92q.38.35.9.52.53.18 1.16.18.83 0 1.68-.33.85-.34 1.2-.66h.08v1.5q-.7.3-1.42.5-.73.2-1.53.2-2.03 0-3.18-1.1-1.14-1.1-1.14-3.13 0-2 1.1-3.2 1.1-1.17 2.88-1.17 1.66 0 2.56.97.9.97.9 2.75v.74zm-1.34-1.05q0-1.08-.55-1.67-.54-.6-1.63-.6-1.1 0-1.77.66-.65.64-.74 1.6h4.7zM239.07 178.95q0 1.12-.93 1.84-.92.7-2.52.7-.9 0-1.67-.2-.76-.22-1.27-.48v-1.55h.07q.65.5 1.45.8.8.27 1.53.27.9 0 1.42-.3.52-.28.52-.9 0-.5-.28-.74-.3-.25-1.08-.43-.3-.07-.77-.15l-.86-.2q-1.08-.28-1.54-.83-.44-.57-.44-1.37 0-.5.2-.95.2-.45.64-.8.4-.35 1.04-.54.64-.2 1.42-.2.73 0 1.48.17.75.2 1.25.45v1.47h-.07q-.53-.4-1.28-.65-.76-.27-1.48-.27-.76 0-1.28.3-.52.27-.52.85 0 .5.32.76.3.26 1 .42.37.1.84.18l.8.16q.95.22 1.47.76t.52 1.43zM247.9 177.36h-6.03q0 .76.23 1.32t.62.92q.38.35.9.52.53.18 1.16.18.83 0 1.68-.33.85-.34 1.2-.66h.08v1.5q-.7.3-1.42.5-.73.2-1.53.2-2.04 0-3.2-1.1-1.13-1.1-1.13-3.13 0-2 1.1-3.2 1.1-1.17 2.88-1.17 1.65 0 2.55.97.9.97.9 2.75v.74zm-1.34-1.05q0-1.08-.55-1.67-.53-.6-1.62-.6-1.1 0-1.77.66-.64.64-.73 1.6h4.7zM257.2 177.16q0 1.02-.3 1.84-.3.82-.78 1.38-.52.58-1.15.87-.62.3-1.37.3-.7 0-1.2-.18-.53-.16-1.04-.44l-.08.38h-1.3v-11.4h1.38v4.1q.58-.5 1.23-.8.65-.3 1.46-.3 1.45 0 2.28 1.12.85 1.1.85 3.14zm-1.43.03q0-1.47-.5-2.23-.47-.76-1.55-.76-.6 0-1.2.28-.63.25-1.16.66v4.7q.6.25 1 .36.43.1.97.1 1.14 0 1.78-.75.67-.75.67-2.36zM266.18 177.36h-6.03q0 .76.23 1.32t.62.92q.38.35.9.52.53.18 1.16.18.83 0 1.68-.33.85-.34 1.2-.66h.08v1.5q-.7.3-1.42.5-.73.2-1.53.2-2.03 0-3.17-1.1-1.15-1.1-1.15-3.13 0-2 1.1-3.2 1.1-1.17 2.88-1.17 1.66 0 2.55.97.9.97.9 2.75v.74zm-1.34-1.05q0-1.08-.55-1.67-.54-.6-1.64-.6-1.1 0-1.77.66-.66.64-.75 1.6h4.7zM283.2 181.3h-1.36v-.86q-.2.12-.5.35-.3.2-.6.34-.35.17-.8.28-.44.12-1.04.12-1.1 0-1.87-.74-.77-.73-.77-1.86 0-.93.4-1.5.4-.58 1.13-.9.74-.34 1.8-.46 1.04-.12 2.24-.18v-.2q0-.48-.17-.78-.16-.3-.47-.5-.3-.16-.7-.2-.4-.07-.86-.07-.54 0-1.2.14-.67.13-1.4.4H277v-1.4q.4-.1 1.17-.24.76-.13 1.5-.13.86 0 1.5.15.64.14 1.1.48.47.34.72.87.24.54.24 1.33v5.55zm-1.36-2v-2.28q-.63.03-1.5.1-.84.08-1.34.22-.6.17-.96.53-.36.35-.36.97 0 .7.42 1.06.43.36 1.3.36.72 0 1.32-.28.6-.3 1.12-.68zM301.3 181.3h-1.38v-4.65q0-.56-.07-1.05-.06-.5-.24-.78-.17-.3-.52-.45-.34-.16-.9-.16-.55 0-1.17.3-.6.27-1.17.7v6.1h-1.38v-8.17h1.38v.9q.65-.53 1.33-.83.7-.3 1.42-.3 1.32 0 2.02.8t.7 2.3v5.3zM310.8 177.36h-6.03q0 .76.22 1.32t.62.92q.38.35.9.52.53.18 1.16.18.83 0 1.67-.33.85-.34 1.2-.66h.08v1.5q-.7.3-1.42.5-.7.2-1.5.2-2.05 0-3.2-1.1-1.13-1.1-1.13-3.13 0-2 1.1-3.2 1.1-1.17 2.88-1.17 1.65 0 2.54.97.9.97.9 2.75v.74zm-1.35-1.05q0-1.08-.54-1.67-.53-.6-1.63-.6-1.1 0-1.76.66-.64.64-.73 1.6h4.68zm.36-7.27l-1.66 2.78h-1.66l-1.67-2.77H306l1.35 1.88 1.35-1.87h1.13zM320.3 181.3h-1.8l-3.3-3.57-.88.85v2.73h-1.38v-11.4h1.38v7.32l3.98-4.1h1.73l-3.8 3.8 4.08 4.4zM328.4 181.3h-1.38v-.85q-.6.52-1.24.8-.64.3-1.4.3-1.46 0-2.33-1.14-.85-1.12-.85-3.12 0-1.04.3-1.85.3-.8.8-1.4.5-.54 1.15-.84.67-.3 1.38-.3.64 0 1.14.14.5.13 1.05.42v-3.55h1.38v11.4zm-1.38-2v-4.7q-.56-.25-1-.34-.44-.1-.96-.1-1.15 0-1.8.8-.64.8-.64 2.3 0 1.45.5 2.2.5.77 1.6.77.58 0 1.18-.26t1.12-.67zM338.18 173.13l-4.77 11.2h-1.47l1.53-3.42-3.26-7.77h1.5l2.5 6.06 2.54-6.07h1.44zM354.5 181.3h-6.6v-1l4.76-6.02H348v-1.15h6.37v.98l-4.8 6.05h4.93v1.16zM362.8 181.3h-1.37v-.86l-.5.35q-.3.2-.6.34-.34.17-.8.28-.43.12-1.03.12-1.1 0-1.88-.74-.77-.73-.77-1.86 0-.93.4-1.5.4-.58 1.14-.9.74-.34 1.78-.46 1.05-.12 2.25-.18v-.2q0-.48-.17-.78-.16-.3-.46-.5-.3-.16-.7-.2-.42-.07-.86-.07-.55 0-1.2.14-.68.13-1.4.4h-.06v-1.4q.4-.1 1.16-.24.76-.13 1.5-.13.87 0 1.5.15.65.14 1.12.48.46.34.7.87.24.54.24 1.33v5.55zm-1.37-2v-2.28q-.63.03-1.48.1-.85.08-1.35.22-.6.17-.96.53-.37.35-.37.97 0 .7.43 1.06.42.36 1.3.36.72 0 1.32-.28.6-.3 1.1-.68zM371.3 178.95q0 1.12-.92 1.84-.92.7-2.52.7-.9 0-1.67-.2-.77-.22-1.28-.48v-1.55h.07q.64.5 1.44.8.8.27 1.53.27.9 0 1.42-.3.5-.28.5-.9 0-.5-.27-.74-.28-.25-1.07-.43-.3-.07-.77-.15-.48-.1-.87-.2-1.07-.28-1.53-.83-.44-.57-.44-1.37 0-.5.2-.95.2-.45.64-.8.4-.35 1.04-.54.64-.2 1.42-.2.73 0 1.48.17.75.2 1.25.45v1.47h-.08q-.53-.4-1.28-.65-.76-.27-1.48-.27-.76 0-1.28.3-.52.27-.52.85 0 .5.32.76.3.26 1 .42.37.1.84.18l.8.16q.95.22 1.47.76.5.54.5 1.43zM380.14 177.36h-6.03q0 .76.24 1.32.23.56.62.92.38.35.9.52.53.18 1.16.18.83 0 1.68-.33.85-.34 1.2-.66h.08v1.5q-.7.3-1.42.5-.73.2-1.53.2-2.03 0-3.18-1.1-1.14-1.1-1.14-3.13 0-2 1.1-3.2 1.1-1.17 2.9-1.17 1.64 0 2.54.97.9.97.9 2.75v.74zm-1.34-1.05q0-1.08-.55-1.67-.54-.6-1.63-.6-1.1 0-1.77.66-.65.64-.74 1.6h4.7zM397.88 173.13l-3.3 8.18h-1.4l-3.28-8.17h1.5l2.53 6.5 2.5-6.5h1.45zM414.1 178.95q0 1.12-.92 1.84-.92.7-2.52.7-.9 0-1.67-.2-.77-.22-1.28-.48v-1.55h.07q.64.5 1.44.8.8.27 1.53.27.9 0 1.42-.3.5-.28.5-.9 0-.5-.27-.74-.28-.25-1.07-.43-.3-.07-.77-.15-.48-.1-.87-.2-1.07-.28-1.53-.83-.45-.57-.45-1.37 0-.5.2-.95.22-.45.65-.8.4-.35 1.04-.54.63-.2 1.42-.2.73 0 1.48.17.75.2 1.25.45v1.47h-.08q-.53-.4-1.3-.65-.74-.27-1.46-.27-.76 0-1.28.3-.52.27-.52.85 0 .5.32.76.3.26 1 .42.37.1.84.18l.8.16q.95.22 1.47.76.5.54.5 1.43zM423.06 177.22q0 2-1.02 3.16-1.03 1.16-2.75 1.16-1.75 0-2.77-1.16t-1.02-3.16q0-2 1.03-3.15 1.02-1.17 2.76-1.17 1.7 0 2.74 1.17 1.02 1.15 1.02 3.15zm-1.42 0q0-1.6-.62-2.36-.62-.77-1.73-.77-1.13 0-1.75.76-.62.77-.62 2.36 0 1.54.62 2.34.63.8 1.74.8 1.1 0 1.7-.8.64-.78.64-2.34zM432.4 177.16q0 1.02-.3 1.84-.28.82-.77 1.38-.52.58-1.14.87-.63.3-1.38.3-.7 0-1.22-.18-.52-.16-1.02-.44l-.1.38h-1.28v-11.4h1.38v4.1q.58-.5 1.23-.8.66-.3 1.47-.3 1.45 0 2.3 1.12.83 1.1.83 3.14zm-1.42.03q0-1.47-.48-2.23-.5-.76-1.56-.76-.6 0-1.22.28-.6.25-1.14.66v4.7q.58.25 1 .36.43.1.96.1 1.14 0 1.8-.75.64-.75.64-2.36zM441.4 177.36h-6.03q0 .76.22 1.32t.62.92q.38.35.9.52.52.18 1.15.18.84 0 1.68-.33.85-.34 1.2-.66h.08v1.5q-.7.3-1.42.5-.7.2-1.5.2-2.05 0-3.2-1.1-1.13-1.1-1.13-3.13 0-2 1.1-3.2 1.1-1.17 2.88-1.17 1.65 0 2.54.97.9.97.9 2.75v.74zm-1.35-1.05q0-1.08-.54-1.67-.53-.6-1.63-.6-1.1 0-1.76.66-.65.64-.73 1.6h4.68zm.36-7.27l-1.66 2.78h-1.66l-1.67-2.77h1.18l1.35 1.88 1.35-1.87h1.13zM458.42 181.3h-1.37v-.86l-.5.35q-.3.2-.6.34-.34.17-.8.28-.43.12-1.03.12-1.1 0-1.88-.74-.77-.73-.77-1.86 0-.93.4-1.5.4-.58 1.14-.9.76-.34 1.8-.46 1.05-.12 2.25-.18v-.2q0-.48-.17-.78-.16-.3-.47-.5-.28-.16-.7-.2-.4-.07-.85-.07-.54 0-1.2.14-.67.13-1.38.4h-.07v-1.4q.4-.1 1.16-.24.76-.13 1.5-.13.87 0 1.5.15.65.14 1.12.48.46.34.7.87.24.54.24 1.33v5.55zm-1.37-2v-2.28q-.63.03-1.48.1-.85.08-1.35.22-.6.17-.96.53-.37.35-.37.97 0 .7.42 1.06.42.36 1.3.36.72 0 1.32-.28.6-.3 1.1-.68zM473.92 181.24q-.4.1-.85.17-.46.07-.8.07-1.27 0-1.92-.67-.65-.68-.65-2.16v-4.35h-.93v-1.17h.93v-2.35h1.38v2.35h2.84v1.16h-2.84v3.7q0 .66.03 1.02t.2.68q.17.3.45.43.3.13.86.13.35 0 .72-.1.36-.1.52-.16h.08v1.24zM481.95 181.3h-1.37v-.86q-.2.12-.5.35-.3.2-.6.34-.35.17-.8.28-.44.12-1.04.12-1.1 0-1.88-.74-.77-.73-.77-1.86 0-.93.4-1.5.4-.58 1.13-.9.75-.34 1.8-.46 1.04-.12 2.25-.18v-.2q0-.48-.17-.78-.15-.3-.46-.5-.3-.16-.7-.2-.4-.07-.86-.07-.54 0-1.2.14-.68.13-1.4.4h-.06v-1.4q.4-.1 1.16-.24.77-.13 1.5-.13.87 0 1.5.15.65.14 1.12.48.46.34.7.87.25.54.25 1.33v5.55zm-1.37-2v-2.28q-.63.03-1.5.1-.84.08-1.34.22-.6.17-.96.53-.36.35-.36.97 0 .7.42 1.06.43.36 1.3.36.72 0 1.32-.28.6-.3 1.12-.68zM492.04 181.3h-1.82l-3.28-3.57-.9.85v2.73h-1.37v-11.4h1.38v7.32l3.97-4.1h1.74l-3.8 3.8 4.08 4.4zM509.27 177.12q0 1-.3 1.82-.27.82-.8 1.4-.47.54-1.13.84-.66.3-1.4.3-.63 0-1.15-.15-.52-.14-1.05-.43v3.43h-1.38v-11.2h1.38v.86q.55-.48 1.23-.78.7-.32 1.46-.32 1.48 0 2.3 1.12.83 1.12.83 3.1zm-1.42.04q0-1.48-.5-2.2-.5-.75-1.56-.75-.6 0-1.2.27-.6.26-1.15.67v4.64q.58.26 1 .36.43.1.96.1 1.16 0 1.8-.78.65-.78.65-2.3zM518.4 177.22q0 2-1.04 3.16-1.02 1.16-2.74 1.16-1.74 0-2.76-1.16-1.02-1.16-1.02-3.16t1.02-3.15q1.02-1.17 2.76-1.17 1.72 0 2.74 1.17 1.03 1.15 1.03 3.15zm-1.43 0q0-1.6-.62-2.36-.63-.77-1.73-.77-1.12 0-1.75.76-.6.77-.6 2.36 0 1.54.6 2.34.63.8 1.75.8 1.1 0 1.72-.8.63-.78.63-2.34zM525.63 174.63h-.07q-.3-.07-.6-.1-.3-.04-.68-.04-.64 0-1.23.28-.6.28-1.15.72v5.8h-1.37v-8.17h1.37v1.2q.82-.65 1.45-.92t1.28-.27q.36 0 .52.02l.48.07v1.4zm-.4-5.6l-1.66 2.78h-1.66l-1.66-2.77h1.17l1.36 1.88 1.35-1.87h1.14zM533.3 181.3h-1.37v-.86l-.5.35q-.3.2-.6.34-.34.17-.8.28-.44.12-1.04.12-1.1 0-1.88-.74-.77-.73-.77-1.86 0-.93.4-1.5.4-.58 1.14-.9.74-.34 1.78-.46 1.05-.12 2.25-.18v-.2q0-.48-.17-.78-.16-.3-.47-.5-.3-.16-.7-.2-.42-.07-.87-.07-.54 0-1.2.14-.67.13-1.38.4h-.07v-1.4q.4-.1 1.16-.24.76-.13 1.5-.13.87 0 1.5.15.65.14 1.12.48.46.34.7.87.24.54.24 1.33v5.55zm-1.37-2v-2.28q-.63.03-1.5.1-.84.08-1.33.22-.6.17-.96.53-.37.35-.37.97 0 .7.43 1.06.42.36 1.3.36.72 0 1.32-.28.6-.3 1.1-.68zm.5-10.27l-2 2.74h-1.1l1.32-2.74h1.78zM542.6 181.3h-1.37v-.85q-.6.52-1.24.8-.66.3-1.4.3-1.48 0-2.34-1.14-.86-1.12-.86-3.12 0-1.04.3-1.85.3-.8.8-1.4.5-.54 1.16-.84.67-.3 1.38-.3.64 0 1.14.14.5.13 1.05.42v-3.55h1.37v11.4zm-1.37-2v-4.7q-.56-.25-1-.34-.44-.1-.96-.1-1.16 0-1.8.8-.65.8-.65 2.3 0 1.45.5 2.2.5.77 1.6.77.58 0 1.18-.26t1.13-.67zM191.23 200.06h-1.37v-.86q-.6.52-1.24.8-.65.3-1.4.3-1.47 0-2.33-1.14-.87-1.13-.87-3.13 0-1.04.3-1.85.3-.8.8-1.4.5-.54 1.16-.84.66-.3 1.37-.3.64 0 1.14.15.5.12 1.06.4v-3.54h1.37v11.4zm-1.37-2v-4.7q-.56-.26-1-.35-.44-.1-.96-.1-1.16 0-1.8.82-.65.8-.65 2.28 0 1.46.5 2.22.5.76 1.6.76.6 0 1.2-.26t1.1-.67zM200.92 195.97q0 2-1.03 3.16-1.03 1.16-2.76 1.16-1.73 0-2.76-1.17-1.02-1.16-1.02-3.16t1.02-3.15q1.03-1.17 2.76-1.17 1.73 0 2.75 1.17 1.02 1.15 1.02 3.15zm-1.43 0q0-1.6-.63-2.36-.62-.76-1.73-.76-1.12 0-1.74.77-.6.78-.6 2.37 0 1.54.6 2.34.63.8 1.74.8 1.1 0 1.73-.78.62-.8.62-2.35zM210.48 200.06h-1.82l-3.28-3.58-.9.85v2.73h-1.37v-11.4h1.4v7.3l3.97-4.08h1.73l-3.8 3.78 4.08 4.4zM218.76 195.97q0 2-1.03 3.16-1.02 1.16-2.74 1.16-1.75 0-2.78-1.17-1-1.16-1-3.16t1-3.15q1.03-1.17 2.77-1.17 1.7 0 2.73 1.17 1.03 1.15 1.03 3.15zm-1.42 0q0-1.6-.63-2.36-.6-.76-1.7-.76-1.13 0-1.76.77-.6.78-.6 2.37 0 1.54.6 2.34.63.8 1.75.8 1.08 0 1.7-.78.64-.8.64-2.35zM222.3 200.06h-1.4v-11.4h1.4v11.4zM231.33 200.06h-1.37v-.87q-.2.1-.5.34-.3.22-.6.35-.35.16-.8.27-.44.12-1.04.12-1.1 0-1.88-.75-.76-.73-.76-1.86 0-.94.4-1.5.4-.6 1.13-.92.76-.33 1.8-.45 1.06-.12 2.26-.18v-.2q0-.48-.17-.78-.17-.3-.48-.5-.3-.16-.7-.2-.4-.07-.86-.07-.54 0-1.2.14-.68.14-1.4.4h-.06v-1.4q.4-.1 1.17-.23.76-.12 1.5-.12.86 0 1.5.15.64.14 1.1.48.47.35.7.88.26.54.26 1.33v5.56zm-1.37-2v-2.3q-.63.04-1.5.12-.84.07-1.34.2-.6.18-.96.54-.36.35-.36.97 0 .7.42 1.05.43.36 1.3.36.72 0 1.32-.27.6-.3 1.12-.68zM236.24 200.06h-1.75v-2.1h1.74v2.1z" style="line-height:125%;-inkscape-font-specification:'sans-serif, Normal';text-align:justify"/>
  </g>
  <text x="530.75" y="535.37" fill="#00f" style="line-height:125%;-inkscape-font-specification:'sans-serif, Normal';text-align:center" font-size="25" font-family="sans-serif" letter-spacing="0" word-spacing="0" text-anchor="middle" transform="translate(-166.413 -488.605)">
    <tspan x="530.75" y="535.37">margin</tspan>
  </text>
  <text x="821.14" y="381.93" style="line-height:125%" font-size="40" font-family="sans-serif" letter-spacing="0" word-spacing="0" transform="translate(-166.413 -488.605)"/>
  <path fill="#fff" fill-rule="evenodd" stroke="#000" stroke-width="17.6" d="M-394.3 66h446v181.08h-446z"/>
  <path fill="none" d="M-351.64 110.84H9.04v91.4h-360.68z"/>
  <g style="line-height:125%;-inkscape-font-specification:'sans-serif, Normal';text-align:justify" font-size="15" font-family="sans-serif" letter-spacing="0" word-spacing="0">
    <path d="M-342.2 115.44h-3.9v9.62h-1.44v-9.62h-3.9v-1.3h9.25v1.3zM-336.22 125.06h-1.37v-.87q-.17.1-.5.34-.3.22-.6.35-.33.16-.78.27-.45.12-1.05.12-1.1 0-1.87-.75-.77-.73-.77-1.86 0-.94.4-1.5.4-.6 1.14-.92.74-.33 1.8-.45 1.04-.12 2.24-.18v-.2q0-.48-.16-.78-.16-.3-.47-.5-.3-.16-.7-.2-.4-.07-.86-.07-.53 0-1.2.14-.66.14-1.37.4h-.08v-1.4q.4-.1 1.17-.23.76-.12 1.5-.12.86 0 1.5.15.65.14 1.1.48.48.35.72.88.24.54.24 1.33v5.56zm-1.37-2v-2.3q-.62.04-1.48.12-.85.07-1.35.2-.6.18-.95.54-.37.35-.37.97 0 .7.42 1.05.43.36 1.3.36.73 0 1.33-.27.6-.3 1.1-.68zM-326.92 125.06h-1.38v-.86q-.6.52-1.23.8-.65.3-1.4.3-1.47 0-2.33-1.14-.86-1.13-.86-3.13 0-1.04.3-1.85.3-.8.8-1.4.5-.54 1.16-.84.66-.3 1.37-.3.66 0 1.16.15.5.12 1.04.4v-3.54h1.38v11.4zm-1.38-2v-4.7q-.55-.26-1-.35-.43-.1-.95-.1-1.16 0-1.8.82-.65.8-.65 2.28 0 1.46.5 2.22.5.76 1.6.76.58 0 1.18-.26t1.12-.67zM-317.13 116.88l-4.78 11.2h-1.48l1.52-3.42-3.26-7.78h1.5l2.5 6.06 2.54-6.06h1.45zM-302.3 115.5h-1.54v-1.42h1.55v1.43zm-.07 9.76q0 1.43-.74 2.17-.74.73-1.97.73-.3 0-.77-.06-.48-.06-.8-.15v-1.3h.07l.55.18q.35.1.68.1.53 0 .85-.15.33-.15.5-.44.15-.3.2-.7.05-.42.05-1v-6.6h-1.7v-1.16h3.08v8.38zM-292.83 121.1h-6.03q0 .77.23 1.33t.62.92q.37.35.9.52.52.18 1.15.18.84 0 1.68-.33.85-.34 1.2-.66h.08v1.5q-.7.3-1.4.5-.74.2-1.54.2-2.03 0-3.17-1.1-1.16-1.1-1.16-3.14 0-2 1.1-3.2 1.1-1.17 2.88-1.17 1.66 0 2.55.97.9.97.9 2.75v.74zm-1.34-1.04q0-1.1-.55-1.68-.53-.6-1.63-.6-1.1 0-1.77.66-.65.65-.74 1.62h4.7zM-273.27 120.97q0 2-1.03 3.16-1.02 1.16-2.74 1.16-1.74 0-2.76-1.17-1.02-1.16-1.02-3.16t1.02-3.15q1.02-1.17 2.76-1.17 1.72 0 2.74 1.17 1.03 1.15 1.03 3.15zm-1.42 0q0-1.6-.6-2.36-.64-.76-1.74-.76-1.12 0-1.75.77-.6.78-.6 2.37 0 1.54.62 2.34.62.8 1.74.8 1.1 0 1.72-.78.63-.8.63-2.35zM-263.93 120.9q0 1.03-.3 1.85-.28.82-.77 1.38-.52.58-1.14.87-.63.3-1.37.3-.7 0-1.23-.18-.52-.16-1.03-.44l-.08.38h-1.3v-11.4h1.38v4.08q.58-.48 1.23-.78.66-.3 1.47-.3 1.45 0 2.28 1.1.85 1.12.85 3.15zm-1.42.04q0-1.46-.5-2.22-.47-.76-1.55-.76-.6 0-1.2.27-.63.25-1.16.66v4.68q.6.26 1 .37.43.1.97.1 1.15 0 1.8-.75.65-.75.65-2.36zM-255.94 122.7q0 1.12-.93 1.84t-2.53.72q-.9 0-1.67-.2-.75-.23-1.27-.5v-1.54h.08q.65.5 1.45.8.8.27 1.52.27.9 0 1.42-.3.5-.3.5-.92 0-.5-.27-.73-.28-.25-1.07-.43-.3-.07-.77-.15l-.85-.2q-1.08-.28-1.53-.83-.45-.56-.45-1.36 0-.5.2-.95.22-.45.64-.8.4-.35 1.04-.54.64-.22 1.42-.22.74 0 1.48.18.76.18 1.26.44v1.47h-.08q-.52-.4-1.28-.65-.75-.27-1.48-.27-.75 0-1.27.3-.52.27-.52.85 0 .5.32.76.3.25 1 .4.38.1.85.2l.8.15q.95.23 1.47.77t.52 1.43zM-247.6 125.06H-249v-.87q-.18.1-.5.34-.3.22-.6.35-.34.16-.8.27-.43.12-1.03.12-1.12 0-1.9-.75-.76-.73-.76-1.86 0-.94.4-1.5.4-.6 1.14-.92.75-.33 1.8-.45 1.04-.12 2.24-.18v-.2q0-.48-.17-.78-.16-.3-.46-.5-.3-.16-.72-.2-.4-.07-.85-.07-.55 0-1.2.14-.68.14-1.4.4h-.06v-1.4q.4-.1 1.16-.23.76-.12 1.5-.12.87 0 1.5.15.65.14 1.12.48.46.35.7.88.24.54.24 1.33v5.56zm-1.38-2v-2.3q-.63.04-1.48.12-.85.07-1.35.2-.6.18-.97.54-.37.35-.37.97 0 .7.43 1.05.4.36 1.28.36.73 0 1.33-.27.6-.3 1.12-.68zM-238.1 125.06h-1.38v-4.66q0-.56-.06-1.05-.07-.5-.24-.78-.2-.3-.53-.45-.36-.16-.9-.16-.57 0-1.2.28-.6.28-1.16.7v6.12h-1.38v-11.4h1.38v4.13q.64-.55 1.33-.85.7-.3 1.4-.3 1.34 0 2.03.8.7.8.7 2.3v5.3zM-232.6 122.97l-2.06 4.8h-1.07l1.28-4.8h1.86zM-215.25 125q-.4.1-.85.16-.46.06-.82.06-1.25 0-1.9-.67-.65-.68-.65-2.16v-4.36h-.93v-1.16h.93v-2.35h1.37v2.35h2.85v1.16h-2.85v3.72q0 .65.03 1 .03.37.2.7.17.28.45.42.28.13.86.13.34 0 .7-.08.37-.1.53-.17h.08V125zM-208.48 118.38h-.07q-.3-.07-.6-.1-.3-.04-.68-.04-.64 0-1.23.3-.6.27-1.15.7v5.82h-1.38v-8.18h1.37v1.2q.8-.65 1.44-.92.63-.28 1.28-.28.36 0 .52.02l.48.07v1.4zm-.4-5.6l-1.66 2.78h-1.66l-1.67-2.78h1.17l1.35 1.88 1.35-1.88h1.13zM-200.32 121.1h-6.03q0 .77.23 1.33t.62.92q.38.35.9.52.53.18 1.16.18.84 0 1.68-.33.85-.34 1.2-.66h.08v1.5q-.7.3-1.42.5-.73.2-1.52.2-2.04 0-3.18-1.1-1.15-1.1-1.15-3.14 0-2 1.1-3.2 1.1-1.17 2.88-1.17 1.66 0 2.55.97.9.97.9 2.75v.74zm-1.34-1.04q0-1.1-.55-1.68-.54-.6-1.64-.6-1.1 0-1.77.66-.66.65-.75 1.62h4.7zM-191.03 120.9q0 1.03-.3 1.85-.28.82-.77 1.38-.52.58-1.14.87-.63.3-1.37.3-.7 0-1.23-.18-.52-.16-1.03-.44l-.08.38h-1.3v-11.4h1.38v4.08q.58-.48 1.24-.78.65-.3 1.46-.3 1.45 0 2.3 1.1.83 1.12.83 3.15zm-1.42.04q0-1.46-.5-2.22-.47-.76-1.55-.76-.6 0-1.2.27-.63.25-1.16.66v4.68q.6.26 1 .37.43.1.97.1 1.15 0 1.8-.75.65-.75.65-2.36zM-182.53 125.06h-1.37v-.87q-.18.1-.5.34-.3.22-.6.35-.34.16-.8.27-.43.12-1.04.12-1.1 0-1.87-.75-.78-.73-.78-1.86 0-.94.4-1.5.4-.6 1.14-.92.75-.33 1.8-.45 1.04-.12 2.24-.18v-.2q0-.48-.17-.78-.16-.3-.47-.5-.3-.16-.7-.2-.4-.07-.86-.07-.54 0-1.2.14-.67.14-1.38.4h-.07v-1.4q.4-.1 1.16-.23.77-.12 1.5-.12.88 0 1.5.15.66.14 1.13.48.46.35.7.88.24.54.24 1.33v5.56zm-1.37-2v-2.3q-.63.04-1.5.12-.83.07-1.33.2-.6.18-.96.54-.36.35-.36.97 0 .7.43 1.05.42.36 1.3.36.72 0 1.32-.27.6-.3 1.1-.68zM-165.12 125q-.38.1-.85.16-.45.06-.8.06-1.26 0-1.9-.67-.67-.68-.67-2.16v-4.36h-.93v-1.16h.93v-2.35h1.38v2.35h2.84v1.16h-2.84v3.72q0 .65.03 1 .03.37.2.7.17.28.45.42.28.13.86.13.34 0 .7-.08.37-.1.53-.17h.08V125zM-156.6 121.1h-6.03q0 .77.23 1.33t.62.92q.38.35.9.52.53.18 1.16.18.84 0 1.68-.33.85-.34 1.2-.66h.08v1.5q-.7.3-1.42.5-.73.2-1.52.2-2.04 0-3.18-1.1-1.15-1.1-1.15-3.14 0-2 1.1-3.2 1.1-1.17 2.88-1.17 1.66 0 2.55.97.9.97.9 2.75v.74zm-1.34-1.04q0-1.1-.55-1.68-.52-.6-1.62-.6t-1.77.66q-.64.65-.73 1.62h4.7zM-147.43 125.06h-1.73l-2.33-3.14-2.32 3.14h-1.6l3.2-4.08-3.18-4.1h1.74l2.3 3.1 2.32-3.1h1.6l-3.2 4.03 3.2 4.16zM-141.4 125q-.37.1-.84.16-.45.06-.8.06-1.26 0-1.9-.67-.66-.68-.66-2.16v-4.36h-.93v-1.16h.93v-2.35h1.37v2.35h2.84v1.16h-2.83v3.72q0 .65.03 1 .03.37.2.7.17.28.45.42.28.13.86.13.35 0 .7-.08.38-.1.54-.17h.07V125zM-122.38 125.06h-1.37v-4.66q0-.56-.07-1.05-.07-.5-.24-.78-.18-.3-.53-.45-.33-.16-.88-.16-.57 0-1.18.28-.62.28-1.18.7v6.12h-1.38v-8.18h1.38v.9q.64-.53 1.33-.83.68-.3 1.4-.3 1.33 0 2.03.8.7.8.7 2.3v5.3zM-112.88 121.1h-6.03q0 .77.22 1.33.23.56.62.92.4.35.9.52.53.18 1.16.18.84 0 1.68-.33.85-.34 1.2-.66h.08v1.5q-.7.3-1.42.5t-1.52.2q-2.04 0-3.18-1.1-1.14-1.1-1.14-3.14 0-2 1.1-3.2 1.1-1.17 2.87-1.17 1.66 0 2.55.97.9.97.9 2.75v.74zm-1.34-1.04q0-1.1-.55-1.68-.53-.6-1.63-.6-1.1 0-1.77.66-.65.65-.74 1.62h4.68zM-103.6 120.9q0 1.03-.28 1.85-.3.82-.78 1.38-.52.58-1.14.87-.62.3-1.37.3-.7 0-1.22-.18-.5-.16-1-.44l-.1.38h-1.3v-11.4h1.4v4.08q.57-.48 1.22-.78.65-.3 1.46-.3 1.45 0 2.3 1.1.83 1.12.83 3.15zm-1.4.04q0-1.46-.5-2.22-.48-.76-1.55-.76-.6 0-1.22.27-.62.25-1.14.66v4.68q.57.26 1 .37.42.1.95.1 1.14 0 1.8-.75.64-.75.64-2.36zM-94.47 120.97q0 2-1.03 3.16-1.02 1.16-2.74 1.16-1.74 0-2.76-1.17-1.02-1.16-1.02-3.16t1.02-3.15q1.02-1.17 2.76-1.17 1.72 0 2.74 1.17 1.03 1.15 1.03 3.15zm-1.42 0q0-1.6-.62-2.36-.62-.76-1.72-.76-1.12 0-1.75.77-.6.78-.6 2.37 0 1.54.62 2.34.62.8 1.74.8 1.1 0 1.72-.78.63-.8.63-2.35zM-79.3 115.5h-1.54v-1.42h1.55v1.43zm-.07 9.76q0 1.43-.74 2.17-.74.73-1.97.73-.3 0-.78-.06-.47-.06-.8-.15v-1.3h.08l.55.18q.35.1.68.1.53 0 .85-.15.33-.15.5-.44.15-.3.2-.7.05-.42.05-1v-6.6h-1.7v-1.16h3.08v8.38zM-75.2 115.5h-1.55v-1.42h1.55v1.43zm-.1 9.56h-1.36v-8.18h1.37v8.18zM-65.77 125.06h-1.37v-4.66q0-.56-.07-1.05-.07-.5-.25-.78-.18-.3-.53-.45-.34-.16-.9-.16-.55 0-1.17.28-.62.28-1.18.7v6.12h-1.38v-8.18h1.37v.9q.65-.53 1.33-.83.7-.3 1.42-.3 1.32 0 2.02.8t.7 2.3v5.3zM-56.76 125.06h-1.37v-.87q-.18.1-.5.34-.3.22-.6.35-.34.16-.8.27-.43.12-1.03.12-1.1 0-1.88-.75-.77-.73-.77-1.86 0-.94.4-1.5.4-.6 1.13-.92.75-.33 1.8-.45 1.04-.12 2.24-.18v-.2q0-.48-.16-.78-.16-.3-.46-.5-.3-.16-.7-.2-.42-.07-.86-.07-.55 0-1.2.14-.68.14-1.4.4h-.06v-1.4q.4-.1 1.16-.23.76-.12 1.5-.12.87 0 1.5.15.65.14 1.12.48.46.35.7.88.24.54.24 1.33v5.56zm-1.37-2v-2.3q-.63.04-1.48.12-.86.07-1.36.2-.6.18-.96.54-.37.35-.37.97 0 .7.44 1.05.42.36 1.3.36.72 0 1.32-.27.6-.3 1.1-.68zm.5-10.28l-2 2.74h-1.1l1.32-2.74h1.77zM-36.17 125.06h-1.8l-3.3-3.58-.9.85v2.73h-1.36v-11.4h1.37v7.3l3.98-4.08h1.74l-3.8 3.78 4.07 4.4zM-29.6 118.38h-.08q-.3-.07-.6-.1-.3-.04-.7-.04-.62 0-1.22.3-.6.27-1.14.7v5.82h-1.38v-8.18h1.38v1.2q.82-.65 1.44-.92.63-.28 1.3-.28.35 0 .5.02l.5.07v1.4zM-22.2 125.06h-1.38v-.87q-.18.1-.5.34-.3.22-.6.35-.34.16-.78.27-.45.12-1.05.12-1.12 0-1.9-.75-.76-.73-.76-1.86 0-.94.4-1.5.4-.6 1.14-.92.75-.33 1.8-.45 1.04-.12 2.24-.18v-.2q0-.48-.16-.78-.16-.3-.47-.5-.3-.16-.72-.2-.4-.07-.85-.07-.54 0-1.2.14-.68.14-1.4.4h-.06v-1.4q.4-.1 1.16-.23.77-.12 1.5-.12.87 0 1.5.15.65.14 1.12.48.46.35.7.88.24.54.24 1.33v5.56zm-1.38-2v-2.3q-.62.04-1.48.12-.85.07-1.35.2-.6.18-.97.54-.37.35-.37.97 0 .7.43 1.05.4.36 1.3.36.7 0 1.3-.27.6-.3 1.12-.68zM-12.34 120.9q0 1.03-.3 1.85-.28.82-.77 1.38-.53.58-1.15.87-.62.3-1.37.3-.7 0-1.22-.18-.52-.16-1.02-.44l-.1.38h-1.28v-11.4h1.38v4.08q.58-.48 1.23-.78.65-.3 1.46-.3 1.45 0 2.3 1.1.83 1.12.83 3.15zm-1.42.04q0-1.46-.48-2.22-.5-.76-1.56-.76-.6 0-1.22.27-.62.25-1.14.66v4.68q.58.26 1 .37.43.1.96.1 1.14 0 1.8-.75.64-.75.64-2.36zM-8.7 115.5h-1.57v-1.42h1.56v1.43zm-.1 9.56h-1.38v-8.18h1.38v8.18zM-.07 124.55q-.7.33-1.3.5-.63.2-1.32.2-.88 0-1.62-.26-.74-.28-1.27-.8-.52-.53-.8-1.34-.3-.8-.3-1.88 0-2 1.1-3.15 1.1-1.14 2.9-1.14.7 0 1.38.2.68.18 1.25.47v1.53h-.07q-.63-.5-1.3-.75-.68-.27-1.3-.27-1.18 0-1.87.8-.68.78-.68 2.3 0 1.48.66 2.28.67.8 1.87.8.42 0 .85-.12.43-.1.77-.3.3-.14.57-.3l.42-.3h.07v1.5zM8.55 121.1H2.52q0 .77.23 1.33t.62.92q.38.35.9.52.53.18 1.16.18.83 0 1.68-.33.86-.34 1.2-.66h.1v1.5q-.7.3-1.43.5t-1.53.2q-2.03 0-3.18-1.1-1.14-1.1-1.14-3.14 0-2 1.1-3.2 1.1-1.17 2.88-1.17 1.65 0 2.55.97.9.97.9 2.75v.74zm-1.34-1.04q0-1.1-.54-1.68-.54-.6-1.63-.6-1.1 0-1.77.66-.65.65-.74 1.62h4.7zM-347.53 134.26h-1.55v-1.43h1.55v1.43zm-.1 9.75q0 1.44-.72 2.18-.73.73-1.96.73-.3 0-.8-.05-.47-.06-.8-.15v-1.3h.1l.54.18q.35.1.68.1.52 0 .85-.15.32-.15.48-.44.16-.3.2-.72.06-.4.06-1v-6.6h-1.7v-1.15h3.08V144zM-338.56 143.8h-1.37v-.86q-.2.12-.5.35-.3.2-.6.34-.35.17-.8.28-.44.12-1.04.12-1.1 0-1.88-.74-.77-.73-.77-1.86 0-.93.4-1.5.4-.58 1.14-.9.75-.34 1.8-.46 1.04-.12 2.25-.18v-.2q0-.48-.17-.78-.16-.3-.47-.5-.3-.16-.7-.2-.4-.07-.86-.07-.54 0-1.2.14-.68.13-1.4.4h-.06v-1.4q.4-.1 1.17-.24.77-.13 1.5-.13.87 0 1.5.15.65.14 1.12.48.45.34.7.87.24.54.24 1.33v5.55zm-1.37-2v-2.28q-.63.03-1.5.1-.84.08-1.34.22-.6.17-.96.53-.36.35-.36.97 0 .7.43 1.06.42.36 1.3.36.72 0 1.32-.28.6-.3 1.12-.68zM-328.47 143.8h-1.82l-3.27-3.57-.9.85v2.73h-1.37v-11.4h1.38v7.32l3.97-4.1h1.75l-3.8 3.8 4.08 4.4zM-320.2 139.72q0 2-1.02 3.16-1.03 1.16-2.75 1.16-1.73 0-2.76-1.16-1.02-1.16-1.02-3.16t1.02-3.15q1.03-1.17 2.76-1.17 1.72 0 2.75 1.17 1.02 1.15 1.02 3.15zm-1.42 0q0-1.6-.62-2.36-.62-.77-1.73-.77-1.12 0-1.74.76-.63.77-.63 2.36 0 1.54.63 2.34.62.8 1.73.8 1.1 0 1.72-.8.63-.78.63-2.34zM-298.97 134.26h-1.55v-1.43h1.55v1.43zm-.1 9.75q0 1.44-.72 2.18-.72.73-1.95.73-.3 0-.78-.05-.47-.06-.8-.15v-1.3h.08l.55.18q.35.1.68.1.52 0 .85-.15.32-.15.48-.44.17-.3.22-.72.05-.4.05-1v-6.6h-1.7v-1.15h3.07V144zM-289.5 139.86h-6.04q0 .76.23 1.32.2.56.6.92.4.35.9.52.54.18 1.17.18.83 0 1.67-.33.85-.34 1.2-.66h.1v1.5q-.7.3-1.43.5-.72.2-1.52.2-2.03 0-3.18-1.1-1.14-1.1-1.14-3.13 0-2 1.1-3.2 1.1-1.17 2.88-1.17 1.65 0 2.55.97.9.97.9 2.75v.74zm-1.35-1.05q0-1.08-.55-1.67-.54-.6-1.64-.6-1.1 0-1.76.66-.65.64-.74 1.6h4.7zM-266.64 143.74q-.4.1-.85.17-.44.07-.8.07-1.25 0-1.9-.67-.66-.68-.66-2.16v-4.35h-.93v-1.17h.94v-2.35h1.38v2.35h2.84v1.16h-2.84v3.7q0 .66.03 1.02t.2.68q.17.3.44.43.28.13.86.13.34 0 .7-.1.37-.1.53-.16h.06v1.24zM-258.6 143.8H-260v-.86l-.5.35q-.3.2-.6.34-.34.17-.8.28-.44.12-1.04.12-1.1 0-1.87-.74-.76-.73-.76-1.86 0-.93.4-1.5.4-.58 1.14-.9.74-.34 1.8-.46 1.04-.12 2.24-.18v-.2q0-.48-.17-.78-.16-.3-.47-.5-.3-.16-.7-.2-.4-.07-.86-.07-.54 0-1.2.14-.67.13-1.38.4h-.08v-1.4q.4-.1 1.17-.24.76-.13 1.5-.13.86 0 1.5.15.65.14 1.12.48.46.34.7.87.24.54.24 1.33v5.55zm-1.38-2v-2.28q-.63.03-1.5.1-.84.08-1.33.22-.6.17-.97.53-.37.35-.37.97 0 .7.43 1.06.4.36 1.28.36.73 0 1.33-.28.6-.3 1.12-.68zM-251.7 143.74q-.38.1-.85.17-.45.07-.8.07-1.26 0-1.9-.67-.66-.68-.66-2.16v-4.35h-.94v-1.17h.93v-2.35h1.36v2.35h2.84v1.16h-2.84v3.7q0 .66.03 1.02.02.36.2.68.16.3.44.43t.86.13q.34 0 .7-.1.37-.1.53-.16h.07v1.24zM-243.05 139.72q0 2-1.03 3.16-1.02 1.16-2.75 1.16t-2.76-1.16q-1-1.16-1-3.16t1-3.15q1.04-1.17 2.77-1.17t2.75 1.17q1.03 1.15 1.03 3.15zm-1.42 0q0-1.6-.63-2.36-.62-.77-1.73-.77-1.12 0-1.74.76-.6.77-.6 2.36 0 1.54.6 2.34.63.8 1.74.8 1.1 0 1.73-.8.63-.78.63-2.34zM-238.8 143.8h-1.76v-2.08h1.75v2.1zM-206.27 132.9l-2.83 10.9h-1.64l-2.3-9.04-2.23 9.05h-1.6l-2.88-10.9h1.48l2.3 9.07 2.25-9.07h1.47l2.28 9.16 2.28-9.16h1.43zM-198.13 139.86h-6.03q0 .76.23 1.32.22.56.62.92.37.35.9.52.52.18 1.15.18.83 0 1.68-.33.85-.34 1.2-.66h.08v1.5q-.7.3-1.4.5-.74.2-1.54.2-2.03 0-3.18-1.1-1.14-1.1-1.14-3.13 0-2 1.1-3.2 1.1-1.17 2.88-1.17 1.65 0 2.55.97.9.97.9 2.75v.74zm-1.34-1.05q0-1.08-.55-1.67-.54-.6-1.63-.6-1.1 0-1.77.66-.65.64-.74 1.6h4.7zM-188.84 139.66q0 1.02-.3 1.84-.28.82-.77 1.38-.53.58-1.16.87-.62.3-1.37.3-.7 0-1.2-.18-.53-.16-1.04-.44l-.1.38h-1.27v-11.4h1.37v4.1q.58-.5 1.23-.8.65-.3 1.47-.3 1.45 0 2.28 1.12.86 1.1.86 3.14zm-1.43.03q0-1.47-.48-2.23t-1.56-.76q-.6 0-1.22.28-.62.25-1.15.66v4.7q.6.25 1 .36.43.1.97.1 1.14 0 1.78-.75.65-.75.65-2.36zM-179.73 139.72q0 2-1.02 3.16-1.03 1.16-2.75 1.16-1.73 0-2.76-1.16-1.02-1.16-1.02-3.16t1.02-3.15q1.03-1.17 2.76-1.17 1.72 0 2.75 1.17 1.02 1.15 1.02 3.15zm-1.42 0q0-1.6-.62-2.36-.62-.77-1.73-.77-1.12 0-1.74.76-.62.77-.62 2.36 0 1.54.63 2.34.62.8 1.73.8 1.1 0 1.72-.8.63-.78.63-2.34zM-170.63 135.63l-3.3 8.18h-1.4l-3.28-8.17h1.48l2.54 6.5 2.5-6.5h1.45zM-161.98 139.86H-168q0 .76.22 1.32.23.56.62.92.38.35.9.52.53.18 1.16.18.84 0 1.68-.33.85-.34 1.2-.66h.08v1.5q-.7.3-1.42.5-.73.2-1.52.2-2.04 0-3.18-1.1-1.15-1.1-1.15-3.13 0-2 1.1-3.2 1.08-1.17 2.87-1.17 1.66 0 2.55.97.9.97.9 2.75v.74zm-1.34-1.05q0-1.08-.55-1.67-.53-.6-1.63-.6-1.1 0-1.77.66-.65.64-.74 1.6h4.68zm.17-7.27l-2 2.74h-1.1l1.32-2.74h1.78zM-137.5 141.45q0 1.12-.94 1.84-.92.7-2.52.7-.9 0-1.67-.2-.76-.22-1.27-.48v-1.55h.07q.65.5 1.45.8.8.27 1.53.27.9 0 1.42-.3.52-.28.52-.9 0-.5-.3-.74-.27-.25-1.06-.43-.3-.07-.77-.15l-.86-.2q-1.06-.28-1.52-.83-.44-.57-.44-1.37 0-.5.2-.95.2-.45.64-.8.4-.35 1.04-.54.63-.2 1.42-.2.73 0 1.48.17.75.2 1.25.45v1.47h-.07q-.53-.4-1.28-.65-.76-.27-1.48-.27-.76 0-1.28.3-.52.27-.52.85 0 .5.32.76.3.26 1 .42.37.1.84.18l.8.16q.95.22 1.47.76t.52 1.43zM-131.28 143.74q-.4.1-.85.17-.46.07-.8.07-1.27 0-1.92-.67-.65-.68-.65-2.16v-4.35h-.93v-1.17h.93v-2.35h1.38v2.35h2.84v1.16h-2.84v3.7q0 .66.03 1.02.04.36.2.68.17.3.45.43.3.13.86.13.35 0 .72-.1l.53-.16h.07v1.24zM-124.5 137.13h-.08q-.3-.07-.6-.1-.3-.04-.68-.04-.64 0-1.23.28-.6.28-1.13.72v5.8h-1.38v-8.17h1.37v1.2q.82-.65 1.44-.92.64-.27 1.3-.27.35 0 .5.02l.5.07v1.4zM-116.84 143.8h-1.37v-.86q-.2.12-.5.35-.3.2-.6.34-.35.17-.8.28-.44.12-1.04.12-1.1 0-1.88-.74-.77-.73-.77-1.86 0-.93.4-1.5.4-.58 1.15-.9.75-.34 1.8-.46 1.04-.12 2.24-.18v-.2q0-.48-.18-.78-.16-.3-.47-.5-.3-.16-.7-.2-.4-.07-.86-.07-.55 0-1.2.14-.68.13-1.4.4h-.06v-1.4q.4-.1 1.16-.24.76-.13 1.5-.13.87 0 1.5.15.65.14 1.12.48.46.34.7.87.24.54.24 1.33v5.55zm-1.37-2v-2.28q-.64.03-1.5.1-.84.08-1.34.22-.6.17-.96.53-.37.35-.37.97 0 .7.43 1.06.42.36 1.3.36.72 0 1.32-.28.6-.3 1.1-.68zm.5-10.27l-2 2.74h-1.1l1.3-2.74h1.8zM-107.33 143.8h-1.38v-4.65q0-.56-.07-1.05-.07-.5-.25-.78-.18-.3-.52-.45-.35-.16-.9-.16-.56 0-1.18.3-.6.27-1.18.7v6.1h-1.37v-8.17h1.37v.9q.65-.53 1.34-.83.7-.3 1.4-.3 1.34 0 2.03.8.7.8.7 2.3v5.3zM-97.25 143.8h-1.82l-3.28-3.57-.9.85v2.73h-1.37v-11.4h1.38v7.32l3.97-4.1h1.74l-3.8 3.8 4.08 4.4zM-88.73 135.63l-4.77 11.2h-1.48l1.53-3.42-3.26-7.77h1.48l2.52 6.06 2.53-6.07h1.44zM-67.84 134.26h-1.55v-1.43h1.56v1.43zm-.1 9.75q0 1.44-.72 2.18-.73.73-1.96.73-.3 0-.78-.05-.47-.06-.8-.15v-1.3h.08l.55.18q.35.1.68.1.54 0 .86-.15.32-.15.48-.44.16-.3.2-.72.06-.4.06-1v-6.6H-71v-1.15h3.07V144zM-59.4 141.45q0 1.12-.92 1.84-.92.7-2.52.7-.9 0-1.67-.2-.77-.22-1.28-.48v-1.55h.07q.65.5 1.44.8.8.27 1.53.27.9 0 1.43-.3.5-.28.5-.9 0-.5-.27-.74-.28-.25-1.07-.43-.3-.07-.77-.15-.48-.1-.87-.2-1.07-.28-1.53-.83-.44-.57-.44-1.37 0-.5.2-.95.2-.45.64-.8.4-.35 1.04-.54.64-.2 1.42-.2.73 0 1.48.17.75.2 1.25.45v1.47h-.08q-.53-.4-1.28-.65-.76-.27-1.48-.27-.76 0-1.28.3-.52.27-.52.85 0 .5.32.76.3.26 1 .42.38.1.84.18l.8.16q.95.22 1.47.76.5.54.5 1.43zM-50.43 139.72q0 2-1.03 3.16-1.03 1.16-2.75 1.16-1.74 0-2.77-1.16-1.02-1.16-1.02-3.16t1.03-3.15q1.03-1.17 2.76-1.17 1.7 0 2.74 1.17 1.03 1.15 1.03 3.15zm-1.43 0q0-1.6-.62-2.36-.62-.77-1.73-.77-1.13 0-1.75.76-.62.77-.62 2.36 0 1.54.63 2.34.62.8 1.73.8 1.1 0 1.7-.8.64-.78.64-2.34zM-41.5 143.8h-1.4v-.9q-.7.55-1.32.84-.64.3-1.4.3-1.3 0-2.02-.8-.7-.78-.7-2.3v-5.3H-47v4.65q0 .6.06 1.06.06.44.25.75.2.33.5.48.33.15.93.15.53 0 1.16-.28.64-.28 1.2-.7v-6.12h1.37v8.18zM-18.02 143.74q-.38.1-.85.17-.45.07-.8.07-1.26 0-1.9-.67-.66-.68-.66-2.16v-4.35h-.93v-1.17h.93v-2.35h1.37v2.35h2.84v1.16h-2.84v3.7q0 .66.03 1.02t.2.68q.17.3.45.43t.86.13q.34 0 .7-.1.37-.1.53-.16h.08v1.24zM-9.37 139.72q0 2-1.03 3.16-1.02 1.16-2.75 1.16t-2.76-1.16q-1.02-1.16-1.02-3.16t1-3.15q1.04-1.17 2.77-1.17t2.75 1.17q1.03 1.15 1.03 3.15zm-1.42 0q0-1.6-.62-2.36-.62-.77-1.73-.77-1.12 0-1.74.76-.6.77-.6 2.36 0 1.54.62 2.34.62.8 1.73.8 1.1 0 1.73-.8.63-.78.63-2.34zM-3 143.74q-.37.1-.84.17-.45.07-.8.07-1.26 0-1.9-.67-.67-.68-.67-2.16v-4.35h-.94v-1.17h.93v-2.35h1.37v2.35H-3v1.16h-2.83v3.7q0 .66.03 1.02t.2.68q.17.3.45.43t.86.13q.35 0 .7-.1.38-.1.54-.16H-3v1.24zM.16 134.26H-1.4v-1.43H.17v1.43zm-.1 9.55H-1.3v-8.17H.07v8.18zM8.7 143.8H2.07v-1l4.77-6.02H2.18v-1.15h6.38v.98l-4.8 6.05H8.7v1.16zm-.85-12.27l-1.67 2.78H4.52l-1.67-2.77h1.17l1.35 1.88 1.35-1.87h1.13zM-342.88 158.37q0 1-.28 1.82-.3.8-.8 1.4-.5.53-1.15.83-.66.3-1.4.3-.63 0-1.15-.15-.52-.14-1.05-.43v3.43h-1.38v-11.2h1.38v.86q.55-.47 1.23-.77.7-.32 1.46-.32 1.47 0 2.3 1.12.82 1.12.82 3.1zm-1.42.04q0-1.47-.5-2.2-.5-.74-1.56-.74-.6 0-1.2.26t-1.14.67v4.63q.58.26 1 .36.43.08.96.08 1.15 0 1.8-.77.64-.77.64-2.3zM-333.76 158.47q0 2-1.03 3.16-1 1.16-2.73 1.16-1.74 0-2.76-1.17-1-1.16-1-3.16t1-3.15q1.03-1.17 2.77-1.17 1.72 0 2.74 1.17 1.04 1.15 1.04 3.15zm-1.42 0q0-1.6-.62-2.36-.63-.76-1.73-.76-1.12 0-1.75.77-.6.78-.6 2.37 0 1.54.6 2.34.63.8 1.75.8 1.1 0 1.72-.78.62-.8.62-2.35zM-325.78 160.2q0 1.12-.93 1.84t-2.53.72q-.9 0-1.67-.2-.76-.23-1.27-.5v-1.54h.07q.65.5 1.45.8.8.27 1.53.27.9 0 1.42-.3.52-.3.52-.92 0-.5-.28-.73-.28-.25-1.07-.43-.3-.07-.77-.15l-.86-.2q-1.07-.28-1.53-.83-.43-.56-.43-1.36 0-.5.2-.95.2-.45.64-.8.42-.35 1.05-.54.64-.22 1.42-.22.73 0 1.48.18t1.25.44v1.47h-.07q-.53-.4-1.28-.65-.76-.27-1.48-.27-.76 0-1.28.3-.53.27-.53.85 0 .5.32.76.3.25.98.4.38.1.85.2l.8.15q.95.23 1.47.77t.52 1.43zM-316.37 162.56h-1.82l-3.27-3.58-.9.85v2.73h-1.37v-11.4h1.38v7.3l3.97-4.08h1.75l-3.8 3.78 4.08 4.4zM-313.53 162.56h-1.38v-11.4h1.37v11.4zM-304.5 162.56h-1.36v-.87q-.2.1-.5.34-.3.22-.6.35-.35.16-.8.27-.44.12-1.04.12-1.1 0-1.87-.75-.77-.73-.77-1.86 0-.94.4-1.5.4-.6 1.13-.92.74-.33 1.8-.45 1.04-.12 2.24-.18v-.2q0-.48-.17-.78-.16-.3-.47-.5-.3-.16-.7-.2-.4-.07-.86-.07-.54 0-1.2.14-.67.14-1.38.4h-.08v-1.4q.4-.1 1.17-.23.76-.12 1.5-.12.86 0 1.5.15.64.14 1.1.48.47.35.72.88.24.54.24 1.33v5.56zm-1.36-2v-2.3q-.63.04-1.5.12-.84.07-1.34.2-.6.18-.96.54-.36.35-.36.97 0 .7.42 1.05.43.36 1.3.36.72 0 1.32-.27.6-.3 1.12-.68zm.5-10.28l-2 2.74h-1.1l1.32-2.74h1.78zM-295.2 162.56h-1.37v-.86q-.6.52-1.24.8-.65.3-1.4.3-1.47 0-2.33-1.14-.86-1.13-.86-3.13 0-1.04.3-1.85.3-.8.8-1.4.5-.54 1.17-.84.66-.3 1.37-.3.65 0 1.14.15.5.12 1.05.4v-3.54h1.38v11.4zm-1.37-2v-4.7q-.55-.26-1-.35-.43-.1-.95-.1-1.16 0-1.8.82-.65.8-.65 2.28 0 1.46.5 2.22.5.76 1.6.76.58 0 1.18-.26t1.13-.67zM-286.12 162.56h-1.37v-.87q-.18.1-.5.34-.3.22-.6.35-.34.16-.78.27-.45.12-1.05.12-1.1 0-1.88-.75-.77-.73-.77-1.86 0-.94.4-1.5.4-.6 1.13-.92.75-.33 1.8-.45t2.25-.18v-.2q0-.48-.16-.78-.16-.3-.47-.5-.3-.16-.7-.2-.4-.07-.86-.07-.53 0-1.2.14-.67.14-1.38.4h-.07v-1.4q.4-.1 1.17-.23.76-.12 1.5-.12.86 0 1.5.15.64.14 1.1.48.47.35.7.88.26.54.26 1.33v5.56zm-1.37-2v-2.3q-.62.04-1.48.12-.85.07-1.35.2-.6.18-.96.54-.35.35-.35.97 0 .7.42 1.05.43.36 1.3.36.72 0 1.32-.27.6-.3 1.1-.68zM-276.62 162.56H-278v-4.66q0-.56-.06-1.05-.07-.5-.24-.78-.18-.3-.53-.45-.34-.16-.9-.16t-1.17.28q-.62.28-1.18.7v6.12h-1.38v-8.18h1.38v.9q.64-.53 1.33-.83.7-.3 1.42-.3 1.32 0 2.02.8.68.8.68 2.3v5.3zM-267.12 158.6h-6.02q0 .77.22 1.33.23.56.62.92.4.35.9.52.53.18 1.16.18.84 0 1.68-.33.85-.34 1.2-.66h.08v1.5q-.7.3-1.42.5t-1.52.2q-2.04 0-3.18-1.1-1.14-1.1-1.14-3.14 0-2 1.1-3.2 1.1-1.17 2.87-1.17 1.66 0 2.55.97.9.97.9 2.75v.74zm-1.34-1.04q0-1.1-.55-1.68-.54-.6-1.64-.6-1.1 0-1.77.66-.66.65-.74 1.62h4.68zm.17-7.28l-2 2.74h-1.08l1.3-2.74h1.8zM-253.48 162.56h-6.6v-1.02l4.76-6H-260v-1.16h6.4v.98l-4.8 6.04h4.92v1.16zM-244.78 158.6h-6.02q0 .77.22 1.33.23.56.63.92.38.35.9.52.52.18 1.15.18.84 0 1.68-.33.85-.34 1.2-.66h.08v1.5q-.7.3-1.42.5t-1.52.2q-2.04 0-3.18-1.1-1.14-1.1-1.14-3.14 0-2 1.1-3.2 1.1-1.17 2.87-1.17 1.66 0 2.55.97.9.97.9 2.75v.74zm-1.34-1.04q0-1.1-.55-1.68-.53-.6-1.63-.6-1.1 0-1.76.66-.66.65-.74 1.62h4.68zM-231.23 160.2q0 1.12-.93 1.84-.92.72-2.53.72-.9 0-1.66-.2-.75-.23-1.27-.5v-1.54h.08q.65.5 1.45.8.8.27 1.53.27.9 0 1.42-.3.5-.3.5-.92 0-.5-.27-.73-.27-.25-1.07-.43-.28-.07-.75-.15l-.86-.2q-1.1-.28-1.54-.83-.45-.56-.45-1.36 0-.5.22-.95.2-.45.63-.8.4-.35 1.04-.54.63-.22 1.4-.22.75 0 1.5.18t1.25.44v1.47h-.08q-.52-.4-1.28-.65-.76-.27-1.5-.27t-1.26.3q-.52.27-.52.85 0 .5.3.76.32.25 1 .4l.86.2.8.15q.95.23 1.47.77t.52 1.43zM-222.05 158.37q0 1-.3 1.82-.28.8-.8 1.4-.48.53-1.14.83-.64.3-1.37.3-.64 0-1.16-.15-.5-.14-1.05-.43v3.43h-1.37v-11.2h1.37v.86q.55-.47 1.23-.77.7-.32 1.47-.32 1.48 0 2.3 1.12.83 1.12.83 3.1zm-1.43.04q0-1.47-.5-2.2-.5-.74-1.55-.74-.6 0-1.2.26t-1.15.67v4.63q.6.26 1 .36.43.08.97.08 1.14 0 1.78-.77.64-.77.64-2.3zM-212.94 158.47q0 2-1.02 3.16-1.03 1.16-2.75 1.16-1.74 0-2.77-1.17-1.02-1.16-1.02-3.16t1.03-3.15q1.03-1.17 2.76-1.17 1.7 0 2.74 1.17 1.02 1.15 1.02 3.15zm-1.42 0q0-1.6-.62-2.36-.62-.76-1.73-.76-1.13 0-1.75.77-.62.78-.62 2.37 0 1.54.63 2.34.62.8 1.73.8 1.1 0 1.7-.78.64-.8.64-2.35zM-204.02 162.56h-1.37v-.9q-.7.54-1.32.83-.64.3-1.4.3-1.3 0-2.02-.8t-.72-2.3v-5.32h1.38v4.66q0 .62.06 1.07.06.45.25.76.2.32.5.47.33.15.93.15.53 0 1.16-.28.64-.28 1.2-.7v-6.12h1.36v8.18zM-195.46 160.2q0 1.12-.93 1.84-.9.72-2.52.72-.9 0-1.67-.2-.74-.23-1.25-.5v-1.54h.07q.65.5 1.45.8.8.27 1.53.27.9 0 1.42-.3.5-.3.5-.92 0-.5-.26-.73-.28-.25-1.07-.43-.3-.07-.78-.15l-.86-.2q-1.08-.28-1.53-.83-.45-.56-.45-1.36 0-.5.2-.95.22-.45.64-.8.4-.35 1.04-.54.64-.22 1.43-.22.72 0 1.46.18.76.18 1.26.44v1.47h-.08q-.52-.4-1.28-.65-.75-.27-1.48-.27-.75 0-1.27.3-.5.27-.5.85 0 .5.3.76.3.25 1 .4.38.1.85.2l.8.15q.95.23 1.47.77t.52 1.43zM-189.23 162.5q-.4.1-.85.16-.46.06-.82.06-1.25 0-1.9-.67-.65-.68-.65-2.16v-4.36h-.93v-1.16h.93v-2.35h1.37v2.35h2.85v1.16h-2.85v3.72q0 .65.03 1 .03.37.2.7.17.28.45.42.28.13.86.13.34 0 .7-.08.37-.1.53-.17h.07v1.24zM-180.55 154.38l-4.77 11.2h-1.48l1.53-3.42-3.26-7.78h1.5l2.5 6.06 2.54-6.06h1.45zM-165.7 162.56h-1.82l-3.3-3.58-.88.85v2.73h-1.38v-11.4h1.38v7.3l3.98-4.08h1.73l-3.8 3.78 4.1 4.4zM-159.15 155.88h-.08q-.3-.07-.6-.1-.28-.04-.68-.04-.64 0-1.24.3-.6.27-1.14.7v5.82h-1.38v-8.18h1.38v1.2q.82-.65 1.44-.92.63-.28 1.28-.28.36 0 .52.02l.5.07v1.4zM-151.75 162.56h-1.37v-.87q-.18.1-.5.34-.3.22-.6.35-.34.16-.8.27-.43.12-1.03.12-1.1 0-1.88-.75-.77-.73-.77-1.86 0-.94.4-1.5.4-.6 1.14-.92.75-.33 1.8-.45 1.04-.12 2.24-.18v-.2q0-.48-.17-.78-.15-.3-.45-.5-.3-.16-.7-.2-.42-.07-.86-.07-.56 0-1.22.14-.67.14-1.38.4h-.07v-1.4q.4-.1 1.16-.23.75-.12 1.5-.12.86 0 1.5.15.64.14 1.1.48.47.35.7.88.25.54.25 1.33v5.56zm-1.37-2v-2.3q-.63.04-1.48.12-.85.07-1.35.2-.6.18-.96.54-.38.35-.38.97 0 .7.43 1.05.42.36 1.3.36.72 0 1.32-.27.6-.3 1.1-.68zM-141.88 158.4q0 1.03-.3 1.85-.28.82-.77 1.38-.52.58-1.14.87-.62.3-1.36.3-.7 0-1.22-.18-.52-.16-1.02-.44l-.1.38h-1.28v-11.4h1.38v4.08q.57-.48 1.23-.78.65-.3 1.46-.3 1.44 0 2.28 1.1.84 1.12.84 3.15zm-1.42.04q0-1.46-.5-2.22-.47-.76-1.55-.76-.6 0-1.2.27-.63.25-1.15.66v4.68q.58.26 1 .37.42.1.96.1 1.14 0 1.8-.75.64-.75.64-2.36zM-138.26 153h-1.55v-1.42h1.54V153zm-.08 9.56h-1.38v-8.18h1.38v8.18zM-129.6 162.05q-.7.33-1.32.5-.62.2-1.32.2-.88 0-1.62-.26-.74-.28-1.27-.8-.53-.53-.83-1.34-.3-.8-.3-1.88 0-2 1.1-3.15 1.12-1.14 2.92-1.14.7 0 1.38.2.68.18 1.25.47v1.53h-.1q-.62-.5-1.3-.75-.66-.27-1.3-.27-1.17 0-1.85.8-.67.78-.67 2.3 0 1.48.66 2.28.66.8 1.87.8.42 0 .86-.12.43-.1.77-.3.3-.14.57-.3.26-.18.4-.3h.1v1.5zM-124.98 160.47l-2.07 4.8h-1.07l1.27-4.8h1.87zM-109.35 162.56h-1.82l-3.28-3.58-.9.85v2.73h-1.37v-11.4h1.38v7.3l3.97-4.08h1.74l-3.8 3.78 4.08 4.4zM-103.65 162.5q-.4.1-.85.16-.46.06-.82.06-1.25 0-1.9-.67-.65-.68-.65-2.16v-4.36h-.93v-1.16h.93v-2.35h1.37v2.35h2.85v1.16h-2.85v3.72q0 .65.03 1 .03.37.2.7.17.28.45.42.28.13.86.13.34 0 .7-.08.37-.1.53-.17h.08v1.24zM-95.14 158.6h-6.02q0 .77.22 1.33.23.56.63.92.37.35.9.52.5.18 1.14.18.84 0 1.68-.33.85-.34 1.2-.66h.08v1.5q-.7.3-1.42.5t-1.52.2q-2.04 0-3.18-1.1-1.14-1.1-1.14-3.14 0-2 1.1-3.2 1.1-1.17 2.87-1.17 1.67 0 2.56.97.9.97.9 2.75v.74zm-1.34-1.04q0-1.1-.55-1.68-.53-.6-1.63-.6-1.1 0-1.76.66-.66.65-.74 1.62h4.68zM-87.94 155.88h-.08q-.3-.07-.6-.1-.28-.04-.68-.04-.64 0-1.23.3-.6.27-1.14.7v5.82h-1.38v-8.18h1.38v1.2q.82-.65 1.44-.92.63-.28 1.28-.28.36 0 .52.02l.5.07v1.4zM-79.8 158.6h-6q0 .77.2 1.33.24.56.64.92.38.35.9.52.52.18 1.15.18.83 0 1.67-.33.85-.34 1.2-.66h.08v1.5q-.7.3-1.42.5t-1.52.2q-2.03 0-3.17-1.1-1.14-1.1-1.14-3.14 0-2 1.08-3.2 1.1-1.17 2.9-1.17 1.64 0 2.53.97.9.97.9 2.75v.74zm-1.33-1.04q0-1.1-.54-1.68-.54-.6-1.64-.6-1.1 0-1.77.66-.65.65-.74 1.62h4.67zm.17-7.28l-2 2.74h-1.1l1.32-2.74h1.78zM-69.54 153h-1.55v-1.42h1.56V153zm-.08 9.76q0 1.43-.74 2.17-.73.73-1.96.73-.3 0-.78-.06-.47-.06-.8-.15v-1.3h.08l.55.18q.35.1.68.1.54 0 .86-.15.32-.15.48-.44.16-.3.2-.7.06-.42.06-1v-6.6h-1.7v-1.16h3.08v8.38zM-61.08 160.2q0 1.12-.93 1.84-.94.72-2.54.72-.9 0-1.67-.2-.77-.23-1.28-.5v-1.54h.07q.65.5 1.45.8.8.27 1.53.27.9 0 1.42-.3.5-.3.5-.92 0-.5-.27-.73-.28-.25-1.07-.43-.3-.07-.77-.15-.48-.1-.86-.2-1.08-.28-1.53-.83-.44-.56-.44-1.36 0-.5.2-.95.22-.45.64-.8.4-.35 1.04-.54.64-.22 1.42-.22.73 0 1.48.18.76.18 1.25.44v1.47h-.08q-.53-.4-1.28-.65-.76-.27-1.48-.27-.76 0-1.28.3-.52.27-.52.85 0 .5.32.76.3.25 1 .4.38.1.85.2l.8.15q.95.23 1.47.77t.52 1.43zM-52.13 158.47q0 2-1.03 3.16-1.02 1.16-2.75 1.16-1.74 0-2.77-1.17-1.02-1.16-1.02-3.16t1.03-3.15q1.03-1.17 2.76-1.17 1.72 0 2.74 1.17 1.03 1.15 1.03 3.15zm-1.43 0q0-1.6-.62-2.36-.62-.76-1.73-.76-1.13 0-1.75.77-.6.78-.6 2.37 0 1.54.6 2.34.63.8 1.74.8 1.1 0 1.72-.78.62-.8.62-2.35zM-43.2 162.56h-1.4v-.9q-.7.54-1.32.83-.64.3-1.4.3-1.3 0-2.02-.8-.7-.8-.7-2.3v-5.32h1.36v4.66q0 .62.06 1.07.06.45.25.76.2.32.5.47.33.15.93.15.53 0 1.16-.28.64-.28 1.2-.7v-6.12h1.37v8.18zM-28.05 162.56h-1.38v-4.66q0-.56-.06-1.05-.06-.5-.23-.78-.2-.3-.53-.45-.35-.16-.9-.16-.56 0-1.17.28-.62.28-1.18.7v6.12h-1.4v-8.18h1.4v.9q.63-.53 1.32-.83.7-.3 1.4-.3 1.34 0 2.03.8.7.8.7 2.3v5.3zM-18.55 158.6h-6.03q0 .77.23 1.33t.62.92q.38.35.9.52.53.18 1.16.18.83 0 1.68-.33.86-.34 1.2-.66h.1v1.5q-.7.3-1.43.5t-1.53.2q-2.03 0-3.17-1.1-1.15-1.1-1.15-3.14 0-2 1.1-3.2 1.1-1.17 2.88-1.17 1.65 0 2.55.97.9.97.9 2.75v.74zm-1.34-1.04q0-1.1-.54-1.68-.53-.6-1.63-.6-1.1 0-1.77.66-.65.65-.74 1.62h4.7zm.37-7.28l-1.67 2.78h-1.66l-1.67-2.78h1.16l1.35 1.88 1.35-1.88h1.14zM-9.04 162.56h-1.8l-3.3-3.58-.9.85v2.73h-1.36v-11.4h1.37v7.3l3.98-4.08h1.74l-3.82 3.78 4.08 4.4zM-.95 162.56h-1.38v-.86q-.6.52-1.24.8-.64.3-1.4.3-1.46 0-2.32-1.14-.85-1.13-.85-3.13 0-1.04.3-1.85.3-.8.8-1.4.5-.54 1.16-.84.67-.3 1.38-.3.65 0 1.15.15.5.12 1.04.4v-3.54h1.38v11.4zm-1.38-2v-4.7q-.55-.26-1-.35-.43-.1-.95-.1-1.16 0-1.8.82-.65.8-.65 2.28 0 1.46.5 2.22.5.76 1.6.76.58 0 1.18-.26t1.12-.67zM8.83 154.38l-4.77 11.2H2.6l1.5-3.42-3.25-7.78h1.5l2.5 6.06 2.54-6.06h1.43zM-343 173.13l-3.3 8.18h-1.4l-3.3-8.17h1.5l2.54 6.5 2.5-6.5h1.46zM-334.47 177.36h-6.03q0 .76.23 1.32t.62.92q.38.35.9.52.53.18 1.16.18.84 0 1.7-.33.84-.34 1.2-.66h.07v1.5q-.7.3-1.42.5-.73.2-1.53.2-2.03 0-3.17-1.1-1.15-1.1-1.15-3.13 0-2 1.1-3.2 1.1-1.17 2.88-1.17 1.65 0 2.55.97.9.97.9 2.75v.74zm-1.34-1.05q-.02-1.08-.56-1.67-.53-.6-1.63-.6-1.1 0-1.76.66-.65.64-.74 1.6h4.7zM-325.75 181.3h-1.37v-.85q-.6.52-1.24.8-.65.3-1.4.3-1.47 0-2.33-1.14-.85-1.12-.85-3.12 0-1.04.3-1.85.3-.8.8-1.4.5-.54 1.16-.84.68-.3 1.4-.3.63 0 1.13.14.5.13 1.05.42v-3.55h1.37v11.4zm-1.37-2v-4.7q-.56-.25-1-.34-.44-.1-.96-.1-1.16 0-1.8.8-.65.8-.65 2.3 0 1.45.5 2.2.5.77 1.6.77.58 0 1.18-.26t1.13-.67zM-321.65 181.3h-1.37v-11.4h1.37v11.4zM-312.12 177.36h-6.02q0 .76.22 1.32.23.56.62.92.4.35.9.52.53.18 1.16.18.84 0 1.68-.33.85-.34 1.2-.66h.08v1.5q-.7.3-1.42.5t-1.52.2q-2.04 0-3.18-1.1-1.14-1.1-1.14-3.13 0-2 1.1-3.2 1.1-1.17 2.87-1.17 1.66 0 2.55.97.9.97.9 2.75v.74zm-1.34-1.05q0-1.08-.55-1.67-.54-.6-1.64-.6-1.1 0-1.77.66-.66.64-.74 1.6h4.68zM-295.6 178.95q0 1.12-.93 1.84-.93.7-2.53.7-.9 0-1.67-.2-.75-.22-1.27-.48v-1.55h.08q.65.5 1.45.8.8.27 1.53.27.9 0 1.42-.3.5-.28.5-.9 0-.5-.27-.74-.27-.25-1.06-.43-.3-.07-.77-.15l-.85-.2q-1.08-.28-1.53-.83-.46-.57-.46-1.37 0-.5.2-.95.22-.45.64-.8.4-.35 1.04-.54.64-.2 1.42-.2.74 0 1.48.17.76.2 1.25.45v1.47h-.07q-.53-.4-1.28-.65-.75-.27-1.48-.27-.75 0-1.27.3-.52.27-.52.85 0 .5.3.76.32.26 1 .42.4.1.86.18l.8.16q.96.22 1.48.76t.52 1.43zM-286.78 177.36h-6.03q0 .76.22 1.32.23.56.62.92.4.35.9.52.53.18 1.16.18.84 0 1.68-.33.85-.34 1.2-.66h.08v1.5q-.7.3-1.42.5t-1.52.2q-2.04 0-3.18-1.1-1.14-1.1-1.14-3.13 0-2 1.1-3.2 1.1-1.17 2.87-1.17 1.66 0 2.55.97.9.97.9 2.75v.74zm-1.34-1.05q0-1.08-.55-1.67-.53-.6-1.63-.6-1.1 0-1.77.66-.65.64-.74 1.6h4.68zM-277.5 177.16q0 1.02-.28 1.84-.3.82-.78 1.38-.52.58-1.14.87-.62.3-1.37.3-.7 0-1.22-.18-.5-.16-1-.44l-.1.38h-1.3v-11.4h1.4v4.1q.57-.5 1.22-.8.65-.3 1.46-.3 1.45 0 2.3 1.12.83 1.1.83 3.14zm-1.4.03q0-1.47-.5-2.23-.48-.76-1.55-.76-.6 0-1.22.28-.62.25-1.14.66v4.7q.57.25 1 .36.42.1.95.1 1.14 0 1.8-.75.64-.75.64-2.36zM-268.5 177.36h-6.02q0 .76.22 1.32.23.56.63.92.38.35.9.52.52.18 1.15.18.84 0 1.68-.33.85-.34 1.2-.66h.08v1.5q-.7.3-1.42.5t-1.52.2q-2.04 0-3.18-1.1-1.14-1.1-1.14-3.13 0-2 1.1-3.2 1.1-1.17 2.87-1.17 1.66 0 2.55.97.9.97.9 2.75v.74zm-1.34-1.05q0-1.08-.55-1.67-.52-.6-1.62-.6t-1.76.66q-.66.64-.74 1.6h4.68zM-251.47 181.3h-1.37v-.86l-.5.35q-.3.2-.6.34-.34.17-.8.28-.44.12-1.04.12-1.1 0-1.87-.74-.77-.73-.77-1.86 0-.93.4-1.5.4-.58 1.14-.9.75-.34 1.8-.46 1.04-.12 2.24-.18v-.2q0-.48-.17-.78-.17-.3-.48-.5-.3-.16-.7-.2-.4-.07-.86-.07-.54 0-1.2.14-.67.13-1.38.4h-.07v-1.4q.4-.1 1.17-.24.76-.13 1.5-.13.87 0 1.5.15.65.14 1.12.48.45.34.7.87.23.54.23 1.33v5.55zm-1.37-2v-2.28q-.63.03-1.5.1-.84.08-1.33.22-.6.17-.96.53-.37.35-.37.97 0 .7.43 1.06.42.36 1.3.36.72 0 1.32-.28.6-.3 1.1-.68zM-233.38 181.3h-1.38v-4.65q0-.56-.06-1.05-.07-.5-.24-.78-.2-.3-.53-.45-.34-.16-.9-.16-.55 0-1.16.3-.62.27-1.18.7v6.1h-1.38v-8.17h1.38v.9q.64-.53 1.33-.83.68-.3 1.4-.3 1.33 0 2.02.8.7.8.7 2.3v5.3zM-223.88 177.36h-6.03q0 .76.22 1.32.23.56.62.92.38.35.9.52.53.18 1.16.18.83 0 1.68-.33.85-.34 1.2-.66h.08v1.5q-.7.3-1.42.5-.73.2-1.53.2-2.02 0-3.16-1.1-1.15-1.1-1.15-3.13 0-2 1.08-3.2 1.1-1.17 2.9-1.17 1.64 0 2.54.97.9.97.9 2.75v.74zm-1.34-1.05q0-1.08-.55-1.67-.54-.6-1.63-.6-1.1 0-1.77.66-.65.64-.74 1.6h4.68zm.36-7.27l-1.67 2.78h-1.66l-1.66-2.77h1.16l1.35 1.88 1.35-1.87h1.14zM-214.37 181.3h-1.8l-3.3-3.57-.9.85v2.73h-1.36v-11.4h1.37v7.32l3.98-4.1h1.74l-3.8 3.8 4.07 4.4zM-206.28 181.3h-1.38v-.85q-.6.52-1.24.8-.64.3-1.4.3-1.46 0-2.32-1.14-.86-1.12-.86-3.12 0-1.04.3-1.85.3-.8.8-1.4.5-.54 1.16-.84.66-.3 1.37-.3.65 0 1.15.14.5.13 1.04.42v-3.55h1.38v11.4zm-1.38-2v-4.7q-.55-.25-1-.34-.43-.1-.95-.1-1.17 0-1.8.8-.66.8-.66 2.3 0 1.45.5 2.2.5.77 1.6.77.58 0 1.18-.26t1.12-.67zM-196.5 173.13l-4.77 11.2h-1.47l1.52-3.42-3.26-7.77h1.5l2.5 6.06 2.54-6.07h1.44zM-180.18 181.3h-6.6v-1l4.76-6.02h-4.66v-1.15h6.38v.98l-4.8 6.05h4.92v1.16zM-171.87 181.3h-1.37v-.86q-.2.12-.5.35-.3.2-.6.34-.35.17-.8.28-.44.12-1.04.12-1.1 0-1.88-.74-.76-.73-.76-1.86 0-.93.4-1.5.4-.58 1.13-.9.76-.34 1.8-.46 1.06-.12 2.26-.18v-.2q0-.48-.17-.78-.17-.3-.48-.5-.3-.16-.7-.2-.4-.07-.86-.07-.54 0-1.2.14-.68.13-1.4.4h-.06v-1.4q.4-.1 1.17-.24.76-.13 1.5-.13.86 0 1.5.15.64.14 1.1.48.47.34.7.87.26.54.26 1.33v5.55zm-1.37-2v-2.28q-.63.03-1.5.1-.84.08-1.34.22-.6.17-.96.53-.36.35-.36.97 0 .7.42 1.06.43.36 1.3.36.72 0 1.32-.28.6-.3 1.12-.68zM-163.36 178.95q0 1.12-.93 1.84-.92.7-2.52.7-.9 0-1.67-.2-.74-.22-1.26-.48v-1.55h.08q.65.5 1.45.8.8.27 1.53.27.9 0 1.42-.3.5-.28.5-.9 0-.5-.27-.74-.28-.25-1.07-.43-.3-.07-.77-.15l-.84-.2q-1.08-.28-1.53-.83-.45-.57-.45-1.37 0-.5.2-.95.22-.45.64-.8.4-.35 1.04-.54.64-.2 1.42-.2.74 0 1.48.17.76.2 1.26.45v1.47h-.08q-.53-.4-1.28-.65-.75-.27-1.48-.27-.75 0-1.27.3-.5.27-.5.85 0 .5.3.76t1 .42q.38.1.85.18l.8.16q.95.22 1.47.76t.52 1.43zM-154.54 177.36h-6.02q0 .76.22 1.32.23.56.62.92.4.35.9.52.53.18 1.16.18.84 0 1.68-.33.85-.34 1.2-.66h.08v1.5q-.7.3-1.42.5t-1.52.2q-2.04 0-3.18-1.1-1.14-1.1-1.14-3.13 0-2 1.1-3.2 1.1-1.17 2.87-1.17 1.67 0 2.56.97.9.97.9 2.75v.74zm-1.34-1.05q0-1.08-.55-1.67-.53-.6-1.63-.6-1.1 0-1.77.66-.65.64-.73 1.6h4.68zM-136.8 173.13l-3.3 8.18h-1.4l-3.28-8.17h1.5l2.53 6.5 2.5-6.5h1.46zM-120.56 178.95q0 1.12-.93 1.84-.92.7-2.52.7-.9 0-1.67-.2-.75-.22-1.26-.48v-1.55h.08q.65.5 1.45.8.8.27 1.53.27.9 0 1.42-.3.5-.28.5-.9 0-.5-.27-.74-.28-.25-1.07-.43-.3-.07-.77-.15l-.84-.2q-1.08-.28-1.53-.83-.45-.57-.45-1.37 0-.5.2-.95.22-.45.64-.8.4-.35 1.04-.54.64-.2 1.42-.2.73 0 1.48.17.76.2 1.25.45v1.47h-.06q-.53-.4-1.28-.65-.76-.27-1.48-.27-.75 0-1.28.3-.52.27-.52.85 0 .5.32.76.3.26 1 .42.38.1.85.18l.8.16q.95.22 1.47.76t.52 1.43zM-111.6 177.22q0 2-1.04 3.16-1.02 1.16-2.75 1.16-1.72 0-2.75-1.16-1-1.16-1-3.16t1-3.15q1.03-1.17 2.76-1.17 1.74 0 2.76 1.17 1.03 1.15 1.03 3.15zm-1.43 0q0-1.6-.63-2.36-.62-.77-1.73-.77-1.1 0-1.73.76-.6.77-.6 2.36 0 1.54.6 2.34.63.8 1.74.8 1.1 0 1.74-.8.63-.78.63-2.34zM-102.28 177.16q0 1.02-.3 1.84-.27.82-.76 1.38-.52.58-1.15.87-.6.3-1.36.3-.7 0-1.2-.18-.53-.16-1.04-.44l-.1.38h-1.27v-11.4h1.37v4.1q.58-.5 1.23-.8.65-.3 1.47-.3 1.45 0 2.28 1.12.84 1.1.84 3.14zm-1.42.03q0-1.47-.48-2.23t-1.56-.76q-.6 0-1.22.28-.6.25-1.14.66v4.7q.6.25 1 .36.43.1.96.1 1.15 0 1.8-.75.64-.75.64-2.36zM-93.28 177.36h-6.03q0 .76.22 1.32.23.56.62.92.38.35.9.52.53.18 1.16.18.83 0 1.68-.33.85-.34 1.2-.66h.08v1.5q-.7.3-1.42.5-.73.2-1.53.2-2.02 0-3.17-1.1-1.14-1.1-1.14-3.13 0-2 1.08-3.2 1.1-1.17 2.9-1.17 1.64 0 2.54.97.9.97.9 2.75v.74zm-1.34-1.05q0-1.08-.55-1.67-.54-.6-1.63-.6-1.1 0-1.77.66-.65.64-.74 1.6h4.68zm.36-7.27l-1.67 2.78h-1.67l-1.67-2.77h1.17l1.35 1.88 1.35-1.87h1.14zM-76.25 181.3h-1.37v-.86q-.2.12-.5.35-.3.2-.6.34-.35.17-.8.28-.44.12-1.04.12-1.1 0-1.88-.74-.76-.73-.76-1.86 0-.93.4-1.5.4-.58 1.13-.9.75-.34 1.8-.46 1.04-.12 2.25-.18v-.2q0-.48-.17-.78-.15-.3-.46-.5-.3-.16-.7-.2-.4-.07-.86-.07-.54 0-1.2.14-.68.13-1.4.4h-.06v-1.4q.4-.1 1.16-.24.77-.13 1.5-.13.87 0 1.5.15.65.14 1.12.48.46.34.7.87.25.54.25 1.33v5.55zm-1.37-2v-2.28q-.63.03-1.5.1-.84.08-1.34.22-.6.17-.96.53-.36.35-.36.97 0 .7.42 1.06.43.36 1.3.36.72 0 1.32-.28.6-.3 1.12-.68zM-60.76 181.24q-.4.1-.85.17-.46.07-.82.07-1.25 0-1.9-.67-.66-.68-.66-2.16v-4.35h-.93v-1.17h.92v-2.35h1.38v2.35h2.84v1.16h-2.84v3.7q0 .66.03 1.02t.2.68q.17.3.44.43.3.13.87.13.34 0 .7-.1.37-.1.53-.16h.07v1.24zM-52.73 181.3h-1.37v-.86l-.5.35q-.3.2-.6.34-.34.17-.8.28-.44.12-1.04.12-1.1 0-1.87-.74-.78-.73-.78-1.86 0-.93.4-1.5.4-.58 1.14-.9.74-.34 1.8-.46 1.04-.12 2.24-.18v-.2q0-.48-.17-.78-.16-.3-.47-.5-.3-.16-.7-.2-.4-.07-.86-.07-.54 0-1.2.14-.67.13-1.38.4h-.08v-1.4q.4-.1 1.17-.24.77-.13 1.5-.13.87 0 1.5.15.66.14 1.12.48.47.34.7.87.25.54.25 1.33v5.55zm-1.37-2v-2.28q-.63.03-1.5.1-.84.08-1.33.22-.6.17-.96.53-.36.35-.36.97 0 .7.42 1.06.43.36 1.3.36.73 0 1.33-.28.6-.3 1.1-.68zM-42.64 181.3h-1.8l-3.3-3.57-.9.85v2.73H-50v-11.4h1.37v7.32l3.98-4.1h1.73l-3.8 3.8 4.08 4.4zM-25.4 177.12q0 1-.3 1.82-.28.82-.8 1.4-.48.54-1.14.84-.65.3-1.38.3-.64 0-1.16-.15-.5-.14-1.05-.43v3.43h-1.38v-11.2h1.37v.86q.55-.48 1.23-.78.7-.32 1.47-.32 1.48 0 2.3 1.12.82 1.12.82 3.1zm-1.43.04q0-1.48-.5-2.2-.5-.75-1.56-.75-.58 0-1.18.27-.6.26-1.15.67v4.64q.6.26 1 .36.43.1.96.1 1.15 0 1.8-.78.64-.78.64-2.3zM-16.3 177.22q0 2-1 3.16-1.04 1.16-2.76 1.16-1.74 0-2.76-1.16-1.02-1.16-1.02-3.16t1.02-3.15q1.02-1.17 2.76-1.17 1.72 0 2.75 1.17 1 1.15 1 3.15zm-1.4 0q0-1.6-.63-2.36-.62-.77-1.73-.77-1.12 0-1.74.76-.62.77-.62 2.36 0 1.54.62 2.34.63.8 1.74.8 1.1 0 1.72-.8.63-.78.63-2.34zM-9.04 174.63h-.08q-.3-.07-.6-.1-.28-.04-.68-.04-.64 0-1.23.28-.6.28-1.14.72v5.8h-1.38v-8.17h1.38v1.2q.82-.65 1.44-.92.63-.27 1.28-.27.36 0 .52.02l.5.07v1.4zm-.4-5.6l-1.66 2.78h-1.66l-1.67-2.77h1.16l1.36 1.88 1.33-1.87h1.14zM-1.38 181.3h-1.37v-.86l-.5.35q-.3.2-.6.34-.34.17-.78.28-.45.12-1.05.12-1.1 0-1.88-.74-.77-.73-.77-1.86 0-.93.4-1.5.4-.58 1.14-.9.76-.34 1.8-.46 1.05-.12 2.25-.18v-.2q0-.48-.16-.78-.17-.3-.48-.5-.3-.16-.7-.2-.42-.07-.86-.07-.54 0-1.2.14-.68.13-1.4.4h-.06v-1.4q.4-.1 1.16-.24.77-.13 1.5-.13.87 0 1.5.15.65.14 1.12.48.46.34.7.87.24.54.24 1.33v5.55zm-1.37-2v-2.28q-.62.03-1.48.1-.85.08-1.35.22-.6.17-.96.53-.37.35-.37.97 0 .7.42 1.06.42.36 1.3.36.72 0 1.32-.28.6-.3 1.1-.68zm.5-10.27l-2 2.74h-1.1l1.32-2.74h1.78zM7.93 181.3H6.55v-.85q-.6.52-1.24.8-.63.3-1.4.3-1.45 0-2.32-1.14-.85-1.12-.85-3.12 0-1.04.3-1.85.3-.8.8-1.4.5-.54 1.15-.84.67-.3 1.38-.3.64 0 1.14.14.5.13 1.05.42v-3.55h1.38v11.4zm-1.38-2v-4.7q-.56-.25-1-.34-.44-.1-.96-.1-1.16 0-1.8.8-.65.8-.65 2.3 0 1.45.5 2.2.5.77 1.6.77.58 0 1.18-.26t1.12-.67zM-343.44 200.06h-1.38v-.86q-.6.52-1.24.8-.64.3-1.4.3-1.46 0-2.33-1.14-.84-1.13-.84-3.13 0-1.04.3-1.85.3-.8.8-1.4.5-.54 1.15-.84.68-.3 1.4-.3.63 0 1.13.15.5.12 1.05.4v-3.54h1.38v11.4zm-1.38-2v-4.7q-.56-.26-1-.35-.44-.1-.96-.1-1.15 0-1.8.82-.64.8-.64 2.28 0 1.46.5 2.22.5.76 1.6.76.58 0 1.18-.26t1.12-.67zM-333.76 195.97q0 2-1.03 3.16-1 1.16-2.73 1.16-1.74 0-2.76-1.17-1-1.16-1-3.16t1-3.15q1.03-1.17 2.77-1.17 1.72 0 2.74 1.17 1.04 1.15 1.04 3.15zm-1.42 0q0-1.6-.62-2.36-.63-.76-1.73-.76-1.12 0-1.75.77-.6.78-.6 2.37 0 1.54.6 2.34.63.8 1.75.8 1.1 0 1.72-.78.62-.8.62-2.35zM-324.2 200.06h-1.8l-3.3-3.58-.9.85v2.73h-1.36v-11.4h1.37v7.3l4-4.08h1.73l-3.8 3.78 4.08 4.4zM-315.92 195.97q0 2-1.02 3.16-1.03 1.16-2.75 1.16-1.73 0-2.75-1.17-1.02-1.16-1.02-3.16t1.02-3.15q1.02-1.17 2.76-1.17 1.73 0 2.76 1.17 1.02 1.15 1.02 3.15zm-1.42 0q0-1.6-.62-2.36-.62-.76-1.73-.76-1.1 0-1.73.77-.62.78-.62 2.37 0 1.54.62 2.34.63.8 1.74.8 1.1 0 1.73-.78.63-.8.63-2.35zM-312.4 200.06h-1.37v-11.4h1.38v11.4zM-303.35 200.06h-1.37v-.87q-.18.1-.5.34-.3.22-.6.35-.34.16-.8.27-.44.12-1.04.12-1.1 0-1.87-.75-.77-.73-.77-1.86 0-.94.4-1.5.4-.6 1.14-.92.74-.33 1.8-.45 1.04-.12 2.24-.18v-.2q0-.48-.17-.78-.15-.3-.46-.5-.3-.16-.7-.2-.4-.07-.86-.07-.54 0-1.2.14-.67.14-1.38.4h-.08v-1.4q.4-.1 1.17-.23.75-.12 1.5-.12.85 0 1.5.15.64.14 1.1.48.47.35.7.88.25.54.25 1.33v5.56zm-1.37-2v-2.3q-.63.04-1.5.12-.84.07-1.33.2-.6.18-.96.54-.38.35-.38.97 0 .7.43 1.05.42.36 1.3.36.72 0 1.32-.27.6-.3 1.1-.68zM-298.44 200.06h-1.75v-2.1h1.76v2.1z" style="line-height:125%;-inkscape-font-specification:'sans-serif, Normal';text-align:justify"/>
  </g>
  <path fill="none" stroke="#00f" stroke-width="1.04" d="M131.6 259.75v80.7"/>
  <text x="451.27" y="806.13" fill="#00f" style="line-height:125%;-inkscape-font-specification:'sans-serif, Normal';text-align:center" font-size="25" font-family="sans-serif" letter-spacing="0" word-spacing="0" text-anchor="middle" transform="translate(-88.413 -484.755)">
    <tspan x="451.27" y="806.13">width</tspan>
  </text>
  <path fill="none" stroke="#00f" stroke-width="1.04" d="M593.6 259.75v80.7"/>
  <path fill="none" stroke="#00f" d="M220 818.08h461.43" marker-start="url(#a)" marker-end="url(#b)" transform="translate(-88.413 -484.755)"/>
  <text x="-642.16" y="762.27" fill="#00f" style="line-height:125%;-inkscape-font-specification:'sans-serif, Normal';text-align:center" transform="rotate(-90 -286.584 -198.17)" font-size="25" font-family="sans-serif" letter-spacing="0" word-spacing="0" text-anchor="middle">
    <tspan x="-642.16" y="762.27">height</tspan>
  </text>
  <path fill="none" stroke="#00f" stroke-width="1.11" d="M600.1 58.04h92.84"/>
  <path fill="none" stroke="#00f" d="M774.2 740.48V544.05" marker-start="url(#c)" marker-end="url(#d)" transform="translate(-88.413 -484.755)"/>
  <path fill="none" stroke="#00f" stroke-width="1.11" d="M600.1 257h92.84"/>
  <text x="-640.07" y="252.1" fill="#00f" style="line-height:125%;-inkscape-font-specification:'sans-serif, Normal';text-align:center" transform="rotate(-90 -327.51 -161.096)" font-size="25" font-family="sans-serif" letter-spacing="0" word-spacing="0" text-anchor="middle">
    <tspan x="-640.07" y="252.1">margin</tspan>
  </text>
  <text x="-640.07" y="286.96" fill="#00f" style="line-height:125%;-inkscape-font-specification:'sans-serif, Normal';text-align:center" transform="rotate(-90 -327.51 -161.096)" font-size="25" font-family="sans-serif" letter-spacing="0" word-spacing="0" text-anchor="middle">
    <tspan x="-640.07" y="286.96">margin</tspan>
  </text>
  <text x="530.75" y="767.37" fill="#00f" style="line-height:125%;-inkscape-font-specification:'sans-serif, Normal';text-align:center" font-size="25" font-family="sans-serif" letter-spacing="0" word-spacing="0" text-anchor="middle" transform="translate(-166.413 -488.605)">
    <tspan x="530.75" y="767.37">margin</tspan>
  </text>
  <text x="-640.07" y="784.96" fill="#00f" style="line-height:125%;-inkscape-font-specification:'sans-serif, Normal';text-align:center" transform="rotate(-90 -327.51 -161.096)" font-size="25" font-family="sans-serif" letter-spacing="0" word-spacing="0" text-anchor="middle">
    <tspan x="-640.07" y="784.96">margin</tspan>
  </text>
  <g fill="#999">
    <g font-family="sans-serif" letter-spacing="0" word-spacing="0" text-anchor="middle">
      <g font-size="25">
        <text x="528.94" y="589.79" style="line-height:125%;-inkscape-font-specification:'sans-serif, Normal';text-align:center" transform="translate(-166.413 -488.605)">
          <tspan x="528.94" y="589.79">padding</tspan>
        </text>
        <text x="528.94" y="715.76" style="line-height:125%;-inkscape-font-specification:'sans-serif, Normal';text-align:center" transform="translate(-166.413 -488.605)">
          <tspan x="528.94" y="715.76">padding</tspan>
        </text>
        <text x="-645.86" y="338.54" transform="rotate(-90 -327.51 -161.096)" style="line-height:125%;-inkscape-font-specification:'sans-serif, Normal';text-align:center">
          <tspan x="-645.86" y="338.54">padding</tspan>
        </text>
        <text x="-645.86" y="732.81" transform="rotate(-90 -327.51 -161.096)" style="line-height:125%;-inkscape-font-specification:'sans-serif, Normal';text-align:center">
          <tspan x="-645.86" y="732.81">padding</tspan>
        </text>
      </g>
      <g font-size="17.5">
        <text x="490.62" y="522.41" style="line-height:125%;-inkscape-font-specification:'sans-serif, Normal';text-align:center" transform="translate(-132.193 -449.675) scale(.9998)">
          <tspan x="490.62" y="522.41">border</tspan>
        </text>
        <text x="490.62" y="703.42" style="line-height:125%;-inkscape-font-specification:'sans-serif, Normal';text-align:center" transform="translate(-132.193 -449.675) scale(.9998)">
          <tspan x="490.62" y="703.42">border</tspan>
        </text>
        <text x="-605.28" y="278.1" transform="rotate(-90 -290.934 -158.74) scale(.9998)" style="line-height:125%;-inkscape-font-specification:'sans-serif, Normal';text-align:center">
          <tspan x="-605.28" y="278.1">border</tspan>
        </text>
        <text x="-605.28" y="724.1" transform="rotate(-90 -290.934 -158.74) scale(.9998)" style="line-height:125%;-inkscape-font-specification:'sans-serif, Normal';text-align:center">
          <tspan x="-605.28" y="724.1">border</tspan>
        </text>
      </g>
    </g>
  </g>
  <g fill="#999">
    <g font-family="sans-serif" letter-spacing="0" word-spacing="0" text-anchor="middle">
      <g font-size="25">
        <text x="528.94" y="589.79" style="line-height:125%;-inkscape-font-specification:'sans-serif, Normal';text-align:center" transform="translate(-700.413 -488.605)">
          <tspan x="528.94" y="589.79">padding</tspan>
        </text>
        <text x="528.94" y="715.76" style="line-height:125%;-inkscape-font-specification:'sans-serif, Normal';text-align:center" transform="translate(-700.413 -488.605)">
          <tspan x="528.94" y="715.76">padding</tspan>
        </text>
        <text x="-645.86" y="338.54" style="line-height:125%;-inkscape-font-specification:'sans-serif, Normal';text-align:center" transform="rotate(-90 -594.51 105.904)">
          <tspan x="-645.86" y="338.54">padding</tspan>
        </text>
        <text x="-645.86" y="732.81" style="line-height:125%;-inkscape-font-specification:'sans-serif, Normal';text-align:center" transform="rotate(-90 -594.51 105.904)">
          <tspan x="-645.86" y="732.81">padding</tspan>
        </text>
      </g>
      <g font-size="17.5">
        <text x="490.62" y="522.41" style="line-height:125%;-inkscape-font-specification:'sans-serif, Normal';text-align:center" transform="translate(-666.193 -449.675) scale(.9998)">
          <tspan x="490.62" y="522.41">border</tspan>
        </text>
        <text x="490.62" y="703.42" style="line-height:125%;-inkscape-font-specification:'sans-serif, Normal';text-align:center" transform="translate(-666.193 -449.675) scale(.9998)">
          <tspan x="490.62" y="703.42">border</tspan>
        </text>
        <text x="-605.28" y="278.1" style="line-height:125%;-inkscape-font-specification:'sans-serif, Normal';text-align:center" transform="rotate(-90 -557.934 108.26) scale(.9998)">
          <tspan x="-605.28" y="278.1">border</tspan>
        </text>
        <text x="-605.28" y="724.1" style="line-height:125%;-inkscape-font-specification:'sans-serif, Normal';text-align:center" transform="rotate(-90 -557.934 108.26) scale(.9998)">
          <tspan x="-605.28" y="724.1">border</tspan>
        </text>
      </g>
    </g>
  </g>
</svg>
