<svg xmlns="http://www.w3.org/2000/svg" width="297mm" height="210mm">
  <style>
    svg{font-family:sans-serif;} .l{font-size:18px;}
  </style>
  <path fill="#dcdcdc" d="M45.65 114.5c-2.46 0-4.44 2.05-4.44 4.62v41.68c0 2.56 2 4.63 4.46 4.63h40c2.45 0 4.43-2.07 4.43-4.64v-41.68c0-2.57-2-4.64-4.45-4.64h-40zm53.32 0c-2.46 0-4.44 2.05-4.44 4.62v41.68c0 2.56 1.98 4.63 4.45 4.63h40c2.45 0 4.43-2.07 4.43-4.64v-41.68c0-2.57-1.97-4.64-4.43-4.64h-40zm53.32 0c-2.47 0-4.45 2.05-4.45 4.62v41.68c0 2.56 1.98 4.63 4.45 4.63h39.98c2.47 0 4.45-2.07 4.45-4.64v-41.68c0-2.57-1.98-4.64-4.44-4.64h-40zm53.3 0c-2.45 0-4.43 2.05-4.43 4.62v41.68c0 2.56 1.98 4.63 4.44 4.63h40c2.47 0 4.45-2.07 4.45-4.64v-41.68c0-2.57-1.98-4.64-4.45-4.64h-40zm53.33 0c-2.46 0-4.44 2.05-4.44 4.62v41.68c0 2.56 1.97 4.63 4.43 4.63h40c2.46 0 4.44-2.07 4.44-4.64v-41.68c0-2.57-1.98-4.64-4.45-4.64h-40zm53.32 0c-2.46 0-4.44 2.05-4.44 4.62v41.68c0 2.56 2 4.63 4.45 4.63h40c2.46 0 4.44-2.07 4.44-4.64v-41.68c0-2.57-2-4.64-4.45-4.64h-40zm53.32 0c-2.46 0-4.44 2.05-4.44 4.62v41.68c0 2.56 1.98 4.63 4.44 4.63h40c2.45 0 4.44-2.07 4.44-4.64v-41.68c0-2.57-1.98-4.64-4.44-4.64h-40zm53.33 0c-2.47 0-4.45 2.05-4.45 4.62v41.68c0 2.56 1.98 4.63 4.44 4.63h39.98c2.46 0 4.44-2.07 4.44-4.64v-41.68c0-2.57-1.98-4.64-4.44-4.64h-40zm53.32 0c-2.47 0-4.45 2.05-4.45 4.62v41.68c0 2.56 1.98 4.63 4.44 4.63h40c2.46 0 4.44-2.07 4.44-4.64v-41.68c0-2.57-1.98-4.64-4.44-4.64h-40zm53.3 0c-2.45 0-4.43 2.05-4.43 4.62v41.68c0 2.56 1.97 4.63 4.43 4.63h40c2.45 0 4.44-2.07 4.44-4.64v-41.68c0-2.57-1.98-4.64-4.45-4.64h-40zm53.33 0c-2.46 0-4.44 2.05-4.44 4.62v41.68c0 2.56 2 4.63 4.46 4.63h40c2.45 0 4.43-2.07 4.43-4.64v-41.68c0-2.57-2-4.64-4.46-4.64h-40zm53.32 0c-2.46 0-4.44 2.05-4.44 4.62v41.68c0 2.56 1.98 4.63 4.45 4.63h40c2.45 0 4.43-2.07 4.43-4.64v-41.68c0-2.57-1.97-4.64-4.43-4.64h-40zm53.33 0c-2.47 0-4.45 2.05-4.45 4.62v41.68c0 2.56 1.98 4.63 4.45 4.63h39.98c2.46 0 4.45-2.07 4.45-4.64v-41.68c0-2.57-1.98-4.64-4.45-4.64H685.5zm68.87 13.88h24.43v23.15h-24.1l-11.44-11.8 11.1-11.36zm-15.56-13.9c-2.45 0-4.43 2.07-4.43 4.63v41.7c0 2.56 1.98 4.63 4.44 4.63h93.32c2.47 0 4.45-2.07 4.45-4.63v-41.7c0-2.55-1.98-4.6-4.45-4.6l-93.3-.02zm-622.05 55.58c-2.46 0-4.45 2.06-4.45 4.63v41.68c0 2.56 1.98 4.63 4.45 4.63h40c2.45 0 4.43-2.06 4.43-4.63V174.7c0-2.57-1.98-4.64-4.44-4.64h-40zm53.32 0c-2.46 0-4.45 2.06-4.45 4.63v41.68c0 2.56 1.98 4.63 4.44 4.63h40c2.45 0 4.44-2.06 4.44-4.63V174.7c0-2.57-1.98-4.64-4.45-4.64h-40zm53.32 0c-2.47 0-4.46 2.06-4.46 4.63v41.68c0 2.56 1.98 4.63 4.45 4.63h39.98c2.46 0 4.44-2.06 4.44-4.63V174.7c0-2.57-1.98-4.64-4.44-4.64h-40zm53.3 0c-2.45 0-4.44 2.06-4.44 4.63v41.68c0 2.56 1.98 4.63 4.45 4.63h40c2.46 0 4.44-2.06 4.44-4.63V174.7c0-2.57-1.98-4.64-4.44-4.64h-40zm53.33 0c-2.47 0-4.45 2.06-4.45 4.63v41.68c0 2.56 1.98 4.63 4.45 4.63h40c2.45 0 4.43-2.06 4.43-4.63V174.7c0-2.57-1.98-4.64-4.44-4.64h-40zm53.32 0c-2.47 0-4.45 2.06-4.45 4.63v41.68c0 2.56 1.98 4.63 4.45 4.63h40c2.45 0 4.43-2.06 4.43-4.63V174.7c0-2.57-1.98-4.64-4.45-4.64h-40zm53.32 0c-2.47 0-4.45 2.06-4.45 4.63v41.68c0 2.56 1.98 4.63 4.45 4.63h40c2.45 0 4.43-2.06 4.43-4.63V174.7c0-2.57-1.98-4.64-4.44-4.64h-40zm53.32 0c-2.48 0-4.46 2.06-4.46 4.63v41.68c0 2.56 1.98 4.63 4.45 4.63h39.98c2.46 0 4.44-2.06 4.44-4.63V174.7c0-2.57-1.98-4.64-4.45-4.64h-40zm53.3 0c-2.46 0-4.44 2.06-4.44 4.63v41.68c0 2.56 1.98 4.63 4.45 4.63h40c2.46 0 4.44-2.06 4.44-4.63V174.7c0-2.57-1.98-4.64-4.45-4.64h-40zm53.33 0c-2.47 0-4.45 2.06-4.45 4.63v41.68c0 2.56 1.98 4.63 4.45 4.63h40c2.45 0 4.43-2.06 4.43-4.63V174.7c0-2.57-1.98-4.64-4.45-4.64h-39.98zm53.32 0c-2.46 0-4.45 2.06-4.45 4.63v41.68c0 2.56 2 4.63 4.45 4.63h40c2.45 0 4.43-2.06 4.43-4.63V174.7c0-2.57-1.98-4.64-4.45-4.64h-40zm53.32 0c-2.46 0-4.45 2.06-4.45 4.63v41.68c0 2.56 2 4.63 4.45 4.63h40c2.45 0 4.43-2.06 4.43-4.63V174.7c0-2.57-1.98-4.64-4.44-4.64h-40zM45.67 188.6H72.3l-8.9 9.25v-4.63H45.66v-4.63zm8.87-13.9v4.62h17.78v4.64H45.65l8.9-9.27zm-8.88-4.64c-2.47 0-4.45 2.07-4.45 4.63v41.68c0 2.56 2 4.63 4.46 4.63h57.76c2.46 0 4.44-2.06 4.44-4.62v-41.7c0-2.56-1.98-4.62-4.44-4.62H45.65zm764.25 55.57h13.34v32.42h-26.66v9.27l-15.37-16.08 15.38-16.34v9.26h13.33v-18.53zm-53.3-55.57c-2.47 0-4.45 2.06-4.45 4.63v41.68c0 2.56 1.98 4.63 4.44 4.63h8.87c2.56 0 4.45 2.07 4.45 4.63v46.32c0 2.56 1.98 4.63 4.44 4.63h57.76c2.47 0 4.45-2.07 4.45-4.63V174.7c0-2.57-1.98-4.64-4.44-4.64H756.6zM134.5 225.64c-2.46 0-4.44 2.06-4.44 4.63v41.68c0 2.56 1.98 4.63 4.44 4.63h40c2.45 0 4.43-2.07 4.43-4.63v-41.68c0-2.57-1.98-4.64-4.44-4.64h-39.98zm53.32 0c-2.46 0-4.45 2.06-4.45 4.63v41.68c0 2.56 1.98 4.63 4.44 4.63h40c2.45 0 4.44-2.07 4.44-4.63v-41.68c0-2.57-1.98-4.64-4.45-4.64h-40zm53.32 0c-2.46 0-4.44 2.06-4.44 4.63v41.68c0 2.56 1.98 4.63 4.44 4.63h40c2.45 0 4.43-2.07 4.43-4.63v-41.68c0-2.57-2-4.64-4.45-4.64h-40zm53.32 0c-2.46 0-4.44 2.06-4.44 4.63v41.68c0 2.56 1.98 4.63 4.44 4.63h40c2.45 0 4.43-2.07 4.43-4.63v-41.68c0-2.57-1.97-4.64-4.43-4.64h-40zm53.32 0c-2.46 0-4.44 2.06-4.44 4.63v41.68c0 2.56 1.98 4.63 4.44 4.63h40c2.45 0 4.44-2.07 4.44-4.63v-41.68c0-2.57-2-4.64-4.45-4.64h-40zm53.32 0c-2.46 0-4.44 2.06-4.44 4.63v41.68c0 2.56 1.98 4.63 4.44 4.63h40c2.45 0 4.44-2.07 4.44-4.63v-41.68c0-2.57-2-4.64-4.45-4.64h-39.98zm53.32 0c-2.46 0-4.44 2.06-4.44 4.63v41.68c0 2.56 1.98 4.63 4.44 4.63h40c2.45 0 4.43-2.07 4.43-4.63v-41.68c0-2.57-1.98-4.64-4.44-4.64h-40zm53.32 0c-2.46 0-4.44 2.06-4.44 4.63v41.68c0 2.56 1.98 4.63 4.44 4.63h40c2.45 0 4.43-2.07 4.43-4.63v-41.68c0-2.57-2-4.64-4.45-4.64h-40zm53.32 0c-2.46 0-4.44 2.06-4.44 4.63v41.68c0 2.56 1.98 4.63 4.44 4.63h40c2.45 0 4.43-2.07 4.43-4.63v-41.68c0-2.57-1.97-4.64-4.43-4.64h-40zm53.32 0c-2.46 0-4.44 2.06-4.44 4.63v41.68c0 2.56 1.98 4.63 4.44 4.63h40c2.45 0 4.43-2.07 4.43-4.63v-41.68c0-2.57-1.98-4.64-4.44-4.64h-40zm53.32 0c-2.46 0-4.44 2.06-4.44 4.63v41.68c0 2.56 1.98 4.63 4.44 4.63h40c2.45 0 4.44-2.07 4.44-4.63v-41.68c0-2.57-1.98-4.64-4.45-4.64h-39.98zm133.3 271h13.33v32.43H787.7v9.26l-15.38-16.07 15.37-16.35v9.28H801v-18.53zM756.6 473.5c-2.47 0-4.46 2.06-4.46 4.62v46.32c0 2.56-1.98 4.63-4.44 4.63h-26.66c-2.45 0-4.44 2.06-4.44 4.63v41.68c0 2.57 1.98 4.63 4.44 4.63h111.1c2.45 0 4.43-2.05 4.43-4.62v-97.26c0-2.56-1.98-4.63-4.44-4.63H756.6zM134.5 529.06c-2.46 0-4.44 2.06-4.44 4.63v41.68c0 2.56 1.98 4.63 4.44 4.63h40c2.45 0 4.43-2.06 4.43-4.62V533.7c0-2.57-1.98-4.63-4.44-4.63h-39.98zm53.32 0c-2.46 0-4.44 2.06-4.44 4.63v41.68c0 2.56 1.98 4.63 4.44 4.63h40c2.45 0 4.43-2.06 4.43-4.62V533.7c0-2.57-1.98-4.63-4.44-4.63h-40zm53.32 0c-2.46 0-4.44 2.06-4.44 4.63v41.68c0 2.56 1.98 4.63 4.44 4.63h40c2.45 0 4.43-2.06 4.43-4.62V533.7c0-2.57-2-4.63-4.45-4.63h-40zm53.32 0c-2.46 0-4.44 2.06-4.44 4.63v41.68c0 2.56 1.98 4.63 4.44 4.63h40c2.45 0 4.44-2.06 4.44-4.62V533.7c0-2.57-2-4.63-4.45-4.63h-40zm53.32 0c-2.46 0-4.44 2.06-4.44 4.63v41.68c0 2.56 1.98 4.63 4.44 4.63h40c2.45 0 4.44-2.06 4.44-4.62V533.7c0-2.57-2-4.63-4.45-4.63h-40zm53.32 0c-2.46 0-4.44 2.06-4.44 4.63v41.68c0 2.56 1.98 4.63 4.44 4.63h40c2.45 0 4.44-2.06 4.44-4.62V533.7c0-2.57-2-4.63-4.45-4.63h-39.98zm53.32 0c-2.46 0-4.44 2.06-4.44 4.63v41.68c0 2.56 1.98 4.63 4.44 4.63h40c2.45 0 4.43-2.06 4.43-4.62V533.7c0-2.57-1.98-4.63-4.44-4.63h-40zm53.32 0c-2.46 0-4.44 2.06-4.44 4.63v41.68c0 2.56 1.98 4.63 4.44 4.63h40c2.45 0 4.43-2.06 4.43-4.62V533.7c0-2.57-2-4.63-4.45-4.63h-40zm53.32 0c-2.46 0-4.44 2.06-4.44 4.63v41.68c0 2.56 1.98 4.63 4.44 4.63h40c2.45 0 4.43-2.06 4.43-4.62V533.7c0-2.57-1.97-4.63-4.43-4.63h-40zm53.32 0c-2.46 0-4.44 2.06-4.44 4.63v41.68c0 2.56 1.98 4.63 4.44 4.63h40c2.45 0 4.44-2.06 4.44-4.62V533.7c0-2.57-2-4.63-4.45-4.63h-40zm53.32 0c-2.46 0-4.44 2.06-4.44 4.63v41.68c0 2.56 1.98 4.63 4.44 4.63h40c2.45 0 4.44-2.06 4.44-4.62V533.7c0-2.57-1.98-4.63-4.45-4.63h-39.98zM152.3 584.64c-2.47 0-4.45 2.07-4.45 4.63v41.68c0 2.57 1.98 4.64 4.45 4.64h40c2.45 0 4.43-2.08 4.43-4.65v-41.68c0-2.56-1.98-4.63-4.44-4.63h-40zm53.3 0c-2.45 0-4.43 2.07-4.43 4.63v41.68c0 2.57 1.98 4.64 4.45 4.64h40c2.45 0 4.43-2.08 4.43-4.65v-41.68c0-2.56-1.98-4.63-4.44-4.63h-40zm53.33 0c-2.46 0-4.44 2.07-4.44 4.63v41.68c0 2.57 1.97 4.64 4.43 4.64h40c2.45 0 4.44-2.08 4.44-4.65v-41.68c0-2.56-2-4.63-4.45-4.63h-40zm53.32 0c-2.46 0-4.44 2.07-4.44 4.63v41.68c0 2.57 2 4.64 4.45 4.64h40c2.45 0 4.43-2.08 4.43-4.65v-41.68c0-2.56-1.98-4.63-4.44-4.63h-40zm53.32 0c-2.46 0-4.44 2.07-4.44 4.63v41.68c0 2.57 1.98 4.64 4.44 4.64h40c2.45 0 4.43-2.08 4.43-4.65v-41.68c0-2.56-1.98-4.63-4.44-4.63h-40zm53.32 0c-2.47 0-4.45 2.07-4.45 4.63v41.68c0 2.57 1.98 4.64 4.45 4.64h39.98c2.46 0 4.45-2.08 4.45-4.65v-41.68c0-2.56-1.98-4.63-4.45-4.63h-40zm53.32 0c-2.47 0-4.45 2.07-4.45 4.63v41.68c0 2.57 1.98 4.64 4.45 4.64h39.98c2.47 0 4.45-2.08 4.45-4.65v-41.68c0-2.56-1.98-4.63-4.45-4.63h-39.98zm53.3 0c-2.45 0-4.43 2.07-4.43 4.63v41.68c0 2.57 1.97 4.64 4.43 4.64h40c2.45 0 4.44-2.08 4.44-4.65v-41.68c0-2.56-2-4.63-4.45-4.63h-40zm53.33 0c-2.46 0-4.44 2.07-4.44 4.63v41.68c0 2.57 2 4.64 4.46 4.64h40c2.45 0 4.43-2.08 4.43-4.65v-41.68c0-2.56-2-4.63-4.45-4.63h-40zm53.32 0c-2.46 0-4.44 2.07-4.44 4.63v41.68c0 2.57 1.98 4.64 4.45 4.64h40c2.45 0 4.43-2.08 4.43-4.65v-41.68c0-2.56-1.97-4.63-4.43-4.63h-40zm-586.5 0c-2.48 0-4.46 2.07-4.46 4.63v41.68c0 2.57 2 4.63 4.46 4.63h93.3c2.47 0 4.45-2.06 4.45-4.63v-41.68c0-2.56-1.97-4.63-4.43-4.63H45.65zm19.85 4.63L81.2 607.8h-8.88v18.52H59V607.8h-8.9l15.42-18.53zm-19.34-60.2c-2.75 0-4.97 2.06-4.97 4.63v41.68c0 2.57 2.23 4.63 4.98 4.63h74.5c2.74 0 4.96-2.05 4.96-4.62V533.7c0-2.57-2.22-4.63-4.97-4.63h-74.5zm64.56 4.63h4.96c2.75 0 4.97 2.06 4.97 4.63v4.63c0 2.57-2.22 4.63-4.97 4.63h-4.96c-2.75 0-4.97-2.07-4.97-4.64v-4.63c0-2.57 2.22-4.63 4.97-4.63zm-65.08-60.2c-2.47 0-4.45 2.06-4.45 4.62v41.68c0 2.57 2 4.64 4.46 4.64h57.76c2.46 0 4.44-2.07 4.44-4.63v-41.68c0-2.56-1.98-4.63-4.44-4.63H45.65zm0 18.52h26.66l-8.9 9.26v-4.63H45.66v-4.63zm8.88-13.9v4.63h17.78v4.64H45.65l8.9-9.28zm650.82 111.15l15.68 18.53h-8.9v18.52h-13.3V607.8h-8.9l15.42-18.53zm-19.87-4.63c-2.47 0-4.45 2.07-4.45 4.63v41.7c0 2.55 1.98 4.62 4.45 4.62h146.63c2.46 0 4.44-2.08 4.44-4.64v-41.7c0-2.55-1.98-4.62-4.44-4.62H685.5zm35.54-359c-2.46 0-4.44 2.06-4.44 4.63v41.68c0 2.56 1.98 4.63 4.44 4.63h40c2.45 0 4.43-2.07 4.43-4.63v-41.68c0-2.57-1.98-4.64-4.44-4.64h-40zm-610.3 4.63h4.96c2.75 0 4.97 2.06 4.97 4.63v4.63c0 2.57-2.22 4.63-4.97 4.63h-4.96c-2.76 0-4.97-2.06-4.97-4.63v-4.63c0-2.57 2.2-4.63 4.97-4.63zm-64.57-4.63c-2.75 0-4.96 2.06-4.96 4.63v41.68c0 2.56 2.22 4.63 4.98 4.63h74.5c2.74 0 4.95-2.07 4.95-4.63v-41.7c0-2.55-2.2-4.62-4.96-4.62h-74.5zm52.8 55.57c-2.46 0-4.44 2.07-4.44 4.64v41.68c0 2.57 1.98 4.63 4.45 4.63h40c2.45 0 4.43-2.06 4.43-4.63v-41.68c0-2.56-1.97-4.63-4.43-4.63h-40zm53.32 0c-2.47 0-4.45 2.07-4.45 4.64v41.68c0 2.57 1.98 4.63 4.44 4.63h39.98c2.47 0 4.45-2.06 4.45-4.63v-41.68c0-2.56-1.98-4.63-4.44-4.63h-40zm53.3 0c-2.45 0-4.43 2.07-4.43 4.64v41.68c0 2.57 1.98 4.63 4.44 4.63h40c2.47 0 4.45-2.06 4.45-4.63v-41.68c0-2.56-1.98-4.63-4.44-4.63h-40zm53.33 0c-2.46 0-4.44 2.07-4.44 4.64v41.68c0 2.57 1.97 4.63 4.43 4.63h40c2.45 0 4.44-2.06 4.44-4.63v-41.68c0-2.56-2-4.63-4.45-4.63h-40zm53.32 0c-2.46 0-4.44 2.07-4.44 4.64v41.68c0 2.57 2 4.63 4.45 4.63h40c2.46 0 4.44-2.06 4.44-4.63v-41.68c0-2.56-2-4.63-4.45-4.63h-40zm53.32 0c-2.46 0-4.44 2.07-4.44 4.64v41.68c0 2.57 1.98 4.63 4.44 4.63h40c2.45 0 4.43-2.06 4.43-4.63v-41.68c0-2.56-1.98-4.63-4.44-4.63h-40zm53.32 0c-2.47 0-4.45 2.07-4.45 4.64v41.68c0 2.57 1.98 4.63 4.44 4.63h39.98c2.46 0 4.44-2.06 4.44-4.63v-41.68c0-2.56-1.98-4.63-4.44-4.63h-40zm53.3 0c-2.45 0-4.43 2.07-4.43 4.64v41.68c0 2.57 1.98 4.63 4.44 4.63h40c2.46 0 4.44-2.06 4.44-4.63v-41.68c0-2.56-1.98-4.63-4.44-4.63h-40zm53.33 0c-2.46 0-4.44 2.07-4.44 4.64v41.68c0 2.57 1.97 4.63 4.43 4.63h40c2.45 0 4.44-2.06 4.44-4.63v-41.68c0-2.56-1.98-4.63-4.45-4.63h-40zm53.32 0c-2.46 0-4.44 2.07-4.44 4.64v41.68c0 2.57 2 4.63 4.46 4.63h40c2.45 0 4.43-2.06 4.43-4.63v-41.68c0-2.56-2-4.63-4.46-4.63h-40zm53.32 0c-2.46 0-4.44 2.07-4.44 4.64v41.68c0 2.57 1.98 4.63 4.45 4.63h40c2.45 0 4.43-2.06 4.43-4.63v-41.68c0-2.56-1.97-4.63-4.43-4.63h-40zm-566.65 4.64l15.68 18.53h-8.9v18.52H59v-18.53h-8.9l15.42-18.53zm-19.87-4.63c-2.46 0-4.44 2.07-4.44 4.64v41.68c0 2.57 2 4.63 4.46 4.63h40c2.45 0 4.43-2.06 4.43-4.63v-41.68c0-2.56-2-4.63-4.45-4.63h-40zm659.7 4.64l15.7 18.52h-8.9v18.53h-13.33v-18.54h-8.88l15.42-18.52zm-19.86-4.63c-2.47 0-4.45 2.07-4.45 4.64v41.68c0 2.57 1.98 4.63 4.44 4.63H832.1c2.47 0 4.45-2.06 4.45-4.63v-41.68c0-2.57-1.98-4.63-4.45-4.63H685.5zM45.64 417.93c-2.46 0-4.44 2.06-4.44 4.63v41.68c0 2.56 2 4.63 4.46 4.63h40c2.45 0 4.43-2.07 4.43-4.63v-41.68c0-2.57-2-4.64-4.45-4.64h-40zm53.32 0c-2.46 0-4.44 2.06-4.44 4.63v41.68c0 2.56 1.98 4.63 4.45 4.63h40c2.45 0 4.43-2.07 4.43-4.63v-41.68c0-2.57-1.97-4.64-4.43-4.64h-40zm53.32 0c-2.47 0-4.45 2.06-4.45 4.63v41.68c0 2.56 1.98 4.63 4.44 4.63h40c2.45 0 4.43-2.07 4.43-4.63v-41.68c0-2.57-1.98-4.64-4.44-4.64h-40zm53.3 0c-2.45 0-4.43 2.06-4.43 4.63v41.68c0 2.56 1.98 4.63 4.44 4.63h40c2.47 0 4.45-2.07 4.45-4.63v-41.68c0-2.57-1.98-4.64-4.44-4.64h-40zm53.33 0c-2.46 0-4.44 2.06-4.44 4.63v41.68c0 2.56 1.97 4.63 4.43 4.63h40c2.46 0 4.44-2.07 4.44-4.63v-41.68c0-2.57-1.98-4.64-4.45-4.64h-40zm53.33 0c-2.46 0-4.45 2.06-4.45 4.63v41.68c0 2.56 2 4.63 4.45 4.63h40c2.45 0 4.43-2.07 4.43-4.63v-41.68c0-2.57-1.98-4.64-4.44-4.64h-40zm53.32 0c-2.47 0-4.45 2.06-4.45 4.63v41.68c0 2.56 1.98 4.63 4.44 4.63h40c2.45 0 4.43-2.07 4.43-4.63v-41.68c0-2.57-1.98-4.64-4.44-4.64h-40zm53.32 0c-2.47 0-4.45 2.06-4.45 4.63v41.68c0 2.56 1.98 4.63 4.45 4.63h39.98c2.46 0 4.45-2.07 4.45-4.63v-41.68c0-2.57-1.98-4.64-4.45-4.64h-40zm53.32 0c-2.47 0-4.45 2.06-4.45 4.63v41.68c0 2.56 1.98 4.63 4.45 4.63h39.98c2.47 0 4.45-2.07 4.45-4.63v-41.68c0-2.57-1.98-4.64-4.44-4.64h-39.98zm53.3 0c-2.45 0-4.43 2.06-4.43 4.63v41.68c0 2.56 1.97 4.63 4.43 4.63h40c2.45 0 4.44-2.07 4.44-4.63v-41.68c0-2.57-2-4.64-4.45-4.64h-40zm53.33 0c-2.46 0-4.44 2.06-4.44 4.63v41.68c0 2.56 2 4.63 4.46 4.63h40c2.45 0 4.43-2.07 4.43-4.63v-41.68c0-2.57-2-4.64-4.45-4.64h-40zm53.32 0c-2.46 0-4.44 2.06-4.44 4.63v41.68c0 2.56 1.98 4.63 4.45 4.63h40c2.45 0 4.43-2.07 4.43-4.63v-41.68c0-2.57-1.97-4.64-4.43-4.64h-40zm53.33 0c-2.47 0-4.45 2.06-4.45 4.63v41.68c0 2.56 1.98 4.63 4.45 4.63h40c2.45 0 4.43-2.07 4.43-4.63v-41.68c0-2.57-1.98-4.64-4.44-4.64h-40zm53.32 0c-2.47 0-4.45 2.06-4.45 4.63v41.68c0 2.56 1.98 4.63 4.45 4.63h40c2.45 0 4.43-2.07 4.43-4.63v-41.68c0-2.57-1.98-4.64-4.44-4.64h-39.98zm64.43 13.9h24.43v23.15h-24.1l-11.44-11.82 11.1-11.34zm28.87-13.9h-40c-2.45 0-4.43 2.06-4.43 4.63v41.68c0 2.56 1.97 4.63 4.44 4.63h40c2.45 0 4.43-2.07 4.43-4.63v-41.7c0-2.55-1.98-4.62-4.44-4.62zm-715.37 55.57c-2.46 0-4.44 2.06-4.44 4.62v41.68c0 2.57 2 4.63 4.45 4.63h40c2.45 0 4.43-2.06 4.43-4.63v-41.68c0-2.56-1.98-4.63-4.44-4.63h-40zm53.32 0c-2.46 0-4.44 2.06-4.44 4.62v41.68c0 2.57 1.98 4.63 4.44 4.63h40c2.45 0 4.43-2.06 4.43-4.63v-41.68c0-2.56-1.98-4.63-4.44-4.63h-40zm53.32 0c-2.47 0-4.45 2.06-4.45 4.62v41.68c0 2.57 1.98 4.63 4.44 4.63h39.98c2.46 0 4.44-2.06 4.44-4.63v-41.68c0-2.56-1.98-4.63-4.44-4.63h-40zm53.3 0c-2.45 0-4.44 2.06-4.44 4.62v41.68c0 2.57 1.98 4.63 4.45 4.63h40c2.46 0 4.44-2.06 4.44-4.63v-41.68c0-2.56-1.98-4.63-4.44-4.63h-40zm53.33 0c-2.46 0-4.45 2.06-4.45 4.62v41.68c0 2.57 1.98 4.63 4.45 4.63h40c2.45 0 4.43-2.06 4.43-4.63v-41.68c0-2.56-1.98-4.63-4.44-4.63h-40zm53.32 0c-2.46 0-4.45 2.06-4.45 4.62v41.68c0 2.57 1.98 4.63 4.45 4.63h40c2.45 0 4.43-2.06 4.43-4.63v-41.68c0-2.56-1.98-4.63-4.45-4.63h-40zm53.32 0c-2.46 0-4.45 2.06-4.45 4.62v41.68c0 2.57 1.98 4.63 4.45 4.63h40c2.45 0 4.43-2.06 4.43-4.63v-41.68c0-2.56-1.98-4.63-4.44-4.63h-40zm53.32 0c-2.47 0-4.46 2.06-4.46 4.62v41.68c0 2.57 1.98 4.63 4.45 4.63h39.98c2.46 0 4.44-2.06 4.44-4.63v-41.68c0-2.56-1.98-4.63-4.45-4.63h-40zm53.3 0c-2.45 0-4.44 2.06-4.44 4.62v41.68c0 2.57 2 4.63 4.45 4.63h40c2.46 0 4.44-2.06 4.44-4.63v-41.68c0-2.56-1.98-4.63-4.44-4.63h-40zm53.33 0c-2.46 0-4.45 2.06-4.45 4.62v41.68c0 2.57 2 4.63 4.45 4.63h40c2.45 0 4.43-2.06 4.43-4.63v-41.68c0-2.56-1.98-4.63-4.44-4.63h-40zm53.32 0c-2.46 0-4.44 2.06-4.44 4.62v41.68c0 2.57 2 4.63 4.45 4.63h40c2.45 0 4.43-2.06 4.43-4.63v-41.68c0-2.56-1.98-4.63-4.44-4.63h-40zm53.32 0c-2.46 0-4.44 2.06-4.44 4.62v41.68c0 2.57 1.98 4.63 4.44 4.63h40c2.45 0 4.43-2.06 4.43-4.63v-41.68c0-2.56-2-4.63-4.45-4.63h-40z"/>
  <path fill="#ff8989" d="M525.22 347.07h3.56v2.26l.05-.05q.02-.06.05-.08l.26-.5.2-.47q.27-.53.58-.87.33-.34.98-.34l.14.02h.3q.03.03.08.03h.12V352h-1.02q-.93 0-1.26.38-.3.37-.3 1.5v8.5h-3.75v-15.3zm-2.13 2.63h-3.8v-1.73q0-.85-.35-1.27-.33-.42-.76-.47h-.2q-.47.03-.88.4-.38.36-.4 1v9.3q0 1.1.38 1.68.4.56.88.64l.1.02h.2q.4-.05.7-.42.33-.4.33-.97v-2.5h-1.5v-3.57h5.3v10.57h-3.46v-1.5l-.1.15-.1.16q-.27.53-.77.95-.5.4-1.95.4-1.55 0-2.4-.93-.84-.94-1.17-2.07-.2-.55-.26-1.08-.08-.55-.08-.97v-9.65q0-2.47 1.6-3.78 1.6-1.32 3.53-1.4h.22q1.76 0 3.23 1.08 1.5 1.05 1.7 3.16v2.8zm-16-5.86h3.72v3.23h1.05v3h-1.05v8.17q0 .58.1.9.1.28.54.28h.07q.05-.02.12-.02h.05q.05-.03.1-.03h.07v3h-2.4q-1.4 0-1.9-.7-.48-.72-.48-2.1v-9.5h-1.04v-3h1.03v-3.23zm-5.96-.76h3.73v19.3h-3.73v-19.3zm-10.07.18h5.3l3.1 19.1h-4.12l-.33-3.36h-2.76l-.53 3.37h-3.9l3.24-19.1zm1.52 12.3h2.08l-1.02-9.44-1.07 9.44zm-2.6-18.78c-2.47 0-4.46 2.07-4.46 4.63v41.7c0 2.56 1.98 4.63 4.45 4.63h39.98c2.46 0 4.44-2.07 4.44-4.63v-41.7c0-2.55-1.98-4.62-4.44-4.62h-40z" style="line-height:125%;text-align:start"/>
  <g fill="#ff8989">
    <path d="M138 172h22v22h-22z"/>
    <rect width="22" height="22" x="191" y="172" rx="5" ry="5"/>
    <rect width="22" height="22" x="244" y="172" rx="5" ry="5"/>
    <rect width="22" height="22" x="316" y="228" rx="5" ry="5"/>
    <rect width="22" height="22" x="369" y="228" rx="5" ry="5"/>
    <rect width="22" height="22" x="227" y="284" rx="5" ry="5"/>
    <rect width="22" height="22" x="280" y="284" rx="5" ry="5"/>
    <rect width="22" height="22" x="333" y="284" rx="5" ry="5"/>
    <rect width="22" height="22" x="387" y="284" rx="5" ry="5"/>
    <rect width="22" height="22" x="440" y="284" rx="5" ry="5"/>
    <rect width="22" height="22" x="547" y="284" rx="5" ry="5"/>
    <rect width="22" height="22" x="600" y="284" rx="5" ry="5"/>
  </g>
  <g fill="#fea">
    <rect width="22" height="22" x="630" y="117" rx="5" ry="5"/>
    <rect width="22" height="22" x="648" y="172" rx="5" ry="5"/>
    <rect width="22" height="22" x="701" y="172" rx="5" ry="5"/>
    <rect width="22" height="22" x="612" y="228" rx="5" ry="5"/>
    <rect width="22" height="22" x="665" y="228" rx="5" ry="5"/>
    <rect width="22" height="22" x="719" y="228" rx="5" ry="5"/>
    <rect width="22" height="22" x="97" y="284" rx="5" ry="5"/>
    <rect width="22" height="22" x="577" y="284" rx="5" ry="5"/>
    <rect width="22" height="22" x="630" y="284" rx="5" ry="5"/>
    <rect width="22" height="22" x="97" y="141" rx="5" ry="5"/>
    <rect width="22" height="22" x="630" y="141" rx="5" ry="5"/>
    <rect width="22" height="22" x="701" y="197" rx="5" ry="5"/>
    <rect width="22" height="22" x="97" y="308" rx="5" ry="5"/>
    <rect width="22" height="22" x="523" y="308" rx="5" ry="5"/>
    <rect width="22" height="22" x="577" y="308" rx="5" ry="5"/>
    <rect width="22" height="22" x="630" y="308" rx="5" ry="5"/>
    <rect width="22" height="22" x="43" y="141" rx="5" ry="5"/>
    <rect width="22" height="22" x="97" y="420" rx="5" ry="5"/>
    <rect width="22" height="22" x="150" y="420" rx="5" ry="5"/>
    <rect width="22" height="22" x="203" y="420" rx="5" ry="5"/>
    <rect width="22" height="22" x="310" y="420" rx="5" ry="5"/>
    <rect width="22" height="22" x="363" y="420" rx="5" ry="5"/>
    <rect width="22" height="22" x="417" y="420" rx="5" ry="5"/>
    <rect width="22" height="22" x="470" y="420" rx="5" ry="5"/>
    <rect width="22" height="22" x="523" y="420" rx="5" ry="5"/>
    <rect width="22" height="22" x="577" y="420" rx="5" ry="5"/>
    <rect width="22" height="22" x="630" y="445" rx="5" ry="5"/>
    <rect width="22" height="22" x="630" y="420" rx="5" ry="5"/>
    <rect width="22" height="22" x="683" y="445" rx="5" ry="5"/>
    <rect width="22" height="22" x="683" y="420" rx="5" ry="5"/>
    <rect width="22" height="22" x="648" y="500" rx="5" ry="5"/>
    <rect width="22" height="22" x="648" y="476" rx="5" ry="5"/>
    <rect width="22" height="22" x="701" y="500" rx="5" ry="5"/>
    <rect width="22" height="22" x="701" y="476" rx="5" ry="5"/>
    <rect width="22" height="22" x="612" y="556" rx="5" ry="5"/>
    <rect width="22" height="22" x="612" y="531" rx="5" ry="5"/>
    <rect width="22" height="22" x="665" y="556" rx="5" ry="5"/>
    <rect width="22" height="22" x="665" y="531" rx="5" ry="5"/>
    <rect width="22" height="22" x="737" y="445" rx="5" ry="5"/>
    <rect width="22" height="22" x="737" y="420" rx="5" ry="5"/>
    <rect width="22" height="22" x="523" y="611" rx="5" ry="5"/>
    <rect width="22" height="22" x="523" y="587" rx="5" ry="5"/>
    <rect width="22" height="22" x="577" y="611" rx="5" ry="5"/>
    <rect width="22" height="22" x="577" y="587" rx="5" ry="5"/>
    <rect width="22" height="22" x="630" y="611" rx="5" ry="5"/>
    <rect width="22" height="22" x="43" y="420" rx="5" ry="5"/>
  </g>
  <g fill="none">
    <rect width="22" height="22" x="683" y="141" rx="5" ry="5"/>
    <rect width="22" height="22" x="97" y="117" rx="5" ry="5"/>
    <rect width="22" height="22" x="150" y="141" rx="5" ry="5"/>
    <rect width="22" height="22" x="150" y="117" rx="5" ry="5"/>
    <rect width="22" height="22" x="203" y="141" rx="5" ry="5"/>
    <rect width="22" height="22" x="203" y="117" rx="5" ry="5"/>
    <rect width="22" height="22" x="257" y="141" rx="5" ry="5"/>
    <rect width="22" height="22" x="257" y="117" rx="5" ry="5"/>
    <rect width="22" height="22" x="310" y="141" rx="5" ry="5"/>
    <rect width="22" height="22" x="310" y="117" rx="5" ry="5"/>
    <rect width="22" height="22" x="363" y="141" rx="5" ry="5"/>
    <rect width="22" height="22" x="363" y="117" rx="5" ry="5"/>
    <rect width="22" height="22" x="417" y="141" rx="5" ry="5"/>
    <rect width="22" height="22" x="417" y="117" rx="5" ry="5"/>
    <rect width="22" height="22" x="470" y="141" rx="5" ry="5"/>
    <rect width="22" height="22" x="470" y="117" rx="5" ry="5"/>
    <rect width="22" height="22" x="523" y="141" rx="5" ry="5"/>
    <rect width="22" height="22" x="523" y="117" rx="5" ry="5"/>
    <rect width="22" height="22" x="577" y="141" rx="5" ry="5"/>
    <rect width="22" height="22" x="577" y="117" rx="5" ry="5"/>
    <rect width="22" height="22" x="683" y="117" rx="5" ry="5"/>
    <rect width="22" height="22" x="115" y="172" rx="5" ry="5"/>
    <rect width="22" height="22" x="168" y="172" rx="5" ry="5"/>
    <rect width="22" height="22" x="221" y="172" rx="5" ry="5"/>
    <rect width="22" height="22" x="274" y="172" rx="5" ry="5"/>
    <rect width="22" height="22" x="328" y="172" rx="5" ry="5"/>
    <rect width="22" height="22" x="381" y="197" rx="5" ry="5"/>
    <rect width="22" height="22" x="381" y="172" rx="5" ry="5"/>
    <rect width="22" height="22" x="434" y="172" rx="5" ry="5"/>
    <rect width="22" height="22" x="488" y="172" rx="5" ry="5"/>
    <rect width="22" height="22" x="541" y="172" rx="5" ry="5"/>
    <rect width="22" height="22" x="594" y="172" rx="5" ry="5"/>
    <rect width="22" height="22" x="648" y="197" rx="5" ry="5"/>
    <rect width="22" height="22" x="132" y="228" rx="5" ry="5"/>
    <rect width="22" height="22" x="186" y="228" rx="5" ry="5"/>
    <rect width="22" height="22" x="239" y="228" rx="5" ry="5"/>
    <rect width="22" height="22" x="292" y="228" rx="5" ry="5"/>
    <rect width="22" height="22" x="346" y="228" rx="5" ry="5"/>
    <rect width="22" height="22" x="399" y="228" rx="5" ry="5"/>
    <rect width="22" height="22" x="452" y="228" rx="5" ry="5"/>
    <rect width="22" height="22" x="506" y="228" rx="5" ry="5"/>
    <rect width="22" height="22" x="559" y="228" rx="5" ry="5"/>
    <rect width="22" height="22" x="612" y="252" rx="5" ry="5"/>
    <rect width="22" height="22" x="665" y="252" rx="5" ry="5"/>
    <rect width="22" height="22" x="719" y="252" rx="5" ry="5"/>
    <rect width="22" height="22" x="150" y="308" rx="5" ry="5"/>
    <rect width="22" height="22" x="150" y="284" rx="5" ry="5"/>
    <rect width="22" height="22" x="203" y="284" rx="5" ry="5"/>
    <rect width="22" height="22" x="257" y="284" rx="5" ry="5"/>
    <rect width="22" height="22" x="310" y="284" rx="5" ry="5"/>
    <rect width="22" height="22" x="363" y="284" rx="5" ry="5"/>
    <rect width="22" height="22" x="417" y="284" rx="5" ry="5"/>
    <rect width="22" height="22" x="470" y="284" rx="5" ry="5"/>
    <rect width="22" height="22" x="43" y="117" rx="5" ry="5"/>
    <rect width="22" height="22" x="97" y="445" rx="5" ry="5"/>
    <rect width="22" height="22" x="150" y="445" rx="5" ry="5"/>
    <rect width="22" height="22" x="203" y="445" rx="5" ry="5"/>
    <rect width="22" height="22" x="257" y="445" rx="5" ry="5"/>
    <rect width="22" height="22" x="257" y="420" rx="5" ry="5"/>
    <rect width="22" height="22" x="310" y="445" rx="5" ry="5"/>
    <rect width="22" height="22" x="363" y="445" rx="5" ry="5"/>
    <rect width="22" height="22" x="417" y="445" rx="5" ry="5"/>
    <rect width="22" height="22" x="470" y="445" rx="5" ry="5"/>
    <rect width="22" height="22" x="523" y="445" rx="5" ry="5"/>
    <rect width="22" height="22" x="577" y="445" rx="5" ry="5"/>
    <rect width="22" height="22" x="541" y="476" rx="5" ry="5"/>
    <rect width="22" height="22" x="594" y="476" rx="5" ry="5"/>
    <rect width="22" height="22" x="506" y="531" rx="5" ry="5"/>
    <rect width="22" height="22" x="559" y="531" rx="5" ry="5"/>
    <rect width="22" height="22" x="43" y="445" rx="5" ry="5"/>
    <rect width="22" height="22" x="115" y="476" rx="5" ry="5"/>
    <rect width="22" height="22" x="168" y="476" rx="5" ry="5"/>
    <rect width="22" height="22" x="221" y="476" rx="5" ry="5"/>
    <rect width="22" height="22" x="274" y="476" rx="5" ry="5"/>
    <rect width="22" height="22" x="328" y="476" rx="5" ry="5"/>
    <rect width="22" height="22" x="381" y="476" rx="5" ry="5"/>
    <rect width="22" height="22" x="434" y="476" rx="5" ry="5"/>
    <rect width="22" height="22" x="488" y="476" rx="5" ry="5"/>
    <rect width="22" height="22" x="132" y="531" rx="5" ry="5"/>
    <rect width="22" height="22" x="186" y="531" rx="5" ry="5"/>
    <rect width="22" height="22" x="239" y="531" rx="5" ry="5"/>
    <rect width="22" height="22" x="292" y="531" rx="5" ry="5"/>
    <rect width="22" height="22" x="346" y="531" rx="5" ry="5"/>
    <rect width="22" height="22" x="399" y="531" rx="5" ry="5"/>
    <rect width="22" height="22" x="452" y="531" rx="5" ry="5"/>
    <rect width="22" height="22" x="506" y="531" rx="5" ry="5"/>
    <rect width="22" height="22" x="150" y="587" rx="5" ry="5"/>
    <rect width="22" height="22" x="203" y="587" rx="5" ry="5"/>
    <rect width="22" height="22" x="257" y="587" rx="5" ry="5"/>
    <rect width="22" height="22" x="310" y="587" rx="5" ry="5"/>
    <rect width="22" height="22" x="363" y="587" rx="5" ry="5"/>
    <rect width="22" height="22" x="417" y="587" rx="5" ry="5"/>
    <rect width="22" height="22" x="470" y="587" rx="5" ry="5"/>
  </g>
  <g text-anchor="middle" class="l">
    <text x="55" y="135">
      °
    </text>
    <text x="107" y="135">
      1
    </text>
    <text x="160" y="135">
      2
    </text>
    <text x="214" y="135">
      3
    </text>
    <text x="268" y="135">
      4
    </text>
    <text x="320" y="135">
      5
    </text>
    <text x="374" y="135">
      6
    </text>
    <text x="427" y="135">
      7
    </text>
    <text x="480" y="135">
      8
    </text>
    <text x="535" y="135">
      9
    </text>
    <text x="587" y="135">
      0
    </text>
    <text x="640" y="135">
      %
    </text>
    <text x="694" y="135">
      ˇ
    </text>
    <text x="55" y="157">
      ;
    </text>
    <text x="107" y="157">
      +
    </text>
    <text x="160" y="157">
      ě
    </text>
    <text x="214" y="157">
      š
    </text>
    <text x="268" y="157">
      č
    </text>
    <text x="320" y="157">
      ř
    </text>
    <text x="374" y="157">
      ž
    </text>
    <text x="427" y="157">
      ý
    </text>
    <text x="480" y="157">
      á
    </text>
    <text x="535" y="157">
      í
    </text>
    <text x="587" y="157">
      é
    </text>
    <text x="640" y="157">
      =
    </text>
    <text x="694" y="157">
      ´
    </text>
    <g>
      <text x="125" y="189">
        Q
      </text>
      <text x="178" y="189">
        W
      </text>
      <text x="232" y="189">
        E
      </text>
      <text x="285" y="189">
        R
      </text>
      <text x="339" y="189">
        T
      </text>
      <text x="392" y="189">
        Z
      </text>
      <text x="445" y="189">
        U
      </text>
      <text x="499" y="189">
        I
      </text>
      <text x="552" y="189">
        O
      </text>
      <text x="605" y="189">
        P
      </text>
      <text x="659" y="189">
        /
      </text>
      <text x="712" y="189">
        (
      </text>
      <text x="150" y="189">
        \
      </text>
      <text x="203" y="189">
        |
      </text>
      <text x="256" y="189">
        €
      </text>
    </g>
    <g>
      <text x="392" y="213" fill="#ccc">
        Y
      </text>
      <text x="659" y="213">
        ú
      </text>
      <text x="712" y="213">
        )
      </text>
    </g>
    <g>
      <text x="143" y="246">
        A
      </text>
      <text x="196" y="246">
        S
      </text>
      <text x="250" y="246">
        D
      </text>
      <text x="303" y="246">
        F
      </text>
      <text x="356" y="246">
        G
      </text>
      <text x="410" y="246">
        H
      </text>
      <text x="463" y="246">
        J
      </text>
      <text x="516" y="246">
        K
      </text>
      <text x="570" y="246">
        L
      </text>
      <text x="623" y="246">
        &quot;
      </text>
      <text x="677" y="246">
        !
      </text>
      <text x="730" y="246">
        &apos;
      </text>
      <text x="328" y="244">
        [
      </text>
      <text x="381" y="244">
        ]
      </text>
    </g>
    <g>
      <text x="623" y="268">
        ů
      </text>
      <text x="677" y="268">
        §
      </text>
      <text x="730" y="268">
        ¨
      </text>
    </g>
    <g>
      <text x="108" y="300">
        |
      </text>
      <text x="161" y="300">
        Y
      </text>
      <text x="215" y="300">
        X
      </text>
      <text x="268" y="300">
        C
      </text>
      <text x="321" y="300">
        V
      </text>
      <text x="375" y="300">
        B
      </text>
      <text x="428" y="300">
        N
      </text>
      <text x="481" y="300">
        M
      </text>
      <text x="535" y="300">
        ?
      </text>
      <text x="588" y="300">
        :
      </text>
      <text x="641" y="300">
        _
      </text>
      <text x="240" y="300">
        #
      </text>
      <text x="292" y="300">
        &amp;
      </text>
      <text x="345" y="300">
        @
      </text>
      <text x="399" y="299">
        {
      </text>
      <text x="452" y="299">
        }
      </text>
      <text x="558" y="300">
        &lt;
      </text>
      <text x="612" y="300">
        &gt;
      </text>
    </g>
    <g>
      <text x="109" y="324">
        \
      </text>
      <text x="161" y="324" fill="#ccc">
        Z
      </text>
      <text x="535" y="324">
        ,
      </text>
      <text x="588" y="324">
        .
      </text>
      <text x="641" y="324">
        -
      </text>
    </g>
    <g>
      <text x="55" y="436">
        ~
      </text>
      <text x="107" y="436">
        !
      </text>
      <text x="160" y="436">
        @
      </text>
      <text x="214" y="436">
        #
      </text>
      <text x="268" y="436">
        $
      </text>
      <text x="320" y="436">
        %
      </text>
      <text x="374" y="436">
        ^
      </text>
      <text x="427" y="436">
        &amp;
      </text>
      <text x="480" y="436">
        *
      </text>
      <text x="535" y="436">
        (
      </text>
      <text x="587" y="436">
        )
      </text>
      <text x="640" y="436">
        _
      </text>
      <text x="694" y="436">
        +
      </text>
      <text x="748" y="436">
        |
      </text>
    </g>
    <g>
      <text x="55" y="462">
        `
      </text>
      <text x="107" y="462">
        1
      </text>
      <text x="160" y="462">
        2
      </text>
      <text x="214" y="462">
        3
      </text>
      <text x="268" y="462">
        4
      </text>
      <text x="320" y="462">
        5
      </text>
      <text x="374" y="462">
        6
      </text>
      <text x="427" y="462">
        7
      </text>
      <text x="480" y="462">
        8
      </text>
      <text x="535" y="462">
        9
      </text>
      <text x="587" y="462">
        0
      </text>
      <text x="640" y="462">
        -
      </text>
      <text x="694" y="462">
        =
      </text>
      <text x="748" y="462">
        \
      </text>
    </g>
    <g>
      <text x="125" y="492">
        Q
      </text>
      <text x="178" y="492">
        W
      </text>
      <text x="232" y="492">
        E
      </text>
      <text x="285" y="492">
        R
      </text>
      <text x="339" y="492">
        T
      </text>
      <text x="392" y="492">
        Y
      </text>
      <text x="445" y="492">
        U
      </text>
      <text x="499" y="492">
        I
      </text>
      <text x="552" y="492">
        O
      </text>
      <text x="605" y="492">
        P
      </text>
      <text x="659" y="492">
        {
      </text>
      <text x="712" y="492">
        }
      </text>
    </g>
    <g>
      <text x="659" y="515">
        [
      </text>
      <text x="712" y="515">
        ]
      </text>
    </g>
    <g>
      <text x="143" y="549">
        A
      </text>
      <text x="196" y="549">
        S
      </text>
      <text x="250" y="549">
        D
      </text>
      <text x="303" y="549">
        F
      </text>
      <text x="356" y="549">
        G
      </text>
      <text x="410" y="549">
        H
      </text>
      <text x="463" y="549">
        J
      </text>
      <text x="516" y="549">
        K
      </text>
      <text x="570" y="549">
        L
      </text>
      <text x="623" y="549">
        :
      </text>
      <text x="677" y="549">
        &quot;
      </text>
    </g>
    <g>
      <text x="623" y="572">
        ;
      </text>
      <text x="677" y="572">
        &apos;
      </text>
    </g>
    <g>
      <text x="161" y="604">
        Z
      </text>
      <text x="215" y="604">
        X
      </text>
      <text x="268" y="604">
        C
      </text>
      <text x="321" y="604">
        V
      </text>
      <text x="375" y="604">
        B
      </text>
      <text x="428" y="604">
        N
      </text>
      <text x="481" y="604">
        M
      </text>
      <text x="535" y="604">
        &lt;
      </text>
      <text x="588" y="604">
        &gt;
      </text>
      <text x="641" y="604">
        ?
      </text>
    </g>
    <g>
      <text x="535" y="628">
        ,
      </text>
      <text x="588" y="628">
        .
      </text>
      <text x="641" y="628">
        /
      </text>
    </g>
  </g>
  <g fill="#cecece">
    <rect width="18" height="18" x="884" y="126" rx="5" ry="5"/>
    <rect width="18" height="18" x="884" y="146" rx="5" ry="5"/>
    <rect width="18" height="18" x="884" y="166" rx="5" ry="5"/>
    <rect width="18" height="18" x="884" y="186" rx="5" ry="5"/>
    <rect width="18" height="18" x="884" y="206" rx="5" ry="5"/>
    <rect width="18" height="18" x="884" y="226" rx="5" ry="5"/>
    <rect width="18" height="18" x="884" y="246" rx="5" ry="5"/>
    <rect width="18" height="18" x="884" y="266" rx="5" ry="5"/>
    <rect width="18" height="18" x="864" y="286" rx="5" ry="5"/>
    <rect width="18" height="18" x="884" y="286" rx="5" ry="5"/>
    <rect width="18" height="18" x="884" y="306" rx="5" ry="5"/>
    <rect width="18" height="18" x="884" y="326" rx="5" ry="5"/>
    <rect width="18" height="18" x="884" y="346" rx="5" ry="5"/>
    <rect width="18" height="18" x="884" y="366" rx="5" ry="5"/>
    <rect width="18" height="18" x="884" y="386" rx="5" ry="5"/>
    <rect width="18" height="18" x="884" y="406" rx="5" ry="5"/>
    <rect width="18" height="18" x="884" y="426" rx="5" ry="5"/>
    <rect width="18" height="18" x="884" y="446" rx="5" ry="5"/>
    <rect width="18" height="18" x="884" y="466" rx="5" ry="5"/>
    <rect width="18" height="18" x="884" y="486" rx="5" ry="5"/>
    <rect width="18" height="18" x="864" y="506" rx="5" ry="5"/>
    <rect width="18" height="18" x="884" y="506" rx="5" ry="5"/>
    <rect width="18" height="18" x="864" y="526" rx="5" ry="5"/>
    <rect width="18" height="18" x="884" y="526" rx="5" ry="5"/>
    <rect width="18" height="18" x="864" y="546" rx="5" ry="5"/>
    <rect width="18" height="18" x="884" y="546" rx="5" ry="5"/>
    <rect width="18" height="18" x="864" y="566" rx="5" ry="5"/>
    <rect width="18" height="18" x="884" y="566" rx="5" ry="5"/>
    <rect width="18" height="18" x="884" y="586" rx="5" ry="5"/>
  </g>
  <text x="905" y="140" font-size="14">
    <tspan x="905">plus</tspan> <tspan x="905" dy="20">hvězdička</tspan> <tspan x="905" dy="20">minus</tspan> <tspan x="905" dy="20">lomítko</tspan> <tspan x="905" dy="20">procenta</tspan> <tspan x="905" dy="20">zavináč</tspan> <tspan x="905" dy="20">rovná se</tspan> <tspan x="905" dy="20">vykřičník</tspan> <tspan x="905" dy="20">uvozovky</tspan> <tspan x="905" dy="20">zpětné lomítko</tspan> <tspan x="905" dy="20">čárka</tspan> <tspan x="905" dy="20">tečka</tspan> <tspan x="905" dy="20">dvojtečka</tspan> <tspan x="905" dy="20">středník</tspan> <tspan x="905" dy="20">mřížka</tspan> <tspan x="905" dy="20">ampersand</tspan> <tspan x="905" dy="20">svislítko</tspan> <tspan x="905" dy="20">stříška</tspan> <tspan x="905" dy="20">tilda</tspan> <tspan x="905" dy="20">závorky</tspan> <tspan x="905" dy="20">složené závorky</tspan> <tspan x="905" dy="20">hranaté závorky</tspan> <tspan x="905" dy="20">ostré závorky</tspan> <tspan x="905" dy="20">podtržítko</tspan>
  </text>
  <text x="890" y="139" font-size="14" text-anchor="middle">
    <tspan x="895">+</tspan> <tspan x="895" dy="20">*</tspan> <tspan x="895" dy="20">-</tspan> <tspan x="895" dy="20">/</tspan> <tspan x="895" dy="20">%</tspan> <tspan x="895" dy="20">@</tspan> <tspan x="895" dy="20">=</tspan> <tspan x="895" dy="20">!</tspan> <tspan x="885" dy="20">&apos;</tspan> <tspan dx="16" dy="0">&quot;</tspan> <tspan x="895" dy="20">\</tspan> <tspan x="895" dy="20">,</tspan> <tspan x="895" dy="20">.</tspan> <tspan x="895" dy="20">:</tspan> <tspan x="895" dy="20">;</tspan> <tspan x="895" dy="20">#</tspan> <tspan x="895" dy="20">&amp;</tspan> <tspan x="895" dy="20">|</tspan> <tspan x="895" dy="20">^</tspan> <tspan x="895" dy="20">~</tspan> <tspan x="885" dy="20">(</tspan> <tspan dx="16" dy="0">)</tspan> <tspan x="885" dy="20">{</tspan> <tspan dx="16" dy="0">}</tspan> <tspan x="885" dy="20">[</tspan> <tspan dx="16" dy="0">]</tspan> <tspan x="885" dy="20">&lt;</tspan> <tspan dx="16" dy="0">&gt;</tspan> <tspan x="893" dy="20">_</tspan>
  </text>
  <path fill="#aab2ab" d="M658.7 645.3l31.57.07c.44 0 .83-.07.83.9l-.04 10.85H657.9v-10.88c0-.48.04-.93.8-.93z"/>
  <path fill="#fff" d="M667.36 650.86c0 2.18-1.7 3.95-3.8 3.96-2.1 0-3.8-1.77-3.8-3.96 0-2.2 1.7-3.96 3.8-3.96 2.1 0 3.8 1.77 3.8 3.95z"/>
  <path d="M666.65 647.63c.84.88 1.26 1.95 1.26 3.22 0 1.28-.4 2.34-1.23 3.2-.88.9-1.9 1.35-3.1 1.35-1.2 0-2.22-.45-3.07-1.34-.86-.9-1.3-1.97-1.3-3.2 0-1.25.44-2.32 1.3-3.23.83-.88 1.85-1.32 3.05-1.32 1.23 0 2.26.45 3.1 1.33zm-5.6.6c-.7.74-1.05 1.62-1.05 2.63 0 1 .35 1.87 1.05 2.6.7.74 1.55 1.1 2.52 1.1s1.82-.36 2.54-1.1c.7-.7 1.03-1.56 1.03-2.6 0-1.05-.34-1.93-1.04-2.65-.7-.7-1.54-1.07-2.53-1.07-1 0-1.82.36-2.5 1.1zm1.9 2.18c-.12-.23-.3-.36-.5-.36-.4 0-.58.27-.58.8s.2.82.58.82c.25 0 .43-.13.54-.4l.52.3c-.25.47-.63.7-1.14.7-.4 0-.7-.12-.94-.37-.23-.26-.35-.6-.35-1.05 0-.43.1-.77.35-1.03.25-.25.55-.38.9-.38.55 0 .93.22 1.16.66l-.56.3zm2.5 0c-.12-.23-.28-.36-.5-.36-.38 0-.58.27-.58.8s.2.82.6.82c.24 0 .42-.13.52-.4l.54.3c-.26.47-.64.7-1.14.7-.4 0-.7-.12-.94-.37-.24-.26-.36-.6-.36-1.05 0-.43.12-.77.36-1.03.24-.25.54-.38.92-.38.53 0 .9.22 1.15.66l-.6.3z"/>
  <path d="M690.54 645.17h-32.17c-.35 0-.63.3-.63.66v11.4c0 .07.06.13.14.13h33.15c.07 0 .14-.06.14-.14v-11.4c0-.36-.28-.65-.63-.65zm-32.17.3h32.17c.2 0 .35.16.35.35v7.9h-23c-.85 1.6-2.48 2.68-4.34 2.68-1.87 0-3.5-1.08-4.33-2.66h-1.2v-7.9c0-.2.15-.37.34-.37z"/>
  <path fill="#fff" d="M681.77 656.13c.02.04.05.08.1.1.03.03.07.05.12.07l.15.02h.1l.13-.05.1-.07.02-.12c0-.05 0-.1-.05-.13-.03-.03-.07-.06-.12-.08l-.18-.06c-.06 0-.13-.02-.2-.04l-.2-.07-.17-.1c-.05-.05-.1-.1-.13-.16s-.04-.14-.04-.23c0-.1.03-.17.07-.24.04-.08.1-.14.16-.2.06-.04.14-.07.22-.1.08-.02.16-.03.25-.03.1 0 .18 0 .27.04.1.02.17.05.24.1.08.06.13.12.17.2.04.08.06.17.06.28h-.4c0-.05 0-.1-.02-.14l-.07-.08c-.04-.02-.07-.04-.1-.04l-.15-.02h-.1l-.1.05-.06.08-.02.1c0 .04 0 .07.02.1l.08.06c.04.02.1.04.17.05l.28.07.14.04.17.1c.06.04.12.1.16.17.04.06.07.15.07.26 0 .1-.02.17-.05.25-.04.07-.08.14-.15.2-.07.05-.15.1-.24.12-.1.03-.2.05-.33.05-.1 0-.2-.02-.3-.04-.1-.02-.18-.06-.25-.1-.07-.07-.13-.14-.18-.23-.04-.08-.06-.2-.06-.3h.4c0 .06 0 .12.03.16zm2.3-1.45l.68 1.92h-.43l-.14-.43h-.7l-.13.43h-.4l.7-1.92h.4zm0 1.18l-.22-.7-.25.7h.48zm-9.62-1.18c.1 0 .17 0 .25.02.07.02.13.05.18.08.05.04.1.1.12.15.03.06.04.14.04.23 0 .1-.02.17-.06.24-.04.06-.1.12-.18.16.1.03.2.1.25.18.06.08.1.2.1.3 0 .1-.03.2-.07.26-.04.07-.1.13-.15.17-.06.05-.13.08-.2.1-.08.02-.17.03-.25.03h-.9v-1.92h.88zm-.05.78c.07 0 .13-.02.18-.06.05-.03.07-.1.07-.17 0-.05 0-.08-.02-.1-.02-.04-.04-.06-.07-.08-.02 0-.05-.03-.08-.03h-.5v.44h.42zm.02.8h.12c.04 0 .07-.02.1-.04l.06-.08c.02-.03.03-.07.03-.12 0-.1-.03-.17-.08-.2-.06-.05-.13-.07-.2-.07h-.46v.52h.43zm.78-1.58h.46l.43.76.42-.76h.45l-.68 1.2v.73h-.42v-.74l-.68-1.18zm11.07-5.16c0 1.7-1.32 3.08-2.95 3.08-1.63 0-2.95-1.38-2.95-3.07 0-1.7 1.32-3.08 2.95-3.08 1.63 0 2.95 1.37 2.95 3.07z"/>
  <path d="M683.3 646.15c-.9 0-1.65.33-2.27.98-.64.67-.96 1.47-.96 2.4 0 .9.32 1.7.96 2.36.63.65 1.4 1 2.27 1 .9 0 1.66-.35 2.3-1.02.63-.63.94-1.42.94-2.36s-.32-1.74-.94-2.4c-.63-.64-1.4-.97-2.3-.97zm0 .6c.74 0 1.36.28 1.87.82.52.53.78 1.18.78 1.95s-.25 1.42-.76 1.93c-.54.55-1.17.82-1.9.82-.72 0-1.34-.27-1.86-.82-.53-.54-.78-1.18-.78-1.93 0-.74.26-1.4.8-1.95.5-.54 1.1-.8 1.85-.8z"/>
  <path d="M681.87 649.04c.13-.84.7-1.3 1.4-1.3 1.04 0 1.67.8 1.67 1.83 0 1-.67 1.8-1.67 1.8-.7 0-1.32-.45-1.43-1.32h.82c.02.45.3.6.7.6.46 0 .76-.43.76-1.1 0-.72-.25-1.1-.74-1.1-.35 0-.66.13-.72.6h.23l-.65.66-.64-.65h.27z"/>
  <ellipse cx="675.39" cy="649.59" fill="#fff" rx="2.99" ry="3.12"/>
  <path d="M676.26 648.7c0-.13-.1-.23-.2-.23h-1.33c-.12 0-.2.1-.2.22v1.36h.36v1.63h1v-1.64h.36v-1.37z"/>
  <ellipse cx="675.39" cy="647.82" rx=".45" ry=".47"/>
  <path fill-rule="evenodd" d="M675.38 646.15c-.9 0-1.65.33-2.27.98-.62.67-.94 1.47-.94 2.4 0 .9.32 1.7.95 2.36.65.66 1.4 1 2.3 1 .88 0 1.65-.34 2.3-1 .6-.65.92-1.43.92-2.38 0-.94-.3-1.74-.94-2.4-.62-.64-1.4-.96-2.3-.96zm0 .6c.75 0 1.37.28 1.88.82.52.53.78 1.18.78 1.95 0 .78-.26 1.42-.76 1.93-.54.55-1.16.82-1.9.82-.7 0-1.33-.27-1.85-.8-.53-.56-.8-1.2-.8-1.95 0-.74.27-1.4.8-1.95.5-.54 1.13-.8 1.86-.8z" clip-rule="evenodd"/>
  <g font-size="6" text-anchor="end">
    <text x="653" y="657.9" style="line-height:125%;text-align:end">
      Odvozeno z klávesnice pro Python od Petra Viktorina (https://github.com/encukou/cheatsheets) Šířeno pod licencí CC BY-SA: http://creativecommons.org/licenses/by-sa/4.0/
    </text>
    <text x="653" y="649.93" style="line-height:125%;text-align:end">
      Umístění znaků potřebných pro psaní HTML a CSS na typické české (s AltGr) a anglické klávesnici. Pozor, každá klávesnice je jiná, a každý operační systém používá trošku jiné rozložení!
    </text>
  </g>
  <text x="42.11" y="102" font-size="26" style="line-height:125%;text-align:start">
    česká klávesnice
  </text>
  <text x="42.11" y="405" font-size="26" style="line-height:125%;text-align:start">
    anglická (americká) klávesnice
  </text>
</svg>
